<svg id="Layer_1" data-name="Layer 1" xmlns="http://www.w3.org/2000/svg" viewBox="0 0 410 76"><defs><style>.cls-1{fill:#fff;}</style></defs><title>Untitled-1</title><path class="cls-1" d="M71.80811,2.07861V10.647a15.79482,15.79482,0,0,0-2.999-1.28515,82.12682,82.12682,0,0,0-8.71094-2.71338Q54.67163,5.22022,47.76953,4.12549a69.99745,69.99745,0,0,0-13.85205-.80908q.85694,13.13819,1.999,24.51464,1.14258,11.37746,2.23731,20.32569,1.0935,8.94947,2.04687,15.042.95069,6.09375,1.42823,8.7583a97.35927,97.35927,0,0,0,11.75732-1.5708q5.47339-1.09278,9.56787-2.33252a89.683,89.683,0,0,0,8.854-3.1416v8.56836H.40625V64.91211a82.79535,82.79535,0,0,0,9.32959,3.332,102.45988,102.45988,0,0,0,10.28223,2.47559A86.06066,86.06066,0,0,0,32.7749,72.14746V3.41162A83.39517,83.39517,0,0,0,20.2085,4.83984Q14.4004,5.98242,9.92627,7.31494a87.28443,87.28443,0,0,0-9.52,3.332V2.07861Z"/><path class="cls-1" d="M149.87305,2.07861V73.48047h-.95215q-8.56788-8.85352-18.65967-18.94531-4.28394-4.28394-9.4248-9.32959-5.14087-5.04492-10.90088-10.61524Q104.17432,29.021,97.84521,23.11865,91.51271,17.2168,84.8501,11.02783,85.896,25.21411,87.23,36.58984q1.33227,11.37744,2.4751,19.65918,1.33227,9.61671,2.76074,17.23145H83.23145V2.07861h.95214l64.54688,69.688q-1.04883-15.6123-2.37988-28.37012-1.33448-12.75585-2.66553-21.99169-1.52417-10.853-3.04688-19.32618Z"/><path class="cls-1" d="M164.438,2.07861q7.33008,0,15.56543.04785a152.54474,152.54474,0,0,1,16.23193.95215A97.94379,97.94379,0,0,1,211.563,6.02979a41.31389,41.31389,0,0,1,12.8999,5.99755,29.43664,29.43664,0,0,1,8.94922,10.23438q3.37792,6.28344,3.47461,15.51807.09375,9.2351-2.99854,15.51806a27.96627,27.96627,0,0,1-8.37793,10.23389,38.49634,38.49634,0,0,1-12.09082,5.99805A85.42417,85.42417,0,0,1,199.377,72.481a121.72067,121.72067,0,0,1-14.32763.95215q-7.09351.04906-12.89991.04736H164.438Zm9.04443,70.3545q4.75928,0,10.71-.14258a92.30787,92.30787,0,0,0,12.043-1.09473,64.127,64.127,0,0,0,11.90039-3.04687,33.62826,33.62826,0,0,0,10.377-5.94971,28.56285,28.56285,0,0,0,7.37841-9.80615,35.04024,35.04024,0,0,0,2.90332-14.61328q.09375-8.66236-3.09375-14.61377a28.81373,28.81373,0,0,0-8.47314-9.80567,40.69538,40.69538,0,0,0-12.043-5.95019,88.55843,88.55843,0,0,0-13.85205-3.09424,117.04385,117.04385,0,0,0-13.852-1.14209q-6.76026-.14283-11.99512-.14307.95068,13.99512,2.18945,25.79981,1.23633,11.8059,2.37989,20.84912,1.14258,9.04614,2.09472,14.89941Q173.1001,70.43408,173.48242,72.43311Z"/><path class="cls-1" d="M257.92676,18.54883a35.02545,35.02545,0,0,0-1.57129,4.28418,44.47415,44.47415,0,0,0-1.18994,5.09326q-.47754,2.71289-.76172,5.56934-.28491,2.8557-.28516,5.52148,0,12.66283,5.14063,20.84961a30.07368,30.07368,0,0,0,13.61377,11.8999,26.74169,26.74169,0,0,0,23.70556.09522,43.94226,43.94226,0,0,0,10.09131-6.71143q4.85523-4.23486,9.90137-9.187l9.04394,4.09375a70.57941,70.57941,0,0,1-9.71044,7.42578,59.11224,59.11224,0,0,1-9.52051,4.90283,50.40223,50.40223,0,0,1-9.13916,2.71338,45.62737,45.62737,0,0,1-8.56836.85645,48.78358,48.78358,0,0,1-17.2793-2.95118A42.10114,42.10114,0,0,1,257.87891,64.96a36.62344,36.62344,0,0,1-8.80616-11.80517,32.957,32.957,0,0,1-3.1416-14.1377,38.46312,38.46312,0,0,1,.47608-5.855,49.57955,49.57955,0,0,1,1.33252-6.09277,42.814,42.814,0,0,1,2.09472-5.75977,26.50692,26.50692,0,0,1,2.856-4.9502l-11.13867-4.665.47607-.85694q1.99952.85693,3.23682,1.333,1.23633.47754,2.37988.9043,1.14258.42846,2.42774.90429,1.28539.47754,3.47509,1.333a39.796,39.796,0,0,1,14.61328-11.377A47.62582,47.62582,0,0,1,288.67676-.30127,48.79447,48.79447,0,0,1,305.95605,2.6499a41.60728,41.60728,0,0,1,13.4712,8.04492,36.97356,36.97356,0,0,1,8.7583,11.80469,32.95026,32.95026,0,0,1,3.14209,14.1377,34.24385,34.24385,0,0,1-1.9043,11.23388,1.05626,1.05626,0,0,0-.09522.47608.08435.08435,0,0,1-.09521.09521Zm30.75-17.70752A38.32392,38.32392,0,0,0,270.541,4.93506a27.78646,27.78646,0,0,0-11.94825,12.28076q9.1399,3.334,18.374,6.75977,9.23364,3.427,17.75537,6.42578,8.5188,2.99927,15.85107,5.42675,7.33008,2.42726,12.66211,3.85547a45.44183,45.44183,0,0,0-1.666-15.042,32.62359,32.62359,0,0,0-6.42627-12.09033,31.94153,31.94153,0,0,0-11.04346-8.23535A40.55962,40.55962,0,0,0,288.67676.84131Z"/><path class="cls-1" d="M400.63477,73.48047q-2.85645-4.949-6.85547-10.853-3.42774-5.14086-8.51953-11.85254Q380.165,44.063,373.311,36.16113q-6.85474,7.90358-11.99561,14.61377-5.14088,6.71118-8.56787,11.85254-3.999,5.90406-6.855,10.853h-9.52q5.04492-5.61621,10.47217-11.61475,4.66332-5.14086,10.47216-11.51953,5.80591-6.37719,11.71-12.852a39.91043,39.91043,0,0,1,2.76074-3.04639q-7.13966-8.09106-12.8999-14.09033-5.76123-5.99708-10.04346-10.09131-4.95191-4.75927-8.854-8.28271h10.09131q2.9502,4.47655,6.56885,9.52051,3.04614,4.28393,7.2832,9.80566,4.23488,5.52246,9.37745,11.3291,5.04492-5.8059,9.28271-11.3291,4.23341-5.52027,7.2832-9.80566,3.61524-5.04493,6.56836-9.52051h10.18555q-3.99609,3.52368-8.94727,8.28271-4.28613,4.095-10.04492,10.09131-5.75976,5.99781-12.8042,14.09033.6643.76318,1.33252,1.523.665.76319,1.42871,1.52344,5.80371,6.47535,11.56641,12.852,5.75976,6.37939,10.51953,11.51953,5.42579,5.99781,10.56836,11.61475Z"/></svg>