<svg id="Layer_1" data-name="Layer 1" xmlns="http://www.w3.org/2000/svg" viewBox="0 0 74 76"><defs><style>.cls-1{fill:#fff;}</style></defs><title>Untitled-1</title><path class="cls-1" d="M64.63477,73.48047q-2.85645-4.949-6.85547-10.853-3.42774-5.14086-8.51953-11.85254Q44.165,44.063,37.311,36.16113,30.4563,44.06471,25.31543,50.7749q-5.14088,6.71118-8.56787,11.85254-3.999,5.90406-6.855,10.853h-9.52q5.04492-5.61621,10.47217-11.61475,4.66332-5.14086,10.47216-11.51953,5.80591-6.37719,11.71-12.852a39.91043,39.91043,0,0,1,2.76074-3.04639q-7.13965-8.09106-12.8999-14.09033-5.76123-5.99708-10.04346-10.09131-4.9519-4.75927-8.854-8.28271H14.08154q2.9502,4.47655,6.56885,9.52051,3.04614,4.28393,7.2832,9.80566Q32.16846,26.832,37.311,32.63867q5.04492-5.8059,9.28271-11.3291,4.23341-5.52027,7.2832-9.80566Q57.49219,6.459,60.44531,1.9834H70.63086q-3.99609,3.52368-8.94727,8.28271-4.28613,4.095-10.04492,10.09131-5.75976,5.99781-12.8042,14.09033.6643.76318,1.33252,1.523.665.76319,1.42871,1.52344,5.80371,6.47535,11.56641,12.852,5.75976,6.37939,10.51953,11.51953Q69.10742,67.86353,74.25,73.48047Z"/></svg>