<svg id="Layer_1" data-name="Layer 1" xmlns="http://www.w3.org/2000/svg" viewBox="0 0 100 1000"><defs><style>.cls-1{fill:#fff;}</style></defs><title>start_text</title><path class="cls-1" d="M27.38135,979.044V990.1582H4.835V978.72559c0-3.63038.4458-6.30518,1.30566-8.02491a4.58271,4.58271,0,0,1,4.4585-2.57959h.06348a4.56668,4.56668,0,0,1,3.56689,1.33741,7.68913,7.68913,0,0,1,1.65576,3.94873,8.91777,8.91777,0,0,1,1.56055-4.458,4.56215,4.56215,0,0,1,3.75781-1.46484h.03174a6.00735,6.00735,0,0,1,2.06983.31835,4.40287,4.40287,0,0,1,1.59228,1.019,7.56288,7.56288,0,0,1,1.91065,3.88525A29.67009,29.67009,0,0,1,27.38135,979.044ZM14.898,987.67383v-9.07569c0-.79589-.03174-1.56054-.06348-2.26074a17.1154,17.1154,0,0,0-.22314-1.94287,5.688,5.688,0,0,0-1.21-2.80224,3.1766,3.1766,0,0,0-2.54785-.98731h-.03174a3.05193,3.05193,0,0,0-3.08887,1.94287,16.90281,16.90281,0,0,0-.7959,6.082v9.04395Zm2.03809-8.85254v8.85254h8.248v-8.40674c0-1.05127-.03174-2.03809-.0957-2.92969a15.75575,15.75575,0,0,0-.2544-2.3247,5.79475,5.79475,0,0,0-1.21044-3.0254,3.287,3.287,0,0,0-2.51563-.95556h-.03174a4.57715,4.57715,0,0,0-1.56055.25488,2.56913,2.56913,0,0,0-1.11474.7959,5.52655,5.52655,0,0,0-1.17822,2.96191A33.72083,33.72083,0,0,0,16.936,978.82129Z"/><path class="cls-1" d="M25.12012,960.03906v-19.1709h2.26123v21.62305H4.835V941.47314H7.03223v18.56592h8.21631v-15.668H17.4458v15.668Z"/><path class="cls-1" d="M19.06982,914.34668v-2.70654a10.53163,10.53163,0,0,1,2.45215.7959,9.5906,9.5906,0,0,1,2.16553,1.36962,10.95758,10.95758,0,0,1,3.15234,4.3628,17.12593,17.12593,0,0,1,1.14649,6.62353q0,6.30543-2.96143,9.84033c-1.97461,2.38819-4.84033,3.56641-8.59814,3.56641h-.064a13.02506,13.02506,0,0,1-3.439-.4458,9.70517,9.70517,0,0,1-2.92969-1.30566,11.47868,11.47868,0,0,1-4.17187-4.84034,16.31509,16.31509,0,0,1-1.46485-7.1333,19.198,19.198,0,0,1,.22266-3.05713,15.722,15.722,0,0,1,.73242-2.80224,11.33693,11.33693,0,0,1,2.80273-4.42676,9.6605,9.6605,0,0,1,4.68116-2.38818v2.6748a7.3027,7.3027,0,0,0-4.55371,3.24805,12.68023,12.68023,0,0,0-1.59229,6.75146A16.548,16.548,0,0,0,6.937,927.626a12.50394,12.50394,0,0,0,.85938,2.73877,8.65643,8.65643,0,0,0,3.28027,3.85351,9.61665,9.61665,0,0,0,5.28613,1.40088H16.395a8.54543,8.54543,0,0,0,6.84668-2.834c1.624-1.87891,2.41992-4.58594,2.41992-8.12061a16.85745,16.85745,0,0,0-.22266-2.92969,13.07108,13.07108,0,0,0-.66894-2.38818,8.72565,8.72565,0,0,0-2.38818-3.376A8.2719,8.2719,0,0,0,19.06982,914.34668Z"/><path class="cls-1" d="M27.38135,882.4126v3.12109L14.48389,895.75586l6.21,8.18408h6.6875v2.51611H4.835v-2.51611H18.14648L4.835,886.71191V883.145l8.31152,10.70019Z"/><path class="cls-1" d="M18.56006,864.64941v.41407L8.17871,875.82715H27.38135v2.45215H4.835v-2.48438l10.668-10.98633L4.835,853.6626v-2.38819H27.38135v2.45215H8.083Z"/><path class="cls-1" d="M27.38135,820.23291v2.77051l-6.43262,3.40771v14.48926l6.43262,3.34375v2.77051L4.835,835.07275v-2.61132Zm-8.53467,19.585V827.55762L7.19141,833.73535Z"/><path class="cls-1" d="M27.38135,795.27246,9.61182,812.023l-1.688,1.52881H27.38135v2.45215H4.835v-2.6753l17.32373-16.36816,1.7832-1.59229H4.835V792.916H27.38135Z"/><path class="cls-1" d="M28.01807,774.89844a31.07694,31.07694,0,0,1-.22266,4.01269,16.66815,16.66815,0,0,1-.70068,3.21631,8.31325,8.31325,0,0,1-2.834,4.20361,10.13752,10.13752,0,0,1-4.84082,1.81495v-2.73877a6.131,6.131,0,0,0,4.9043-2.99317q1.43335-2.532,1.4331-7.54736c0-3.08887-.38232-5.3501-1.17822-6.71924a3.63837,3.63837,0,0,0-3.312-2.03808,4.20068,4.20068,0,0,0-1.49658.25488,2.77161,2.77161,0,0,0-1.019.7959,7.4048,7.4048,0,0,0-1.14648,3.312c-.22314,1.49658-.38232,3.439-.5415,5.82763-.09571,1.17823-.19092,2.26075-.3501,3.24805a25.45445,25.45445,0,0,1-.478,2.67529,7.11428,7.11428,0,0,1-1.81494,3.56641,4.60485,4.60485,0,0,1-3.37549,1.21A5.5633,5.5633,0,0,1,6.20459,784.293q-1.81567-2.6748-1.81543-8.12061,0-5.58911,1.91064-8.69384a7.58131,7.58131,0,0,1,5.57276-3.63038v2.64307a5.11691,5.11691,0,0,0-4.04395,2.89795,15.26678,15.26678,0,0,0-1.27392,6.84668,13.227,13.227,0,0,0,1.11474,6.21,3.63068,3.63068,0,0,0,3.31153,2.00635,2.98665,2.98665,0,0,0,1.24218-.22315,3.243,3.243,0,0,0,.95508-.66845,6.35821,6.35821,0,0,0,1.14649-2.898,48.787,48.787,0,0,0,.605-5.3501c.0957-1.30566.1914-2.51562.31885-3.59863.12744-1.08252.28662-2.06983.47753-2.92969a8.03218,8.03218,0,0,1,1.81495-3.917,4.82372,4.82372,0,0,1,3.59863-1.27344,5.77,5.77,0,0,1,5.06347,2.73828C27.41309,768.1792,28.01807,771.04541,28.01807,774.89844Z"/><path class="cls-1" d="M19.06982,725.48291v-2.70654a10.53163,10.53163,0,0,1,2.45215.7959,9.5906,9.5906,0,0,1,2.16553,1.36962,10.95758,10.95758,0,0,1,3.15234,4.3628,17.12593,17.12593,0,0,1,1.14649,6.62353q0,6.30543-2.96143,9.84033c-1.97461,2.38819-4.84033,3.56641-8.59814,3.56641h-.064a13.02506,13.02506,0,0,1-3.439-.4458,9.70517,9.70517,0,0,1-2.92969-1.30566,11.47868,11.47868,0,0,1-4.17187-4.84034,16.31509,16.31509,0,0,1-1.46485-7.1333,19.198,19.198,0,0,1,.22266-3.05713,15.722,15.722,0,0,1,.73242-2.80224,11.33693,11.33693,0,0,1,2.80273-4.42676,9.6605,9.6605,0,0,1,4.68116-2.38818v2.6748a7.3027,7.3027,0,0,0-4.55371,3.248,12.68023,12.68023,0,0,0-1.59229,6.75146A16.55326,16.55326,0,0,0,6.937,738.7627a12.508,12.508,0,0,0,.85938,2.73828,8.65643,8.65643,0,0,0,3.28027,3.85351,9.61665,9.61665,0,0,0,5.28613,1.40088H16.395a8.54543,8.54543,0,0,0,6.84668-2.834c1.624-1.87891,2.41992-4.58594,2.41992-8.12061a16.85753,16.85753,0,0,0-.22266-2.92969,13.07108,13.07108,0,0,0-.66894-2.38818,8.72565,8.72565,0,0,0-2.38818-3.376A8.272,8.272,0,0,0,19.06982,725.48291Z"/><path class="cls-1" d="M27.98633,705.17285a18.3681,18.3681,0,0,1-.31836,3.56641,16.82645,16.82645,0,0,1-.95557,3.18457,10.7786,10.7786,0,0,1-3.853,4.77685,11.23452,11.23452,0,0,1-6.49659,1.75147h-.06347a13.84213,13.84213,0,0,1-3.5669-.4458A9.54764,9.54764,0,0,1,9.771,716.70068a11.40947,11.40947,0,0,1-4.04444-4.77685,15.89073,15.89073,0,0,1-1.36914-6.751,17.68872,17.68872,0,0,1,.76416-5.28662,12.54408,12.54408,0,0,1,2.293-4.26709,10.01625,10.01625,0,0,1,3.72559-2.834,12.5304,12.5304,0,0,1,5.15918-1.019h.06347a12.01453,12.01453,0,0,1,5.09522,1.019,9.83672,9.83672,0,0,1,3.63037,2.898,11.85678,11.85678,0,0,1,2.16553,4.23535A17.46123,17.46123,0,0,1,27.98633,705.17285Zm-2.35645,0a16.92107,16.92107,0,0,0-.25488-2.898,13.6527,13.6527,0,0,0-.70068-2.61133,8.27434,8.27434,0,0,0-3.02491-3.85351,9.0191,9.0191,0,0,0-5.28662-1.43262h-.03174a12.23028,12.23028,0,0,0-2.96142.31836,7.86383,7.86383,0,0,0-2.42041,1.05078,8.58857,8.58857,0,0,0-3.248,3.78955,13.96532,13.96532,0,0,0-1.05078,5.605,17.77384,17.77384,0,0,0,.2544,2.99317,13.21057,13.21057,0,0,0,.82812,2.61133,8.27316,8.27316,0,0,0,3.21631,3.75781,10.06755,10.06755,0,0,0,5.38183,1.3374,11.40836,11.40836,0,0,0,2.86622-.3501,7.51142,7.51142,0,0,0,2.35644-1.05127,8.20351,8.20351,0,0,0,3.05713-3.78955A14.22333,14.22333,0,0,0,25.62988,705.17285Z"/><path class="cls-1" d="M24.99316,666.93359h2.38819V686.168H4.835v-2.54736h20.1582Z"/><path class="cls-1" d="M24.99316,642.99121h2.38819v19.23438H4.835v-2.54737h20.1582Z"/><path class="cls-1" d="M25.12012,635.832v-19.1709h2.26123v21.62305H4.835V617.26611H7.03223V635.832h8.21631v-15.668H17.4458v15.668Z"/><path class="cls-1" d="M27.38135,587.52832v2.16553l-6.40088.0957a9.16846,9.16846,0,0,1,1.7832.63672,10.34629,10.34629,0,0,1,1.65625,1.05078,9.32044,9.32044,0,0,1,2.5791,3.63037,15.66456,15.66456,0,0,1,.98731,6.08252,18.91561,18.91561,0,0,1-.31836,3.66211,15.22757,15.22757,0,0,1-.95557,3.15283,9.754,9.754,0,0,1-3.88476,4.42627,11.9156,11.9156,0,0,1-6.40088,1.56055H16.395a14.2747,14.2747,0,0,1-3.59863-.4458A10.29155,10.29155,0,0,1,9.83447,612.272a10.89418,10.89418,0,0,1-4.07617-4.77685,16.77546,16.77546,0,0,1-1.40088-7.00586,25.5458,25.5458,0,0,1,.19092-3.18457,19.3885,19.3885,0,0,1,.63721-2.834,10.65953,10.65953,0,0,1,2.6748-4.45849,9.45433,9.45433,0,0,1,4.8086-2.41992v2.80224A6.85318,6.85318,0,0,0,8.05127,593.77a14.12866,14.12866,0,0,0-1.40088,6.65576,19.04808,19.04808,0,0,0,.2544,3.12061,13.49612,13.49612,0,0,0,.82812,2.707,8.41961,8.41961,0,0,0,3.248,3.78955,9.87431,9.87431,0,0,0,5.4458,1.36914c3.08886,0,5.41357-.92334,6.97412-2.80225,1.56006-1.8789,2.35644-4.458,2.35644-7.80175a16.45638,16.45638,0,0,0-.66894-5.03174,9.0864,9.0864,0,0,0-1.6875-3.28028,7.14021,7.14021,0,0,0-2.35693-1.87841,7.54849,7.54849,0,0,0-2.54737-.66895v10.95459H16.29932v-13.375Z"/><path class="cls-1" d="M25.12012,578.81006v-19.1709h2.26123v21.62256H4.835V560.24414H7.03223v18.56592h8.21631v-15.668H17.4458v15.668Z"/><path class="cls-1" d="M27.98633,532.80176a18.36793,18.36793,0,0,1-.31836,3.5664,16.826,16.826,0,0,1-.95557,3.18457,10.77863,10.77863,0,0,1-3.853,4.77686,11.2346,11.2346,0,0,1-6.49659,1.75146h-.06347a13.84169,13.84169,0,0,1-3.5669-.4458A9.54762,9.54762,0,0,1,9.771,544.32959a11.4095,11.4095,0,0,1-4.04444-4.77686,15.89069,15.89069,0,0,1-1.36914-6.751,17.68867,17.68867,0,0,1,.76416-5.28662,12.54389,12.54389,0,0,1,2.293-4.26709,10.01638,10.01638,0,0,1,3.72559-2.834,12.53056,12.53056,0,0,1,5.15918-1.019h.06347a12.01469,12.01469,0,0,1,5.09522,1.019,9.83682,9.83682,0,0,1,3.63037,2.898,11.85686,11.85686,0,0,1,2.16553,4.23535A17.4613,17.4613,0,0,1,27.98633,532.80176Zm-2.35645,0a16.921,16.921,0,0,0-.25488-2.89795,13.6527,13.6527,0,0,0-.70068-2.61133,8.27442,8.27442,0,0,0-3.02491-3.85352,9.01918,9.01918,0,0,0-5.28662-1.43261h-.03174a12.22979,12.22979,0,0,0-2.96142.31836,7.86359,7.86359,0,0,0-2.42041,1.05078,8.58857,8.58857,0,0,0-3.248,3.78955,13.96529,13.96529,0,0,0-1.05078,5.605,17.77372,17.77372,0,0,0,.2544,2.99316,13.21057,13.21057,0,0,0,.82812,2.61133,8.27311,8.27311,0,0,0,3.21631,3.75781,10.06746,10.06746,0,0,0,5.38183,1.33741,11.40836,11.40836,0,0,0,2.86622-.3501,7.51165,7.51165,0,0,0,2.35644-1.05127,8.20351,8.20351,0,0,0,3.05713-3.78955A14.22337,14.22337,0,0,0,25.62988,532.80176Z"/><path class="cls-1" d="M15.94873,494.37158H18.21V511.313h9.17139v2.48389H4.835V493.28906H7.09619V511.313h8.85254Z"/><path class="cls-1" d="M27.38135,467.69336v10.41309H4.835v-9.90381a21.94048,21.94048,0,0,1,.605-5.31787,12.72255,12.72255,0,0,1,1.97461-4.3628,8.82687,8.82687,0,0,1,3.439-2.92968,11.64571,11.64571,0,0,1,5.15918-1.05079h.06347a14.76,14.76,0,0,1,3.69434.41358,8.94994,8.94994,0,0,1,2.89795,1.30566,9.4054,9.4054,0,0,1,3.59814,4.64942A19.67666,19.67666,0,0,1,27.38135,467.69336ZM7.064,468.2666v7.32422H25.12012v-7.80176a17.87216,17.87216,0,0,0-.22266-2.99365,12.74734,12.74734,0,0,0-.605-2.57959A7.66048,7.66048,0,0,0,21.458,458.4585a9.51512,9.51512,0,0,0-5.41358-1.33789H16.0127a12.24922,12.24922,0,0,0-2.99366.35058,7.60626,7.60626,0,0,0-2.29248,1.08252,7.842,7.842,0,0,0-2.80273,3.94873A17.83744,17.83744,0,0,0,7.064,468.2666Z"/><path class="cls-1" d="M25.12012,446.49121v-19.1709h2.26123v21.623H4.835V427.92529H7.03223v18.56592h8.21631v-15.668H17.4458v15.668Z"/><path class="cls-1" d="M28.01807,411.43555a31.07694,31.07694,0,0,1-.22266,4.01269,16.66815,16.66815,0,0,1-.70068,3.21631,8.31325,8.31325,0,0,1-2.834,4.20361,10.13752,10.13752,0,0,1-4.84082,1.815v-2.73877a6.131,6.131,0,0,0,4.9043-2.99317q1.43335-2.532,1.4331-7.54736c0-3.08887-.38232-5.3501-1.17822-6.71924a3.63838,3.63838,0,0,0-3.312-2.03809,4.20067,4.20067,0,0,0-1.49658.25489,2.77161,2.77161,0,0,0-1.019.7959,7.4048,7.4048,0,0,0-1.14648,3.312c-.22314,1.49658-.38232,3.439-.5415,5.82763-.09571,1.17823-.19092,2.26075-.3501,3.24805a25.45445,25.45445,0,0,1-.478,2.67529,7.11428,7.11428,0,0,1-1.81494,3.56641,4.60485,4.60485,0,0,1-3.37549,1.21,5.5633,5.5633,0,0,1-4.84033-2.70654q-1.81567-2.6748-1.81543-8.12061,0-5.58911,1.91064-8.69385a7.58133,7.58133,0,0,1,5.57276-3.63037v2.64307a5.11691,5.11691,0,0,0-4.04395,2.89795A15.26678,15.26678,0,0,0,6.55469,412.773a13.227,13.227,0,0,0,1.11474,6.21,3.63068,3.63068,0,0,0,3.31153,2.00635,2.98665,2.98665,0,0,0,1.24218-.22315,3.243,3.243,0,0,0,.95508-.66845,6.35821,6.35821,0,0,0,1.14649-2.898,48.7873,48.7873,0,0,0,.605-5.3501c.0957-1.30566.1914-2.51563.31885-3.59863.12744-1.08252.28662-2.06983.47753-2.92969a8.03218,8.03218,0,0,1,1.81495-3.917,4.82372,4.82372,0,0,1,3.59863-1.27344,5.77,5.77,0,0,1,5.06347,2.73828C27.41309,404.71631,28.01807,407.58252,28.01807,411.43555Z"/><path class="cls-1" d="M4.835,392.62109H27.38135V395.041H4.835Z"/><path class="cls-1" d="M27.38135,362.083v2.16553l-6.40088.0957a9.16846,9.16846,0,0,1,1.7832.63672,10.34559,10.34559,0,0,1,1.65625,1.05078,9.32044,9.32044,0,0,1,2.5791,3.63037,15.66456,15.66456,0,0,1,.98731,6.08252,18.91568,18.91568,0,0,1-.31836,3.66211,15.22794,15.22794,0,0,1-.95557,3.15283,9.754,9.754,0,0,1-3.88476,4.42627,11.9156,11.9156,0,0,1-6.40088,1.56055H16.395a14.2747,14.2747,0,0,1-3.59863-.4458,10.29182,10.29182,0,0,1-2.96192-1.27393A10.89415,10.89415,0,0,1,5.7583,382.0498,16.77538,16.77538,0,0,1,4.35742,375.044a25.5458,25.5458,0,0,1,.19092-3.18457,19.3885,19.3885,0,0,1,.63721-2.834,10.65963,10.65963,0,0,1,2.6748-4.4585A9.45448,9.45448,0,0,1,12.669,362.147v2.80225a6.85315,6.85315,0,0,0-4.61768,3.37549,14.12866,14.12866,0,0,0-1.40088,6.65576,19.048,19.048,0,0,0,.2544,3.1206,13.496,13.496,0,0,0,.82812,2.707,8.41966,8.41966,0,0,0,3.248,3.78955,9.87431,9.87431,0,0,0,5.4458,1.36914c3.08886,0,5.41357-.92334,6.97412-2.80225,1.56006-1.87891,2.35644-4.458,2.35644-7.80176a16.45642,16.45642,0,0,0-.66894-5.03174,9.08635,9.08635,0,0,0-1.6875-3.28027,7.14037,7.14037,0,0,0-2.35693-1.87842,7.54847,7.54847,0,0,0-2.54737-.66894V375.458H16.29932V362.083Z"/><path class="cls-1" d="M27.38135,335.08545,9.61182,351.83594l-1.688,1.52881H27.38135v2.45166H4.835V353.1416l17.32373-16.36816,1.7832-1.59229H4.835V332.729H27.38135Z"/><path class="cls-1" d="M12.86279,297.90332a8.55153,8.55153,0,0,1,1.13037-1.43262,7.69748,7.69748,0,0,1,1.44873-1.16211,8.1,8.1,0,0,1,1.70362-.79589,5.84826,5.84826,0,0,1,1.8623-.30225,7.05664,7.05664,0,0,1,3.773.9707,8.24578,8.24578,0,0,1,2.61084,2.563,11.35762,11.35762,0,0,1,1.51221,3.62988,18.21967,18.21967,0,0,1,.47754,4.1709v13.40381H3.50244v-12.958a11.09822,11.09822,0,0,1,.63672-3.42285,9.03046,9.03046,0,0,1,1.52832-2.72217,7.02962,7.02962,0,0,1,2.19678-1.7832,5.77962,5.77962,0,0,1,2.67431-.63672A5.691,5.691,0,0,1,12.86279,297.90332ZM3.78906,318.56689q4.33008-.25488,7.99121-.6372,3.66211-.3816,6.59082-.73194a8.77783,8.77783,0,0,1-3.27929-1.60791,10.76717,10.76717,0,0,1-2.41992-2.67431,12.27442,12.27442,0,0,1-1.4961-3.42285,14.78261,14.78261,0,0,1-.50976-3.88428,14.27445,14.27445,0,0,1,1.08252-5.63526,4.999,4.999,0,0,0-1.21-.15918,5.8159,5.8159,0,0,0-2.51513.55713A6.76926,6.76926,0,0,0,5.9541,301.8833a7.58115,7.58115,0,0,0-1.43262,2.22852,7.20214,7.20214,0,0,0-.57324,2.6748ZM13.11768,300.419a12.27626,12.27626,0,0,0-1.146,2.86523,13.40073,13.40073,0,0,0,.07959,6.90918,11.55282,11.55282,0,0,0,1.353,3.02441,6.70628,6.70628,0,0,0,2.62646-2.51513,7.0435,7.0435,0,0,0,1.00293-3.7251,7.375,7.375,0,0,0-1.08252-3.93213A6.79538,6.79538,0,0,0,13.11768,300.419Zm13.78613,6.6538a15.34464,15.34464,0,0,0-.68457-4.26611,11.00472,11.00472,0,0,0-1.67139-3.32715,7.82961,7.82961,0,0,0-2.46777-2.165,6.26419,6.26419,0,0,0-3.07227-.77978,5.65759,5.65759,0,0,0-3.24756,1.01855,1.47272,1.47272,0,0,0-.66845,1.0669,1.52084,1.52084,0,0,0,.35009,1.22558,9.06208,9.06208,0,0,1,1.56006,2.75391,9.84272,9.84272,0,0,1,.57325,3.39111,9.66209,9.66209,0,0,1-1.0669,4.55274,7.5987,7.5987,0,0,1-2.81738,3.08838,6.91412,6.91412,0,0,0,1.22558,1.33691,9.26421,9.26421,0,0,0,1.52832,1.05078,8.471,8.471,0,0,0,1.67139.70068,6.67306,6.67306,0,0,0,1.624.28614q2.89748-.3816,4.77588-.68408,1.87866-.30249,2.51514-.39795Z"/><path class="cls-1" d="M9.01074,285.55029a11.7306,11.7306,0,0,0,1.43262.52539,14.84068,14.84068,0,0,0,1.70312.398q.90747.15967,1.8628.2544a18.48564,18.48564,0,0,0,1.84668.0957,12.90819,12.90819,0,0,0,6.97265-1.71924,10.05841,10.05841,0,0,0,3.9795-4.55273,8.94425,8.94425,0,0,0,.03222-7.92822A14.71233,14.71233,0,0,0,24.5957,269.249q-1.4165-1.62378-3.07275-3.31152l1.36914-3.02441a23.60455,23.60455,0,0,1,2.4834,3.24755,19.76567,19.76567,0,0,1,1.63965,3.1836,16.82838,16.82838,0,0,1,.90722,3.05664,15.21705,15.21705,0,0,1,.28662,2.86523,16.31432,16.31432,0,0,1-.98681,5.77881,14.07838,14.07838,0,0,1-2.69043,4.521,12.255,12.255,0,0,1-3.94776,2.94531,11.02594,11.02594,0,0,1-4.728,1.05078,12.85868,12.85868,0,0,1-1.958-.15918,16.59129,16.59129,0,0,1-2.0376-.4458,14.30459,14.30459,0,0,1-1.92627-.70068,8.83753,8.83753,0,0,1-1.65576-.95508l-1.56006,3.7251-.28662-.15918q.28638-.6687.4458-1.08252.15968-.41309.30225-.7959.14355-.38232.30273-.812.15967-.42993.4458-1.16211a13.29813,13.29813,0,0,1-3.80468-4.88721,15.92434,15.92434,0,0,1-1.417-6.86133,16.32432,16.32432,0,0,1,.98682-5.77832,13.91463,13.91463,0,0,1,2.69043-4.50537,12.37165,12.37165,0,0,1,3.94824-2.9292,11.02247,11.02247,0,0,1,4.728-1.05029,11.45485,11.45485,0,0,1,3.75683.63672.35688.35688,0,0,0,.15918.03174.028.028,0,0,1,.03174.03173ZM3.08887,275.26611a12.82138,12.82138,0,0,0,1.36865,6.06543,9.29169,9.29169,0,0,0,4.10742,3.99561q1.11475-3.0564,2.26026-6.14453,1.14624-3.0879,2.14941-5.938,1.00269-2.84913,1.81445-5.30127.81227-2.45142,1.28955-4.23438a15.19888,15.19888,0,0,0-5.03027.55713A10.91006,10.91006,0,0,0,7.00488,266.415a10.68551,10.68551,0,0,0-2.75439,3.69336A13.56285,13.56285,0,0,0,3.08887,275.26611Z"/><path class="cls-1" d="M25.98047,248.80908a8.941,8.941,0,0,0,.03174-7.92773,14.69945,14.69945,0,0,0-2.24463-3.375q-1.41651-1.62378-3.07227-3.311l1.36914-3.0249a23.60382,23.60382,0,0,1,2.4834,3.24756,19.7881,19.7881,0,0,1,1.63965,3.18408,16.86379,16.86379,0,0,1,.90723,3.05615,15.25975,15.25975,0,0,1,.28662,2.86573,16.30722,16.30722,0,0,1-.98682,5.7788,14.08338,14.08338,0,0,1-2.69043,4.521,12.2972,12.2972,0,0,1-3.93213,2.94482,10.91195,10.91195,0,0,1-4.71191,1.05079,10.58129,10.58129,0,0,1-4.9668-1.17823,12.47675,12.47675,0,0,1-3.90039-3.16748,15.15326,15.15326,0,0,1-2.563-4.56884,15.85163,15.85163,0,0,1-.92334-5.38086,15.25975,15.25975,0,0,1,.28662-2.86573,16.86379,16.86379,0,0,1,.90723-3.05615A19.82793,19.82793,0,0,1,5.54,234.418a23.68174,23.68174,0,0,1,2.4834-3.24756l1.36914,3.0249q-1.65528,1.6875-3.05664,3.26319a13.91684,13.91684,0,0,0-2.2124,3.29541,9.41573,9.41573,0,0,0-.89161,3.67724,10.84767,10.84767,0,0,0,.87549,4.37793,9.24525,9.24525,0,0,0,3.916,4.58447,13.26579,13.26579,0,0,0,7.00439,1.6875,12.904,12.904,0,0,0,6.97266-1.71923A10.05713,10.05713,0,0,0,25.98047,248.80908Z"/><path class="cls-1" d="M14.42334,217.25732q3.62915-3.59764,6.08105-6.25634,2.45215-2.658,3.9795-4.47315,1.78344-2.10132,2.89746-3.56592v4.13868L14.90088,218.02148q1.24146,1.719,2.27637,3.26319,1.03491,1.54467,1.83056,2.69043a3.7949,3.7949,0,0,0,1.60791,1.353,3.65591,3.65591,0,0,0,2.05371.271q1.11476-.15894,1.98975-.30273.876-.14283,1.48047-.27051.70092-.12671,1.2417-.22315v3.18409H3.50244V227.605q2.99342-2.83374,5.60352-5.25342,2.61108-2.41919,4.74414-4.521-1.91016-2.324-3.75684-4.26661-1.84644-1.94164-3.31152-3.375-1.719-1.65453-3.2793-2.96093V202.898q1.78346,2.261,3.62988,4.7124,1.62378,2.10132,3.5337,4.63233Q12.5769,214.77393,14.42334,217.25732Zm5.25293,8.81934q-.38158-.63648-.90723-1.44873-.52514-.81225-1.09863-1.65576-.57276-.843-1.146-1.63965-.57275-.79541-1.03466-1.43262-.46143-.63646-1.03467-1.36914L4.23486,227.541q4.80762-.25416,8.62793-.7002Q16.68384,226.39478,19.67627,226.07666Z"/><path class="cls-1" d="M3.50244,173.28906l23.87891-7.92773v3.311q-3.7251.47754-7.41846,1.21-3.69287.73244-6.8291,1.48047-3.1355.74855-5.42871,1.36914-2.29248.62037-3.21533.87549l22.8916,8.72363v.41407l-22.8916,8.72363q.92358.25488,3.21533.87549,2.29248.62109,5.42871,1.36914,3.13623.74853,6.8291,1.48047,3.6936.73242,7.41846,1.21v3.311L3.50244,191.78711v-.3501q2.10132-.85986,4.28223-1.81494,2.18115-.95508,4.25049-1.89453,2.06982-.93824,3.93213-1.81445,1.86253-.876,3.32714-1.57618,1.46486-.70019,2.43555-1.16211.97192-.46142,1.25781-.62109-.2871-.1267-1.25781-.60449-.97045-.47754-2.43555-1.17822-1.4641-.7002-3.32714-1.57618-1.86255-.87523-3.93213-1.83056-2.0691-.95508-4.25049-1.91016-2.18043-.95508-4.28223-1.81494Z"/><path class="cls-1" d="M3.66162,133.55518l8.53272,8.978,15.187-8.978v.541q-2.19654,1.43262-4.6167,3.0249-2.03687,1.3689-4.55274,3.05616-2.51512,1.68822-4.99853,3.40673l14.168,15.40967v3.18408L4.48975,148.71q.35009,3.02563.68408,5.49219.33471,2.46753.58935,4.25049.31862,2.06982.605,3.72509H3.50244V133.55518Zm.19092.73193q.03222,3.56616.14355,6.686.11206,3.12086.33448,6.145L11.3667,143.043ZM23.81543,157.752,12.32178,144.189q-1.91016,1.33741-3.582,2.54737-1.67139,1.21-2.88135,2.16455Z"/><path class="cls-1" d="M3.50244,108.084H27.38135v.31836q-2.96118,2.866-6.33594,6.24073-1.43262,1.43261-3.12012,3.15185-1.68677,1.719-3.5498,3.64551-1.86255,1.927-3.83692,4.04346-1.97314,2.11743-4.04345,4.34619,4.74462-.3501,8.54883-.79639,3.80493-.44531,6.5747-.82764,3.21608-.4453,5.7627-.92334v3.08838H3.50244v-.31836l23.30567-21.58642q-5.22071.35084-9.4878.7959-4.26562.446-7.35449.8916-3.62988.50976-6.46338,1.01855Z"/><path class="cls-1" d="M12.79932,82.90576a9.87284,9.87284,0,0,1,2.89746-3.10791A6.34627,6.34627,0,0,1,19.29443,78.666a6.2234,6.2234,0,0,1,3.43848,1.05127,9.91606,9.91606,0,0,1,2.8335,2.85009,15.01041,15.01041,0,0,1,1.91064,4.187,17.80869,17.80869,0,0,1,.7002,5.03125,14.393,14.393,0,0,1-.12745,1.59229q-.12744,1.05028-.47753,2.65869t-.95508,3.80567q-.60425,2.19652-1.56006,5.0625H22.19189q.605-1.20924,1.41651-2.75391.81225-1.54469,1.5918-3.28027a35.378,35.378,0,0,0,1.38525-3.59815,18.75433,18.75433,0,0,0,.812-3.72558,12.95782,12.95782,0,0,0-.0957-3.63038,8.73752,8.73752,0,0,0-1.353-3.35986,7.52268,7.52268,0,0,0-2.9292-2.61084,7.974,7.974,0,0,0-3.59765-.89209,6.08836,6.08836,0,0,0-2.86573.70068,8.53637,8.53637,0,0,0-2.45166,1.97413,9.37337,9.37337,0,0,1,1.64014,1.7666,10.99739,10.99739,0,0,1,1.27344,2.34033,16.09155,16.09155,0,0,1,1.13037,5.95361,15.54332,15.54332,0,0,1-.85987,5.26953,10.9552,10.9552,0,0,1-2.35595,3.96387,6.67,6.67,0,0,1-1.97412,1.544,5.3134,5.3134,0,0,1-2.51514.62109,5.41239,5.41239,0,0,1-3.47022-1.16211,9.35334,9.35334,0,0,1-2.4038-2.88135,14.557,14.557,0,0,1-1.40088-3.70947,16.24127,16.24127,0,0,1-.46192-3.64551,12.30618,12.30618,0,0,1,.09571-1.46435,18.17815,18.17815,0,0,1,.46142-2.21289q.36621-1.41651,1.0669-3.709.70019-2.29248,1.94189-6.01758h2.9292q-.60424,1.3396-1.49658,2.9336Q6.81446,84.9126,5.938,86.65039q-.87525,1.738-1.57569,3.55518a16.50458,16.50458,0,0,0-.95507,3.60254,9.92609,9.92609,0,0,0,.09521,3.45947A7.241,7.241,0,0,0,5.0625,100.4082a6.9334,6.9334,0,0,0,2.26074,1.7378,7.02965,7.02965,0,0,0,3.12012.65332,5.605,5.605,0,0,0,2.706-.66944,15.55989,15.55989,0,0,1-2.06933-4.415,18.86165,18.86165,0,0,1-.76416-5.46777,19.25579,19.25579,0,0,1,.605-4.97314A16.80125,16.80125,0,0,1,12.79932,82.90576Zm4.77588,10.8833a10.7346,10.7346,0,0,0-.95508-4.55273,8.49082,8.49082,0,0,0-2.54737-3.2793,1.18561,1.18561,0,0,0-1.81445.4458,16.78527,16.78527,0,0,0-.55762,11.4458,12.27536,12.27536,0,0,0,2.05371,3.90039,7.4414,7.4414,0,0,0,1.56006-1.40088,9.21818,9.21818,0,0,0,1.21-1.84668,9.7224,9.7224,0,0,0,.78028-2.21289A11.28913,11.28913,0,0,0,17.5752,93.78906Z"/><path class="cls-1" d="M25.98047,50.55273a8.941,8.941,0,0,0,.03174-7.92773,14.69945,14.69945,0,0,0-2.24463-3.375q-1.41651-1.62378-3.07227-3.311l1.36914-3.0249a23.60382,23.60382,0,0,1,2.4834,3.24756A19.7881,19.7881,0,0,1,26.1875,39.3457a16.86388,16.86388,0,0,1,.90723,3.05616,15.25956,15.25956,0,0,1,.28662,2.86572,16.30731,16.30731,0,0,1-.98682,5.77881,14.08344,14.08344,0,0,1-2.69043,4.521A12.29723,12.29723,0,0,1,19.772,58.51221,10.91208,10.91208,0,0,1,15.06006,59.563a10.5814,10.5814,0,0,1-4.9668-1.17822,12.47689,12.47689,0,0,1-3.90039-3.16748,15.15332,15.15332,0,0,1-2.563-4.56885,15.85163,15.85163,0,0,1-.92334-5.38086,15.25956,15.25956,0,0,1,.28662-2.86572,16.86388,16.86388,0,0,1,.90723-3.05616A19.82793,19.82793,0,0,1,5.54,36.16162a23.68174,23.68174,0,0,1,2.4834-3.24756L9.39258,35.939q-1.65528,1.6875-3.05664,3.26319a13.91684,13.91684,0,0,0-2.2124,3.29541,9.41573,9.41573,0,0,0-.89161,3.67724,10.84767,10.84767,0,0,0,.87549,4.37793,9.24524,9.24524,0,0,0,3.916,4.58448,13.26579,13.26579,0,0,0,7.00439,1.6875,12.904,12.904,0,0,0,6.97266-1.71924A10.05713,10.05713,0,0,0,25.98047,50.55273Z"/><path class="cls-1" d="M2.70654,15.43506A15.64193,15.64193,0,0,1,3.74121,9.65625a14.26546,14.26546,0,0,1,2.77-4.50488,12.511,12.511,0,0,1,4.04346-2.9292,11.89065,11.89065,0,0,1,9.77441,0,12.67584,12.67584,0,0,1,4.05957,2.9292,13.88779,13.88779,0,0,1,2.77,4.50488,15.862,15.862,0,0,1,1.01856,5.77881,15.86577,15.86577,0,0,1-1.01856,5.77881,14.075,14.075,0,0,1-2.77,4.521,12.56194,12.56194,0,0,1-4.05957,2.94483,11.89065,11.89065,0,0,1-9.77441,0,12.40009,12.40009,0,0,1-4.04346-2.94483,14.46167,14.46167,0,0,1-2.77-4.521A15.64562,15.64562,0,0,1,2.70654,15.43506Zm25.05664,0a15.31527,15.31527,0,0,0-.66845-4.63233,9.09079,9.09079,0,0,0-2.14893-3.6455A9.8843,9.8843,0,0,0,21.125,4.78516a16.85012,16.85012,0,0,0-5.68311-.84375,15.60976,15.60976,0,0,0-5.36474.84375A10.52064,10.52064,0,0,0,6.22461,7.15723a9.8494,9.8494,0,0,0-2.32422,3.6455,13.31554,13.31554,0,0,0-.77978,4.63233,13.27814,13.27814,0,0,0,.77978,4.64844,9.73026,9.73026,0,0,0,2.32422,3.61377,10.62912,10.62912,0,0,0,3.85254,2.356,15.59826,15.59826,0,0,0,5.36474.84375,15.59632,15.59632,0,0,0,5.36475-.84375,10.621,10.621,0,0,0,3.85254-2.35595A9.7182,9.7182,0,0,0,26.9834,20.0835,13.26691,13.26691,0,0,0,27.76318,15.43506Z"/></svg>