<svg id="Layer_1" data-name="Layer 1" xmlns="http://www.w3.org/2000/svg" viewBox="0 0 100 1000"><defs><style>.cls-1{fill:#fff;}</style></defs><title>start_text</title><path class="cls-1" d="M72.01416,15.57764a18.36732,18.36732,0,0,1,.31836-3.56641,16.82455,16.82455,0,0,1,.95557-3.18457,10.77868,10.77868,0,0,1,3.853-4.77686A11.2346,11.2346,0,0,1,83.6377,2.29834h.06347a13.84213,13.84213,0,0,1,3.5669.4458A9.54762,9.54762,0,0,1,90.22949,4.0498a11.40956,11.40956,0,0,1,4.04444,4.77686,15.89073,15.89073,0,0,1,1.36914,6.751,17.689,17.689,0,0,1-.76416,5.28662,12.54408,12.54408,0,0,1-2.293,4.26709,10.01633,10.01633,0,0,1-3.72559,2.834,12.53043,12.53043,0,0,1-5.15918,1.01905H83.6377a12.0145,12.0145,0,0,1-5.09522-1.019,9.84165,9.84165,0,0,1-3.63037-2.898A11.8567,11.8567,0,0,1,72.74658,20.832,17.46123,17.46123,0,0,1,72.01416,15.57764Zm2.35645,0a16.92107,16.92107,0,0,0,.25488,2.89795,13.65166,13.65166,0,0,0,.70068,2.61132,8.27435,8.27435,0,0,0,3.0249,3.85352,9.01916,9.01916,0,0,0,5.28663,1.43262h.03173a12.23031,12.23031,0,0,0,2.96143-.31836,7.86383,7.86383,0,0,0,2.42041-1.05078,8.58864,8.58864,0,0,0,3.248-3.78955,13.96536,13.96536,0,0,0,1.05078-5.605,17.77375,17.77375,0,0,0-.2544-2.99317,13.21057,13.21057,0,0,0-.82812-2.61133,8.27316,8.27316,0,0,0-3.21631-3.75781,10.06758,10.06758,0,0,0-5.38184-1.3374,11.40833,11.40833,0,0,0-2.86621.3501A7.51142,7.51142,0,0,0,78.44678,6.311a8.2034,8.2034,0,0,0-3.05713,3.78955A14.22333,14.22333,0,0,0,74.37061,15.57764Z"/><path class="cls-1" d="M72.61914,55.31348,90.38867,38.563l1.688-1.52881H72.61914V34.582H95.16553v2.67529L77.8418,53.62549l-1.78321,1.59228H95.16553v2.45215H72.61914Z"/><path class="cls-1" d="M74.94385,96.38477H72.61914V73.26514h1.624a6.5964,6.5964,0,0,1,3.66211.95556,7.1726,7.1726,0,0,1,2.35694,2.51563,16.70364,16.70364,0,0,1,1.56006,3.66211c.41406,1.33789.76416,2.73877,1.11474,4.17187.28662,1.24219.605,2.45215.92334,3.5669a14.60143,14.60143,0,0,0,1.05078,2.898A5.52938,5.52938,0,0,0,86.4082,93.041a3.18879,3.18879,0,0,0,2.1333.70068,4.09142,4.09142,0,0,0,3.6626-2.06982,11.92134,11.92134,0,0,0,1.2417-6.05079,17.48708,17.48708,0,0,0-.19092-2.64306,15.13424,15.13424,0,0,0-.5415-2.293,6.33411,6.33411,0,0,0-6.5918-4.48975V73.64746a10.75588,10.75588,0,0,1,2.96143.38233,7.42049,7.42049,0,0,1,2.38818,1.08251A8.56179,8.56179,0,0,1,94.624,79.25244a18.48158,18.48158,0,0,1,1.019,6.40088q0,5.20605-1.91065,7.9292a6.02051,6.02051,0,0,1-5.15869,2.6748,5.14119,5.14119,0,0,1-2.96191-.79589,6.51661,6.51661,0,0,1-2.00635-2.229,16.26069,16.26069,0,0,1-1.40088-3.34375c-.38232-1.27392-.73242-2.64355-1.083-4.14013-.22265-.89161-.41357-1.71973-.63672-2.51563-.22265-.79639-.47754-1.56055-.70068-2.293a10.44134,10.44134,0,0,0-1.81494-3.47119,4.24584,4.24584,0,0,0-3.02539-1.46484Z"/><path class="cls-1" d="M72.01416,113.44824a18.36715,18.36715,0,0,1,.31836-3.5664,16.82455,16.82455,0,0,1,.95557-3.18457,10.77863,10.77863,0,0,1,3.853-4.77686A11.2346,11.2346,0,0,1,83.6377,100.169h.06347a13.84169,13.84169,0,0,1,3.5669.4458,9.54762,9.54762,0,0,1,2.96142,1.30566,11.4095,11.4095,0,0,1,4.04444,4.77686,15.89069,15.89069,0,0,1,1.36914,6.751,17.689,17.689,0,0,1-.76416,5.28662,12.54389,12.54389,0,0,1-2.293,4.26709,10.01646,10.01646,0,0,1-3.72559,2.834,12.53059,12.53059,0,0,1-5.15918,1.019H83.6377a12.01465,12.01465,0,0,1-5.09522-1.019,9.83682,9.83682,0,0,1-3.63037-2.89795,11.8567,11.8567,0,0,1-2.16553-4.23535A17.4613,17.4613,0,0,1,72.01416,113.44824Zm2.35645,0a16.921,16.921,0,0,0,.25488,2.898,13.652,13.652,0,0,0,.70068,2.61133,8.2744,8.2744,0,0,0,3.0249,3.85352,9.01923,9.01923,0,0,0,5.28663,1.43261h.03173a12.22981,12.22981,0,0,0,2.96143-.31836,7.86359,7.86359,0,0,0,2.42041-1.05078,8.58864,8.58864,0,0,0,3.248-3.78955,13.96529,13.96529,0,0,0,1.05078-5.605,17.77372,17.77372,0,0,0-.2544-2.99316,13.21057,13.21057,0,0,0-.82812-2.61133,8.27311,8.27311,0,0,0-3.21631-3.75781,10.06749,10.06749,0,0,0-5.38184-1.33741,11.40833,11.40833,0,0,0-2.86621.3501,7.51165,7.51165,0,0,0-2.35644,1.05127,8.20345,8.20345,0,0,0-3.05713,3.78955A14.22337,14.22337,0,0,0,74.37061,113.44824Z"/><path class="cls-1" d="M75.03955,147.45264H72.61914v-18.7251h2.42041v8.08887H90.35693a6.02641,6.02641,0,0,1-1.11474-2.16553,8.73076,8.73076,0,0,1-.41407-2.61133h2.00635a5.4646,5.4646,0,0,0,1.14649,3.53467,5.227,5.227,0,0,0,3.18457,1.688v2.10156h-20.126Z"/><path class="cls-1" d="M72.0459,161.33252A16.26748,16.26748,0,0,1,73.44727,154.04a7.01966,7.01966,0,0,1,4.36279-3.82129v2.834a4.95731,4.95731,0,0,0-2.67529,2.86622,14.90771,14.90771,0,0,0-.92334,5.47753q0,5.11084,2.38818,7.8335c1.59228,1.81543,3.981,2.707,7.1333,2.707.57324,0,1.11475-.03174,1.65625-.064a10.77234,10.77234,0,0,0,1.46484-.22266,6.98743,6.98743,0,0,1-1.7832-.82812,7.60663,7.60663,0,0,1-1.52881-1.36915,10.90067,10.90067,0,0,1-2.10156-3.94873,16.01349,16.01349,0,0,1-.76465-5.03173,25.66523,25.66523,0,0,1,.15918-2.80225,14.30612,14.30612,0,0,1,.478-2.48389,6.98474,6.98474,0,0,1,2.19726-3.66211,6.28686,6.28686,0,0,1,4.26709-1.3374,6.90018,6.90018,0,0,1,2.19727.3501,6.815,6.815,0,0,1,1.91064.9873,8.69946,8.69946,0,0,1,2.80274,3.94873,17.10342,17.10342,0,0,1,.95508,6.36915c-.03174,4.17138-1.019,7.32421-2.96143,9.42578-1.97461,2.07031-4.936,3.12109-8.853,3.12109-3.88525,0-6.81494-1.14648-8.78906-3.40771C73.0332,168.7207,72.0459,165.50439,72.0459,161.33252Zm10.76367-.22266a13.6235,13.6235,0,0,0,1.46484,6.5918,6.83935,6.83935,0,0,0,4.17188,3.50293,6.818,6.818,0,0,0,3.69385-3.21631,13.33044,13.33044,0,0,0,1.21-6.146c0-3.08936-.47754-5.3501-1.46485-6.81495a4.63576,4.63576,0,0,0-4.07617-2.19726,5.805,5.805,0,0,0-1.75146.25439,3.08513,3.08513,0,0,0-1.33741.76465,5.70645,5.70645,0,0,0-1.49658,2.92969A19.40417,19.40417,0,0,0,82.80957,161.10986Z"/><path class="cls-1" d="M93.63232,211.12451q.7002-3.279,1.27393-6.55859.22192-1.40112.46143-2.94483.23877-1.54467.41406-3.10449.17431-1.56006.28662-3.08838.1106-1.52783.11133-2.897a9.36461,9.36461,0,0,0-2.65869.5249,15.04992,15.04992,0,0,0-2.563,1.17823,22.1986,22.1986,0,0,0-2.3877,1.59179A27.84583,27.84583,0,0,0,86.437,197.625a37.19878,37.19878,0,0,0-4.39355,4.83984l-.22315-.15918q.98658-1.56078,1.92627-3.34326a32.63431,32.63431,0,0,0,1.63965-3.62939q-2.99268.34937-5.34863.70019-2.35694.3501-4.01172.605-1.94238.31788-3.40674.57325v-3.18409H85.95947q.54126-1.49706,1.00293-2.81738.46143-1.322.77979-2.34033.3501-1.17848.66894-2.165l.2544.06348q-.54126,2.19726-.95508,3.90039-.41382,1.70287-.748,3.00879-.33471,1.30517-.62109,2.26025-.28638.95582-.57276,1.65576,1.114-1.40112,2.37159-2.78564a22.90608,22.90608,0,0,1,2.62695-2.4834,13.82374,13.82374,0,0,1,2.80176-1.76709,6.85615,6.85615,0,0,1,2.9292-.66846v21.23584Z"/><path class="cls-1" d="M96.33887,242.93066l-8.53272-8.978-15.187,8.978v-.541q2.19654-1.43262,4.6167-3.0249,2.03687-1.3689,4.55273-3.05616,2.51514-1.68822,4.99854-3.40673l-14.168-15.40967v-3.18408l22.8916,13.46777q-.3501-3.02563-.68408-5.49219-.33471-2.46753-.58936-4.25049-.3186-2.06982-.605-3.72509h2.86573v28.62255ZM76.18506,218.73389l11.49365,13.563q1.91016-1.33741,3.582-2.54737,1.67139-1.21,2.88135-2.16455ZM96.148,242.19873q-.03224-3.56616-.14356-6.686-.11205-3.12086-.33447-6.145l-7.03613,4.07519Z"/><path class="cls-1" d="M87.20117,268.10938a9.87284,9.87284,0,0,1-2.89746,3.10791,6.34627,6.34627,0,0,1-3.59766,1.13183,6.22336,6.22336,0,0,1-3.43847-1.05127,9.91585,9.91585,0,0,1-2.8335-2.8501,15.00986,15.00986,0,0,1-1.91064-4.187,17.80859,17.80859,0,0,1-.7002-5.03125,14.3948,14.3948,0,0,1,.12744-1.59228q.12744-1.0503.47754-2.65869t.95508-3.80567q.60424-2.19653,1.56006-5.0625h2.86523q-.605,1.20923-1.4165,2.75391-.81225,1.54467-1.5918,3.28027a35.378,35.378,0,0,0-1.38525,3.59815,18.75418,18.75418,0,0,0-.812,3.72558,12.95774,12.95774,0,0,0,.0957,3.63037,8.73756,8.73756,0,0,0,1.353,3.35987,7.52276,7.52276,0,0,0,2.9292,2.61084,7.97411,7.97411,0,0,0,3.59765.89209,6.08828,6.08828,0,0,0,2.86573-.70069,8.53646,8.53646,0,0,0,2.45166-1.97412,9.37335,9.37335,0,0,1-1.64014-1.7666,10.99719,10.99719,0,0,1-1.27344-2.34033,16.09156,16.09156,0,0,1-1.13037-5.95362,15.5436,15.5436,0,0,1,.85986-5.26953,10.95526,10.95526,0,0,1,2.356-3.96386,6.66959,6.66959,0,0,1,1.97412-1.54395,5.3134,5.3134,0,0,1,2.51514-.62109,5.41228,5.41228,0,0,1,3.47021,1.16211,9.35331,9.35331,0,0,1,2.40381,2.88134,14.55758,14.55758,0,0,1,1.40088,3.70948,16.24125,16.24125,0,0,1,.46192,3.6455,12.30621,12.30621,0,0,1-.09571,1.46436,18.17854,18.17854,0,0,1-.46142,2.21289q-.36621,1.41651-1.0669,3.709-.7002,2.29248-1.94189,6.01758h-2.9292q.60425-1.33959,1.49658-2.93359.89063-1.59375,1.76709-3.33154.87525-1.738,1.57568-3.55518a16.5042,16.5042,0,0,0,.95508-3.60254,9.92633,9.92633,0,0,0-.09521-3.45947,7.24107,7.24107,0,0,0-1.56006-3.14063,6.93351,6.93351,0,0,0-2.26074-1.73779,7.02955,7.02955,0,0,0-3.12012-.65332,5.60512,5.60512,0,0,0-2.70606.66943,15.55976,15.55976,0,0,1,2.06934,4.415,18.86177,18.86177,0,0,1,.76416,5.46778,19.25585,19.25585,0,0,1-.605,4.97314A16.80174,16.80174,0,0,1,87.20117,268.10938Zm-4.77588-10.88331a10.73461,10.73461,0,0,0,.95508,4.55274,8.491,8.491,0,0,0,2.54736,3.2793,1.18561,1.18561,0,0,0,1.81446-.44581,16.78518,16.78518,0,0,0,.55761-11.4458,12.27507,12.27507,0,0,0-2.05371-3.90039,7.44191,7.44191,0,0,0-1.56,1.40088,9.21893,9.21893,0,0,0-1.21,1.84668,9.723,9.723,0,0,0-.78027,2.21289A11.28867,11.28867,0,0,0,82.42529,257.22607Z"/><path class="cls-1" d="M96.49805,300.04883H72.61914v-3.08838q-.3501-.2234.17529,0,.52515.22266,1.60743.65283,1.08252.42993,2.49951.90723a19.79491,19.79491,0,0,0,2.84961.73242,10.759,10.759,0,0,0,2.69043.15918,3.03213,3.03213,0,0,0,1.98974-.82813,3.395,3.395,0,0,0,1.019-2.085,9.023,9.023,0,0,0-.12745-2.78613,25.15809,25.15809,0,0,0-.87548-3.29541q-.58961-1.76659-1.25782-3.61328a11.15216,11.15216,0,0,1-.541-6.28809,7.19692,7.19692,0,0,1,2.86523-4.37793,37.7334,37.7334,0,0,0-6.543.57325,28.19293,28.19293,0,0,0-6.35156,1.91015V275.5332H96.49805v3.08838q.3501.19116-.207-.04785-.55738-.23877-1.65577-.65283-1.0979-.41382-2.54687-.85938a19.12049,19.12049,0,0,0-2.86572-.65283,10.00906,10.00906,0,0,0-2.62647-.06348,2.53151,2.53151,0,0,0-1.81494.939,4.38037,4.38037,0,0,0-.939,2.0376,8.52824,8.52824,0,0,0-.064,2.45166,16.31972,16.31972,0,0,0,.55713,2.73828q.41382,1.43262.95557,2.86523a17.42779,17.42779,0,0,1,1.38476,4.88721,10.21835,10.21835,0,0,1-.17529,3.55029,6.08689,6.08689,0,0,1-1.11426,2.356,5.98385,5.98385,0,0,1-1.40088,1.30518,32.65941,32.65941,0,0,0,6.35205-.62061,31.77561,31.77561,0,0,0,6.16065-1.89453Z"/><path class="cls-1" d="M96.49805,327.11133H93.63232a5.25081,5.25081,0,0,0,.43018-1.00293,27.59167,27.59167,0,0,0,.90723-2.91309q.47754-1.81494.84375-4.123a23.39053,23.39053,0,0,0,.2705-4.63282q-4.39378.28638-8.19824.66895-3.80493.38159-6.79736.748-2.99341.36548-5.03076.68457-2.0376.31786-2.9292.47753a32.63214,32.63214,0,0,0,.52539,3.93213q.36548,1.83033.78027,3.19971a30.10122,30.10122,0,0,0,1.0503,2.96094H72.61914V303.23242h2.86524a27.76428,27.76428,0,0,0-1.11426,3.12012,34.33366,34.33366,0,0,0-.82764,3.43848,28.74039,28.74039,0,0,0-.47754,4.2666H96.05225a27.84736,27.84736,0,0,0-.47754-4.20264q-.38233-1.94238-.82764-3.43848a29.10237,29.10237,0,0,0-1.11475-3.18408h2.86573Z"/><path class="cls-1" d="M97.294,344.62207a15.64193,15.64193,0,0,1-1.03467,5.77881,14.26546,14.26546,0,0,1-2.77,4.50488,12.511,12.511,0,0,1-4.04346,2.9292,11.89065,11.89065,0,0,1-9.77441,0,12.67573,12.67573,0,0,1-4.05957-2.9292,13.88779,13.88779,0,0,1-2.77-4.50488,16.90235,16.90235,0,0,1,0-11.55762,14.075,14.075,0,0,1,2.77-4.521,12.56184,12.56184,0,0,1,4.05957-2.94483,11.89065,11.89065,0,0,1,9.77441,0,12.40009,12.40009,0,0,1,4.04346,2.94483,14.46167,14.46167,0,0,1,2.77,4.521A15.64562,15.64562,0,0,1,97.294,344.62207Zm-25.05665,0a15.31515,15.31515,0,0,0,.66846,4.63232,9.09076,9.09076,0,0,0,2.14893,3.64551,9.8843,9.8843,0,0,0,3.8208,2.37207,16.85035,16.85035,0,0,0,5.6831.84375,15.61,15.61,0,0,0,5.36475-.84375,10.52081,10.52081,0,0,0,3.85254-2.37207,9.84935,9.84935,0,0,0,2.32422-3.64551,14.197,14.197,0,0,0,0-9.28076,9.73018,9.73018,0,0,0-2.32422-3.61377,10.62929,10.62929,0,0,0-3.85254-2.356,17.477,17.477,0,0,0-10.72949,0,10.621,10.621,0,0,0-3.85254,2.356,9.718,9.718,0,0,0-2.32422,3.61377A13.26691,13.26691,0,0,0,72.2373,344.62207Z"/><path class="cls-1" d="M96.49805,384.35645H72.61914v-.31836q2.96118-2.866,6.33594-6.24073,1.43262-1.43261,3.12012-3.15185Q83.762,372.92651,85.625,371q1.86255-1.927,3.83691-4.04346,1.97314-2.11743,4.04346-4.34619-4.74462.3501-8.54883.79639-3.80493.44531-6.5747.82764-3.21607.44531-5.7627.92333v-3.08837H96.49805v.31836L73.19238,383.97412q5.2207-.35084,9.4878-.7959,4.26563-.446,7.35449-.8916,3.62988-.50976,6.46338-1.01855Z"/><path class="cls-1" d="M74.02,412.46924a8.941,8.941,0,0,0-.03174,7.92773,14.69945,14.69945,0,0,0,2.24463,3.375q1.41651,1.62378,3.07227,3.311l-1.36914,3.0249a23.60382,23.60382,0,0,1-2.4834-3.24756,19.7881,19.7881,0,0,1-1.63965-3.18408,16.863,16.863,0,0,1-.90723-3.05615,15.25891,15.25891,0,0,1-.28662-2.86573,16.307,16.307,0,0,1,.98682-5.7788,14.08331,14.08331,0,0,1,2.69043-4.521,12.2972,12.2972,0,0,1,3.93213-2.94482,10.91195,10.91195,0,0,1,4.71191-1.05079,10.58129,10.58129,0,0,1,4.9668,1.17823,12.47689,12.47689,0,0,1,3.90039,3.16748,15.1532,15.1532,0,0,1,2.563,4.56885,15.85153,15.85153,0,0,1,.92334,5.38085,15.259,15.259,0,0,1-.28663,2.86573,16.86293,16.86293,0,0,1-.90722,3.05615,19.82793,19.82793,0,0,1-1.63965,3.18408,23.68254,23.68254,0,0,1-2.4834,3.24756l-1.36914-3.0249q1.65528-1.6875,3.05664-3.26319a13.91714,13.91714,0,0,0,2.2124-3.29541,9.41555,9.41555,0,0,0,.8916-3.67724,10.84747,10.84747,0,0,0-.87548-4.37793,9.24525,9.24525,0,0,0-3.916-4.58447,13.26579,13.26579,0,0,0-7.00439-1.6875A12.904,12.904,0,0,0,78,407.9165,10.05713,10.05713,0,0,0,74.02,412.46924Z"/><path class="cls-1" d="M97.294,447.58691a15.64185,15.64185,0,0,1-1.03467,5.77881,14.26563,14.26563,0,0,1-2.77,4.50489,12.511,12.511,0,0,1-4.04346,2.92919,11.89055,11.89055,0,0,1-9.77441,0,12.6757,12.6757,0,0,1-4.05957-2.92919,13.88794,13.88794,0,0,1-2.77-4.50489,16.90232,16.90232,0,0,1,0-11.55761,14.07493,14.07493,0,0,1,2.77-4.521,12.56181,12.56181,0,0,1,4.05957-2.94482,11.89055,11.89055,0,0,1,9.77441,0,12.40006,12.40006,0,0,1,4.04346,2.94482,14.4616,14.4616,0,0,1,2.77,4.521A15.64553,15.64553,0,0,1,97.294,447.58691Zm-25.05665,0a15.31522,15.31522,0,0,0,.66846,4.63233,9.0909,9.0909,0,0,0,2.14893,3.64551,9.88442,9.88442,0,0,0,3.8208,2.37207,16.85035,16.85035,0,0,0,5.6831.84375,15.61,15.61,0,0,0,5.36475-.84375,10.52094,10.52094,0,0,0,3.85254-2.37207,9.84952,9.84952,0,0,0,2.32422-3.64551,14.197,14.197,0,0,0,0-9.28076,9.73018,9.73018,0,0,0-2.32422-3.61377,10.62931,10.62931,0,0,0-3.85254-2.356,17.477,17.477,0,0,0-10.72949,0,10.621,10.621,0,0,0-3.85254,2.356,9.718,9.718,0,0,0-2.32422,3.61377A13.26686,13.26686,0,0,0,72.2373,447.58691Z"/><path class="cls-1" d="M72.61914,488.91309V465.03418H96.49805v3.08838q-2.89746-.50977-6.52686-1.019-3.12086-.44606-7.41846-.90723-4.29784-.46217-9.55175-.812.3501,5.25366.76416,9.56738.41382,4.314.79638,7.43457.44532,3.62914.92286,6.52686Z"/><path class="cls-1" d="M72.61914,515.02051V491.1416H96.49805V494.23q-2.89746-.50976-6.52686-1.019-3.12086-.44606-7.41846-.90723-4.29784-.46215-9.55175-.812.3501,5.25366.76416,9.56738.41382,4.314.79638,7.43457.44532,3.62916.92286,6.52686Z"/><path class="cls-1" d="M96.33887,545.87109l-8.53272-8.978-15.187,8.978v-.541q2.19654-1.43262,4.6167-3.0249,2.03687-1.3689,4.55273-3.05616,2.51514-1.68822,4.99854-3.40673l-14.168-15.40967v-3.18408l22.8916,13.46777q-.3501-3.02564-.68408-5.49219-.33471-2.46753-.58936-4.25049-.3186-2.06982-.605-3.72509h2.86573v28.62255ZM76.18506,521.67432l11.49365,13.563q1.91016-1.3374,3.582-2.54736,1.67139-1.21,2.88135-2.16455ZM96.148,545.13916q-.03224-3.56616-.14356-6.686-.11205-3.12084-.33447-6.145l-7.03613,4.07519Z"/><path class="cls-1" d="M87.1377,570.10059a8.55193,8.55193,0,0,1-1.13038,1.43261,7.69684,7.69684,0,0,1-1.44873,1.16211,8.09975,8.09975,0,0,1-1.70361.7959,5.84831,5.84831,0,0,1-1.8623.30225,7.05655,7.05655,0,0,1-3.77295-.97071,8.24574,8.24574,0,0,1-2.61084-2.563,11.35777,11.35777,0,0,1-1.51221-3.62989,18.21961,18.21961,0,0,1-.47754-4.1709v-13.4038H96.49805v12.958a11.09858,11.09858,0,0,1-.63672,3.42286A9.03062,9.03062,0,0,1,94.333,568.1582a7.02979,7.02979,0,0,1-2.19678,1.78321,5.77974,5.77974,0,0,1-2.67432.63671A5.691,5.691,0,0,1,87.1377,570.10059Zm-14.041-9.16944a15.34471,15.34471,0,0,0,.68457,4.26612,11.00466,11.00466,0,0,0,1.67139,3.32714,7.82948,7.82948,0,0,0,2.46777,2.165,6.26419,6.26419,0,0,0,3.07227.77979,5.65755,5.65755,0,0,0,3.24755-1.01856,1.47271,1.47271,0,0,0,.66846-1.06689,1.52083,1.52083,0,0,0-.3501-1.22559,9.0621,9.0621,0,0,1-1.56-2.7539,9.84278,9.84278,0,0,1-.57325-3.39112,9.66208,9.66208,0,0,1,1.0669-4.55273,7.59863,7.59863,0,0,1,2.81738-3.08838,6.91418,6.91418,0,0,0-1.22559-1.33691,9.26337,9.26337,0,0,0-1.52832-1.05078,8.47006,8.47006,0,0,0-1.67138-.70069,6.67349,6.67349,0,0,0-1.624-.28613q-2.89746.38158-4.77587.68408-1.87868.30249-2.51514.398ZM96.21143,549.437q-4.33008.25488-7.99122.63721-3.6621.38159-6.59082.73193a8.7778,8.7778,0,0,1,3.2793,1.60791,10.76721,10.76721,0,0,1,2.41992,2.67432,12.27442,12.27442,0,0,1,1.4961,3.42285,14.78256,14.78256,0,0,1,.50976,3.88428,14.27458,14.27458,0,0,1-1.08252,5.63525,4.99851,4.99851,0,0,0,1.21.15918,5.81577,5.81577,0,0,0,2.51514-.55713,6.76923,6.76923,0,0,0,2.06934-1.5122,7.58145,7.58145,0,0,0,1.43261-2.22852,7.20215,7.20215,0,0,0,.57325-2.6748Zm-9.32862,18.148a12.27626,12.27626,0,0,0,1.146-2.86523,13.40073,13.40073,0,0,0-.07959-6.90918,11.55322,11.55322,0,0,0-1.353-3.02442,6.70631,6.70631,0,0,0-2.62646,2.51514,7.04348,7.04348,0,0,0-1.00293,3.7251,7.375,7.375,0,0,0,1.08252,3.93213A6.79538,6.79538,0,0,0,86.88281,567.585Z"/><path class="cls-1" d="M97.294,591.273a15.64193,15.64193,0,0,1-1.03467,5.77881,14.26558,14.26558,0,0,1-2.77,4.50488,12.51115,12.51115,0,0,1-4.04346,2.9292,11.89065,11.89065,0,0,1-9.77441,0,12.67588,12.67588,0,0,1-4.05957-2.9292,13.8879,13.8879,0,0,1-2.77-4.50488,16.90235,16.90235,0,0,1,0-11.55762,14.075,14.075,0,0,1,2.77-4.521,12.562,12.562,0,0,1,4.05957-2.94482,11.89065,11.89065,0,0,1,9.77441,0,12.4002,12.4002,0,0,1,4.04346,2.94482,14.46172,14.46172,0,0,1,2.77,4.521A15.64562,15.64562,0,0,1,97.294,591.273Zm-25.05665,0a15.31515,15.31515,0,0,0,.66846,4.63232,9.09083,9.09083,0,0,0,2.14893,3.64551,9.88442,9.88442,0,0,0,3.8208,2.37207,16.85035,16.85035,0,0,0,5.6831.84375,15.61,15.61,0,0,0,5.36475-.84375,10.52094,10.52094,0,0,0,3.85254-2.37207,9.84944,9.84944,0,0,0,2.32422-3.64551,14.197,14.197,0,0,0,0-9.28076,9.73018,9.73018,0,0,0-2.32422-3.61377,10.62929,10.62929,0,0,0-3.85254-2.356,17.477,17.477,0,0,0-10.72949,0,10.621,10.621,0,0,0-3.85254,2.356,9.718,9.718,0,0,0-2.32422,3.61377A13.26691,13.26691,0,0,0,72.2373,591.273Z"/><path class="cls-1" d="M72.61914,629.57373l5.60352-4.87109a4.62118,4.62118,0,0,0,1.21-1.67139,4.41663,4.41663,0,0,0,.35009-2.022,15.11983,15.11983,0,0,1,.1753-3.00879,14.53235,14.53235,0,0,1,.77978-2.9292,14.71347,14.71347,0,0,1,1.36914-2.70606,11.8419,11.8419,0,0,1,1.97412-2.34033q-2.70629.3501-4.80761.65283-2.10132.30249-3.59766.55713-1.752.2549-3.05664.47754v-2.99267H96.49805v11.46191a15.28991,15.28991,0,0,1-.66846,4.64844,12.13379,12.13379,0,0,1-1.79932,3.61377,8.485,8.485,0,0,1-2.62646,2.356,6.38878,6.38878,0,0,1-3.1836.84375,6.50128,6.50128,0,0,1-3.62988-1.08251,9.28143,9.28143,0,0,1-2.80176-2.9292,13.96494,13.96494,0,0,1-1.3374-2.8335q-2.06982,2.13208-3.53369,3.75684-1.46484,1.62378-2.41992,2.73779-1.11475,1.27368-1.87842,2.229Zm16.71533-19.93066a10.49906,10.49906,0,0,0-4.36181,1.65576,10.80846,10.80846,0,0,0-3.041,3.05615,10.586,10.586,0,0,0-1.38476,8.31006L96.148,609.03809q-1.81494.06372-3.40674.19091Q91.14819,609.35572,89.33447,609.64307Zm6.49512,10.53857q.09522-1.56079.15918-3.23144.063-1.67212.11133-3.15235.04761-1.48021.06347-2.62646.01612-1.14624.01612-1.71924-4.87134,4.52051-8.59668,8.18213-3.7251,3.66138-6.52686,6.55908l.25489.57275q.12671.28712.28662.57325a7.87066,7.87066,0,0,0,2.83349,2.91308,7.37851,7.37851,0,0,0,3.78906,1.00293,7.03065,7.03065,0,0,0,2.86524-.58887,6.64941,6.64941,0,0,0,2.34033-1.73535,9.14786,9.14786,0,0,0,1.63965-2.84961A13.346,13.346,0,0,0,95.82959,620.18164Z"/><path class="cls-1" d="M96.33887,665.32861l-8.53272-8.978-15.187,8.978v-.541q2.19654-1.43262,4.6167-3.0249,2.03687-1.3689,4.55273-3.05616,2.51514-1.68823,4.99854-3.40674l-14.168-15.40966v-3.18409l22.8916,13.46778q-.3501-3.02563-.68408-5.49219-.33471-2.46753-.58936-4.25049-.3186-2.06982-.605-3.7251h2.86573v28.62256ZM76.18506,641.13184l11.49365,13.563q1.91016-1.3374,3.582-2.54736,1.67139-1.21,2.88135-2.16455ZM96.148,664.59668q-.03224-3.56616-.14356-6.686-.11205-3.12084-.33447-6.145l-7.03613,4.0752Z"/><path class="cls-1" d="M93.63232,697.294a12.99445,12.99445,0,0,0,1.36914-2.70606,16.016,16.016,0,0,0,.76416-3.12012,3.64748,3.64748,0,0,0-.30224-2.10156,4.38728,4.38728,0,0,0-1.417-1.6875L72.61914,671.98242v-3.47021q1.81494,1.84643,4.9668,4.68017,2.70557,2.4192,7.16357,6.2085,4.45752,3.78882,11.17529,9.13769a24.15665,24.15665,0,0,0-.11132-2.69043q-.14356-1.67138-.39795-3.56591-.25562-1.89478-.57324-3.82032-.31862-1.927-.58887-3.48632-.271-1.56079-.65283-3.50245h2.89746V697.294Z"/><path class="cls-1" d="M96.49805,724.35693H93.63232a5.24988,5.24988,0,0,0,.43018-1.00293,27.59214,27.59214,0,0,0,.90723-2.91308q.47754-1.81494.84375-4.12305a23.39038,23.39038,0,0,0,.2705-4.63281q-4.39378.28638-8.19824.66894-3.80493.3816-6.79736.748-2.99341.36548-5.03076.68457-2.0376.31788-2.9292.47754a32.63214,32.63214,0,0,0,.52539,3.93213q.36548,1.83032.78027,3.19971a30.101,30.101,0,0,0,1.0503,2.96093H72.61914V700.478h2.86524a27.76408,27.76408,0,0,0-1.11426,3.12011,34.33434,34.33434,0,0,0-.82764,3.43848,28.74055,28.74055,0,0,0-.47754,4.2666H96.05225a27.84738,27.84738,0,0,0-.47754-4.20263q-.38233-1.9424-.82764-3.43848a29.10163,29.10163,0,0,0-1.11475-3.18408h2.86573Z"/><path class="cls-1" d="M97.294,741.86768a15.64184,15.64184,0,0,1-1.03467,5.7788,14.26551,14.26551,0,0,1-2.77,4.50489,12.51115,12.51115,0,0,1-4.04346,2.9292,11.89065,11.89065,0,0,1-9.77441,0,12.67588,12.67588,0,0,1-4.05957-2.9292,13.88784,13.88784,0,0,1-2.77-4.50489,16.90232,16.90232,0,0,1,0-11.55761,14.075,14.075,0,0,1,2.77-4.521,12.56181,12.56181,0,0,1,4.05957-2.94482,11.89065,11.89065,0,0,1,9.77441,0,12.40006,12.40006,0,0,1,4.04346,2.94482,14.46172,14.46172,0,0,1,2.77,4.521A15.64554,15.64554,0,0,1,97.294,741.86768Zm-25.05665,0A15.3152,15.3152,0,0,0,72.90576,746.5a9.0909,9.0909,0,0,0,2.14893,3.64551,9.88442,9.88442,0,0,0,3.8208,2.37207,16.85035,16.85035,0,0,0,5.6831.84375,15.61,15.61,0,0,0,5.36475-.84375,10.52094,10.52094,0,0,0,3.85254-2.37207A9.84952,9.84952,0,0,0,96.1001,746.5a14.197,14.197,0,0,0,0-9.28076,9.73018,9.73018,0,0,0-2.32422-3.61377,10.62931,10.62931,0,0,0-3.85254-2.356,17.477,17.477,0,0,0-10.72949,0,10.621,10.621,0,0,0-3.85254,2.356,9.718,9.718,0,0,0-2.32422,3.61377A13.26687,13.26687,0,0,0,72.2373,741.86768Z"/><path class="cls-1" d="M96.49805,781.60205H72.61914v-.31836q2.96118-2.866,6.33594-6.24072,1.43262-1.43262,3.12012-3.15186,1.68677-1.719,3.5498-3.6455,1.86255-1.927,3.83691-4.04346,1.97314-2.11743,4.04346-4.34619-4.74462.3501-8.54883.79638-3.80493.44532-6.5747.82764-3.21607.44532-5.7627.92334v-3.08838H96.49805v.31836L73.19238,781.21973q5.2207-.35083,9.4878-.7959,4.26563-.44606,7.35449-.8916,3.62988-.50978,6.46338-1.01856Z"/><path class="cls-1" d="M85.48193,805.67139a12.48706,12.48706,0,0,0-2.61084-1.81494,7.27405,7.27405,0,0,0-2.51513-.7002,14.69656,14.69656,0,0,0-3.02491.06348q-1.6875.19116-4.17089.50927.35008,4.77613.76416,8.7876.41382,4.01148.76416,7.0044.38232,3.47021.7959,6.3042H72.61914V800.70459h4.42578a12.79042,12.79042,0,0,1,5.63526,1.13037,10.65754,10.65754,0,0,1,3.78857,2.99268,12.06528,12.06528,0,0,1,2.1333,4.25048,18.09476,18.09476,0,0,1,.66846,4.90333,13.90989,13.90989,0,0,1-.77979,4.90283,17.496,17.496,0,0,1-2.05371,3.88427,5.6151,5.6151,0,0,0,2.70606.66846,8.4686,8.4686,0,0,0,3.32714-.65234,6.689,6.689,0,0,0,2.46778-1.70362,6.48731,6.48731,0,0,0,1.49609-3.168,10.52416,10.52416,0,0,0-.04736-3.59766,17.60183,17.60183,0,0,0-1.14649-3.773q-.81151-1.91016-1.78271-3.709-.97193-1.79883-1.958-3.375-.9873-1.57619-1.6875-2.75391h3.37451q1.2422,3.62988,2.03809,6.145.79541,2.51441,1.25732,4.21826.46143,1.70288.63672,2.72217a10.32961,10.32961,0,0,1,.1753,1.6875A13.96826,13.96826,0,0,1,96.832,818.916a11.25181,11.25181,0,0,1-1.44824,3.3457,8.60208,8.60208,0,0,1-2.53125,2.54687,6.59507,6.59507,0,0,1-3.70947,1.01661,5.55549,5.55549,0,0,1-2.51514-.58887,6.27219,6.27219,0,0,1-1.97363-1.5127,10.88206,10.88206,0,0,1-3.21582-8.21435,15.30866,15.30866,0,0,1,.30224-3.07227,14.72944,14.72944,0,0,1,.82813-2.73828,11.35059,11.35059,0,0,1,1.27344-2.292A8.54756,8.54756,0,0,1,85.48193,805.67139Zm1.84668,2.61084a1.18617,1.18617,0,0,0-1.81494-.4458,8.25879,8.25879,0,0,0-2.54687,3.21582,10.29393,10.29393,0,0,0-.95508,4.42529,7.63618,7.63618,0,0,0,1.05029,4.187,9.155,9.155,0,0,0,2.77,2.75391,18.32737,18.32737,0,0,0,1.16211-1.624,10.23533,10.23533,0,0,0,.8916-1.7666,10.70781,10.70781,0,0,0,.55713-2.022,13.57345,13.57345,0,0,0,.19092-2.356,16.71378,16.71378,0,0,0-.334-3.375A13.56409,13.56409,0,0,0,87.32861,808.28223Z"/><path class="cls-1" d="M97.294,841.83936a13.956,13.956,0,0,1-1.03467,5.55566,11.39151,11.39151,0,0,1-6.81348,6.44727,14.83514,14.83514,0,0,1-9.77441,0,11.84793,11.84793,0,0,1-4.05957-2.43555,11.39294,11.39294,0,0,1-2.77-4.01172,15.66078,15.66078,0,0,1,0-11.11133,11.54846,11.54846,0,0,1,2.77-4.02783,11.71352,11.71352,0,0,1,4.05957-2.45166,14.84327,14.84327,0,0,1,9.77441,0,11.5606,11.5606,0,0,1,4.04346,2.45166,11.84145,11.84145,0,0,1,2.77,4.02783A13.951,13.951,0,0,1,97.294,841.83936Zm-24.96143,0a11.62913,11.62913,0,0,0,.65283,3.93212,8.01139,8.01139,0,0,0,2.11719,3.19971,10.23273,10.23273,0,0,0,3.78857,2.14893,17.9533,17.9533,0,0,0,5.66748.78027,17.62427,17.62427,0,0,0,5.34864-.73242,10.64549,10.64549,0,0,0,3.8208-2.06934,8.50472,8.50472,0,0,0,2.29248-3.18408,11.2484,11.2484,0,0,0,0-8.15039,8.35845,8.35845,0,0,0-2.29248-3.168,10.75971,10.75971,0,0,0-3.8208-2.05371,17.59375,17.59375,0,0,0-5.34864-.73242,16.60228,16.60228,0,0,0-5.34912.78027,11.03586,11.03586,0,0,0-3.82031,2.1333,8.66259,8.66259,0,0,0-2.29248,3.1836A10.10659,10.10659,0,0,0,72.33252,841.83936Z"/><path class="cls-1" d="M96.49805,869.4751H72.61914v-3.08838q2.89673.509,6.52686,1.019,3.12011.44532,7.41845.90723,4.29786.46143,9.55127.812-.03148-.12818-.30224-.85986a20.7499,20.7499,0,0,0-.98682-2.11719q-.717-1.385-1.97412-3.45459-1.25831-2.06982-3.23145-4.83936h3.37452l3.50244,11.30274Z"/><path class="cls-1" d="M80.19678,887.94092a19.98125,19.98125,0,0,1,.541-5.03028,13.68887,13.68887,0,0,1,1.65576-4.04345,8.68471,8.68471,0,0,1,2.59473-2.70655,6.01312,6.01312,0,0,1,3.35889-.98681,7.0038,7.0038,0,0,1,3.4707.90722,8.82654,8.82654,0,0,1,2.84961,2.61084,13.38651,13.38651,0,0,1,1.92578,4.10743,19.403,19.403,0,0,1,.70069,5.42822,17.31005,17.31005,0,0,1-.95508,5.8584,11.4272,11.4272,0,0,1-2.75391,4.42529,9.25781,9.25781,0,0,1-4.40967,2.37207,12.023,12.023,0,0,1-5.92187-.27051,16.91836,16.91836,0,0,1-5.30127-2.41992,16.18869,16.18869,0,0,1-3.83643-3.64551,12.01506,12.01506,0,0,1-2.05371-4.25048,7.75492,7.75492,0,0,1,.07959-4.26612q.2234-.79614.62061-2.10156.39769-1.30592.876-2.81738.47754-1.51245.97071-3.07276.49365-1.56006.93945-2.86523h3.375q-1.11548,1.91016-2.165,3.88428-.92432,1.6875-1.89453,3.66162-.97193,1.97314-1.63965,3.75683a8.22378,8.22378,0,0,0-.605,3.86817,6.30434,6.30434,0,0,0,1.62354,3.48632,10.29262,10.29262,0,0,0,2.61084,2.18116,19.689,19.689,0,0,0,3.1997,1.52832,22.5867,22.5867,0,0,0,3.29541.95508,23.13514,23.13514,0,0,0,2.89746.42968,10.16074,10.16074,0,0,1-4.33007-4.123A13.76164,13.76164,0,0,1,80.19678,887.94092Zm16.61963.35058a13.92132,13.92132,0,0,0-.605-4.187A10.96583,10.96583,0,0,0,94.54,880.76123a8.16026,8.16026,0,0,0-2.49951-2.22852,6.16458,6.16458,0,0,0-3.08838-.812,7.33461,7.33461,0,0,0-3.43848.76416,6.95627,6.95627,0,0,0-2.45166,2.1333,9.7,9.7,0,0,0-1.48047,3.26368,16.44954,16.44954,0,0,0-.49316,4.15478,14.78226,14.78226,0,0,0,.58887,4.21875,11.44436,11.44436,0,0,0,1.63964,3.4541,7.69742,7.69742,0,0,0,2.49952,2.27637,5.63236,5.63236,0,0,0,3.13574.7168,6.47118,6.47118,0,0,0,3.08838-.98731A9.10588,9.10588,0,0,0,94.54,895.39111a11.42266,11.42266,0,0,0,1.67139-3.26318A12.163,12.163,0,0,0,96.81641,888.2915Z"/><path class="cls-1" d="M84.05176,943.24854H81.79053V926.30713H72.61914v-2.48389H95.16553v20.50781H92.9043V926.30713H84.05176Z"/><path class="cls-1" d="M72.61914,971.55371V968.7832l6.43262-3.40771V950.88623l-6.43262-3.34375V944.772l22.54639,11.9419v2.61133Zm8.53467-19.585V964.229l11.65527-6.17773Z"/><path class="cls-1" d="M71.98242,987.11963a31.08222,31.08222,0,0,1,.22266-4.0127,16.66815,16.66815,0,0,1,.70068-3.21631,8.31334,8.31334,0,0,1,2.834-4.20361,10.14243,10.14243,0,0,1,4.84082-1.81494v2.73877a6.131,6.131,0,0,0-4.9043,2.99316q-1.43336,2.532-1.43311,7.54737c0,3.08886.38233,5.35009,1.17823,6.71924a3.63837,3.63837,0,0,0,3.312,2.03808,4.20068,4.20068,0,0,0,1.49658-.25488,2.77149,2.77149,0,0,0,1.019-.7959,7.40467,7.40467,0,0,0,1.14649-3.312c.22314-1.49658.38232-3.439.5415-5.82764.0957-1.17822.19092-2.26074.3501-3.24805a25.45539,25.45539,0,0,1,.478-2.67529,7.1163,7.1163,0,0,1,1.81494-3.5664,4.60484,4.60484,0,0,1,3.37549-1.21,5.56332,5.56332,0,0,1,4.84033,2.70655q1.81567,2.6748,1.81543,8.1206,0,5.58912-1.91065,8.69385a7.58123,7.58123,0,0,1-5.57275,3.63037v-2.64355a5.11533,5.11533,0,0,0,4.04395-2.89746,15.26678,15.26678,0,0,0,1.27392-6.84668,13.22687,13.22687,0,0,0-1.11475-6.21,3.63065,3.63065,0,0,0-3.31152-2.00635,2.9867,2.9867,0,0,0-1.24219.22314,3.2431,3.2431,0,0,0-.95507.66846,6.35821,6.35821,0,0,0-1.14649,2.89795,48.78671,48.78671,0,0,0-.605,5.3501c-.0957,1.30566-.19141,2.51562-.31885,3.59863-.12744,1.08252-.28662,2.06982-.47754,2.92969a8.03213,8.03213,0,0,1-1.81494,3.917,4.82376,4.82376,0,0,1-3.59863,1.27344,5.77,5.77,0,0,1-5.06348-2.73828C72.5874,993.83887,71.98242,990.97266,71.98242,987.11963Z"/></svg>