<svg id="Layer_1" data-name="Layer 1" xmlns="http://www.w3.org/2000/svg" viewBox="0 0 682 589"><defs><style>.cls-1{fill:#fff;}</style></defs><title>intro02</title><path class="cls-1" d="M607.67285,38.104v4.08887H574.74316V3.59277h4.36133V38.104Z"/><path class="cls-1" d="M567.499,42.19287h-4.74316l-5.834-11.01318H532.11523l-5.72461,11.01318h-4.74316l20.44531-38.6001h4.47071ZM533.96875,27.58154H554.959L544.38281,7.62744Z"/><path class="cls-1" d="M511.5127,42.19287,482.835,11.771l-2.61621-2.88965V42.19287h-4.19824V3.59277h4.5791l28.02344,29.65869,2.72558,3.05323V3.59277h4.19825v38.6001Z"/><path class="cls-1" d="M463.97461,3.59277v38.6001h-4.14356V3.59277Z"/><path class="cls-1" d="M448.82129,22.62012v3.87109H419.81641V42.19287h-4.252V3.59277H450.6748v3.8711H419.81641V22.62012Z"/><path class="cls-1" d="M369.39648,43.2832a53.2269,53.2269,0,0,1-6.87011-.38134,28.542,28.542,0,0,1-5.50586-1.19971,14.23123,14.23123,0,0,1-7.19727-4.85205,17.3605,17.3605,0,0,1-3.10742-8.28711h4.68848c.5459,3.98,2.23535,6.81494,5.125,8.396q4.33448,2.45363,12.9209,2.45362c5.28906,0,9.16015-.6543,11.5039-2.01758a6.228,6.228,0,0,0,3.48926-5.66992,7.1958,7.1958,0,0,0-.43555-2.5625,4.75054,4.75054,0,0,0-1.36328-1.74463,12.67982,12.67982,0,0,0-5.66992-1.9624c-2.5625-.38184-5.88867-.6543-9.97754-.92725-2.0166-.16357-3.87109-.32715-5.56055-.59961a43.60682,43.60682,0,0,1-4.58007-.81787A12.19432,12.19432,0,0,1,350.75,20.00342a7.888,7.888,0,0,1-2.07129-5.7793A9.52473,9.52473,0,0,1,353.3125,5.9375q4.58057-3.10767,13.90234-3.10791,9.56837,0,14.88477,3.27148a12.97756,12.97756,0,0,1,6.21484,9.54053h-4.52539a8.75731,8.75731,0,0,0-4.96094-6.92383c-2.88964-1.47216-6.81542-2.18066-11.72167-2.18066-4.85254,0-8.39649.6543-10.63184,1.9082A6.218,6.218,0,0,0,353.04,14.11523a5.11449,5.11449,0,0,0,.38184,2.12647,5.55778,5.55778,0,0,0,1.14453,1.63525,10.89544,10.89544,0,0,0,4.96191,1.96289,83.5874,83.5874,0,0,0,9.15918,1.03565c2.23535.16357,4.30664.32715,6.16016.54541,1.85449.21826,3.54394.49072,5.0166.81787a13.74114,13.74114,0,0,1,6.70508,3.10742,8.25677,8.25677,0,0,1,2.18164,6.16065,9.87769,9.87769,0,0,1-4.68946,8.66894C380.89941,42.24756,375.99316,43.2832,369.39648,43.2832Z"/><path class="cls-1" d="M335.59863,42.19287,306.92139,11.771,304.3042,8.88135V42.19287h-4.19775V3.59277H304.686L332.709,33.25146l2.72559,3.05323V3.59277h4.19824v38.6001Z"/><path class="cls-1" d="M293.95557,42.19287H289.2124l-5.83349-11.01318H258.57227l-5.72413,11.01318h-4.74365L268.5498,3.59277H273.02Zm-33.5293-14.61133H281.416L270.83936,7.62744Z"/><path class="cls-1" d="M217.9082,27.09082h-.70849L198.772,9.31738V42.19287h-4.19775V3.59277h4.25244l18.80908,18.26416,19.082-18.26416h4.08887v38.6001H236.6084V9.15381Z"/><path class="cls-1" d="M187.49316,42.19287h-5.34277l-17.501-22.08057L150.6377,30.74365V42.19287h-4.30665V3.59277h4.30665V26.38232L180.13281,3.59277h6.10645l-18.31885,14.23Z"/><path class="cls-1" d="M132.81494,27.96338h4.63428a18.02579,18.02579,0,0,1-1.36279,4.19775,16.40614,16.40614,0,0,1-2.34473,3.70752,18.76764,18.76764,0,0,1-7.46924,5.39746,29.33249,29.33249,0,0,1-11.33984,1.96241q-10.79517,0-16.84668-5.07032C93.99707,34.77832,91.98,29.87158,91.98,23.438V23.3291a22.30139,22.30139,0,0,1,.76318-5.88818,16.61058,16.61058,0,0,1,2.23536-5.01563,19.64989,19.64989,0,0,1,8.28662-7.14209,27.93079,27.93079,0,0,1,12.2124-2.50781,32.86831,32.86831,0,0,1,5.23389.38135,26.92048,26.92048,0,0,1,4.79785,1.2539A19.40109,19.40109,0,0,1,133.0874,9.2085a16.54157,16.54157,0,0,1,4.08936,8.01416h-4.57959a12.50522,12.50522,0,0,0-5.561-7.7959c-2.88965-1.79932-6.76074-2.72608-11.55859-2.72608a28.38288,28.38288,0,0,0-5.39746.49073,21.42138,21.42138,0,0,0-4.68848,1.47168,14.81219,14.81219,0,0,0-6.59668,5.61572A16.4623,16.4623,0,0,0,96.396,23.3291v.05469c0,5.07031,1.63525,8.94092,4.85205,11.72168,3.21679,2.78027,7.85107,4.14355,13.90283,4.14355a28.86316,28.86316,0,0,0,5.01562-.38183,22.37393,22.37393,0,0,0,4.08887-1.145,14.92814,14.92814,0,0,0,5.7793-4.08887A14.15386,14.15386,0,0,0,132.81494,27.96338Z"/><path class="cls-1" d="M54.58643,38.32178h32.8208v3.87109H50.38867V3.59277H86.37158V7.355H54.58643V21.4209H81.41016v3.76172H54.58643Z"/><path class="cls-1" d="M23.13379,42.19287H4.10645V3.59277H23.67871c6.21533,0,10.79492.76368,13.73877,2.23535,2.94434,1.47217,4.4165,4.03467,4.4165,7.63282v.10888c0,2.67188-.76367,4.74366-2.29,6.10645a13.16218,13.16218,0,0,1-6.76026,2.835c3.37988.436,5.94238,1.30859,7.63281,2.67139,1.69,1.36328,2.50782,3.54394,2.50782,6.43359v.0542a10.28952,10.28952,0,0,1-.54541,3.54395,7.541,7.541,0,0,1-1.74463,2.72607,12.94518,12.94518,0,0,1-6.65137,3.271A50.81776,50.81776,0,0,1,23.13379,42.19287ZM8.35889,20.82129H23.897c1.3628,0,2.67139-.05469,3.87061-.10938a29.321,29.321,0,0,0,3.32568-.38134,9.74344,9.74344,0,0,0,4.79785-2.07178A5.439,5.439,0,0,0,37.58105,13.897v-.0542A5.22445,5.22445,0,0,0,34.25537,8.5542c-2.23486-.92676-5.66992-1.36279-10.41308-1.36279H8.35889Zm15.15625,3.48926H8.35889v14.1206H22.752c1.79932,0,3.48926-.05469,5.01563-.16357a26.89877,26.89877,0,0,0,3.98-.43653,9.92074,9.92074,0,0,0,5.17969-2.07128,5.63,5.63,0,0,0,1.63525-4.30713V31.398a7.83607,7.83607,0,0,0-.436-2.67139,4.396,4.396,0,0,0-1.36279-1.9082,9.45319,9.45319,0,0,0-5.07031-2.01709A57.6887,57.6887,0,0,0,23.51514,24.31055Z"/><path class="cls-1" d="M25.36621,86.50977v16.08349h-4.416V86.40088L2.84961,63.99316H8.19238l15.04737,18.7002,16.24707-18.7002h5.34277Z"/><path class="cls-1" d="M55.56494,98.72217h32.8208v3.87109H51.36719V63.99316H87.3501v3.76221H55.56494V81.82129H82.38867V85.583H55.56494Z"/><path class="cls-1" d="M139.8457,102.59326h-4.74316L129.269,91.58008H104.4624l-5.72412,11.01318H93.99463l20.44531-38.6001h4.47022ZM106.31641,87.98193h20.98974l-10.57666-19.9541Z"/><path class="cls-1" d="M167.04443,87.65479h-16.6831v14.93847h-4.30664V63.99316h20.6084c6.48779,0,11.12158.92725,13.957,2.72608,2.835,1.79931,4.25244,4.74316,4.25244,8.72314q0,4.66187-2.45361,7.03321c-1.63526,1.63574-4.08887,2.72607-7.30567,3.32568,3.2168.59961,5.50684,1.85352,6.81494,3.70752,1.25391,1.85351,1.90821,4.63379,1.90821,8.28662V100.249a4.06408,4.06408,0,0,0,.21826,1.41748,1.46488,1.46488,0,0,0,.59961.92676h-4.68848a1.19265,1.19265,0,0,1-.49072-.92676,6.06286,6.06286,0,0,1-.16358-1.47216V97.8501a21.99214,21.99214,0,0,0-.27246-3.43457,8.22518,8.22518,0,0,0-.81787-2.61719,6.65637,6.65637,0,0,0-3.8164-3.2168A23.96546,23.96546,0,0,0,167.04443,87.65479Zm-16.6831-3.76172h16.02881c1.41748,0,2.72607-.05469,3.98-.16358a21.121,21.121,0,0,0,3.43506-.436,9.868,9.868,0,0,0,4.96093-2.39893,6.83478,6.83478,0,0,0,1.74463-5.01611V75.606c0-2.94385-1.09033-5.01563-3.32568-6.16065s-5.72461-1.68994-10.57666-1.68994H150.36133Z"/><path class="cls-1" d="M246.29639,69.02979q-5.24049-1.11841-10.481-2.03516-2.23974-.35523-4.70605-.73779-2.469-.3816-4.96094-.66114-2.49316-.279-4.93506-.458-2.44263-.178-4.62988-.17823a14.95577,14.95577,0,0,0,.83935,4.24854,24.01683,24.01683,0,0,0,1.88233,4.0957,35.49648,35.49648,0,0,0,2.54394,3.81592,44.48168,44.48168,0,0,0,2.87451,3.40869,59.527,59.527,0,0,0,7.73389,7.02148l-.2544.356q-2.49389-1.57617-5.34228-3.07812a52.285,52.285,0,0,0-5.80029-2.62012q.55956,4.78272,1.11914,8.54736.55956,3.76611.96679,6.41114.50831,3.104.916,5.44384h-5.08789V81.2915q-2.3921-.86425-4.50293-1.60254-2.11158-.73681-3.73926-1.24658-1.88306-.55884-3.46-1.06836l.10156-.40722q3.51123.86572,6.23291,1.52636,2.721.66211,4.80811,1.1958,2.08521.53394,3.6123.99219,1.52637.45777,2.64551.916-2.239-1.78052-4.45166-3.79053a36.68779,36.68779,0,0,1-3.96875-4.19775,22.11945,22.11945,0,0,1-2.82373-4.47705,10.95847,10.95847,0,0,1-1.06836-4.68116h33.936Z"/><path class="cls-1" d="M297.12354,64.70508,282.77588,78.34082l14.34766,24.269h-.86475q-2.28955-3.51049-4.8335-7.37744-2.18847-3.25562-4.88427-7.27539-2.69751-4.0188-5.44385-7.98828l-24.62549,22.64111h-5.08789l21.52148-36.582q-4.834.561-8.77636,1.09424-3.94337.53394-6.79248.94092-3.30762.50976-5.95264.9668V64.45068h45.73975ZM258.45605,96.91162l21.67432-18.36719q-2.1372-3.05273-4.07031-5.72412-1.93433-2.67114-3.46-4.60449Zm37.49756-31.90137q-5.699.052-10.68457.229-4.98705.17945-9.81982.53418l6.51269,11.24463Z"/><path class="cls-1" d="M337.35938,79.30762a15.75722,15.75722,0,0,1,4.96679,4.62988,10.14538,10.14538,0,0,1,1.8086,5.749,9.95069,9.95069,0,0,1-1.67969,5.49512A15.84906,15.84906,0,0,1,337.90039,99.71,24.00052,24.00052,0,0,1,331.21,102.7627a28.44155,28.44155,0,0,1-8.03955,1.11914,23.124,23.124,0,0,1-2.54492-.20362q-1.67871-.20361-4.249-.76318-2.57005-.55884-6.08105-1.52637-3.51049-.96606-8.09033-2.49316v-4.5791q1.93285.96753,4.40088,2.26416,2.46825,1.29785,5.24218,2.54394a56.63882,56.63882,0,0,0,5.75,2.21338,29.92578,29.92578,0,0,0,5.95362,1.29736,20.72082,20.72082,0,0,0,5.80176-.15234,13.96786,13.96786,0,0,0,5.36914-2.1626,12.02153,12.02153,0,0,0,4.17187-4.68066,12.75,12.75,0,0,0,1.42578-5.74951,9.7502,9.7502,0,0,0-1.11914-4.5791,13.64439,13.64439,0,0,0-3.15625-3.91749,14.95889,14.95889,0,0,1-2.82226,2.62012,17.51678,17.51678,0,0,1-3.74024,2.03516,25.69851,25.69851,0,0,1-9.51416,1.80615,24.85032,24.85032,0,0,1-8.42041-1.37353,17.51417,17.51417,0,0,1-6.33447-3.76514,10.67373,10.67373,0,0,1-2.46777-3.1543,8.4999,8.4999,0,0,1-.99219-4.01953,8.65173,8.65173,0,0,1,1.85693-5.5459,14.956,14.956,0,0,1,4.605-3.84131,23.2963,23.2963,0,0,1,5.92725-2.23877,25.974,25.974,0,0,1,5.82568-.73779,19.8048,19.8048,0,0,1,2.34033.15283,29.04361,29.04361,0,0,1,3.53614.7378q2.26318.58519,5.92675,1.7041,3.665,1.11987,9.61719,3.104v4.68067q-2.14159-.96607-4.68945-2.39112-2.54591-1.42383-5.32324-2.82373-2.77736-1.39893-5.68067-2.51855a26.42239,26.42239,0,0,0-5.75732-1.52637,15.88572,15.88572,0,0,0-5.52832.15234,11.56713,11.56713,0,0,0-5.01856,2.49317,11.06606,11.06606,0,0,0-2.77685,3.6123,11.22376,11.22376,0,0,0-1.04492,4.98633,8.96037,8.96037,0,0,0,1.07031,4.32471,24.86332,24.86332,0,0,1,7.05517-3.30713,30.13805,30.13805,0,0,1,8.7378-1.22119,30.75727,30.75727,0,0,1,7.94726.96679A26.82831,26.82831,0,0,1,337.35938,79.30762Zm-17.39112,7.63183a17.15424,17.15424,0,0,0,7.27588-1.52636,13.56451,13.56451,0,0,0,5.24024-4.07032,1.89579,1.89579,0,0,0-.7129-2.90039,26.82271,26.82271,0,0,0-18.29052-.89013,19.61558,19.61558,0,0,0-6.23242,3.28173,11.88951,11.88951,0,0,0,2.23876,2.49268,14.69632,14.69632,0,0,0,2.95069,1.93359,15.54816,15.54816,0,0,0,3.53613,1.24659A17.9986,17.9986,0,0,0,319.96826,86.93945Z"/><path class="cls-1" d="M390.38379,64.45068v38.15918h-4.93555q-.356.55958,0-.27978t1.043-2.56934q.687-1.72924,1.4502-3.99414a31.50279,31.50279,0,0,0,1.16992-4.55371,17.1552,17.1552,0,0,0,.25488-4.29932,4.84417,4.84417,0,0,0-1.32324-3.17968,5.42511,5.42511,0,0,0-3.332-1.62793,14.40941,14.40941,0,0,0-4.45215.20312,40.226,40.226,0,0,0-5.26563,1.39942q-2.82421.94189-5.77539,2.00976a17.81434,17.81434,0,0,1-10.04785.86475,11.50508,11.50508,0,0,1-6.99609-4.5791,60.25817,60.25817,0,0,0,.916,10.45556,45.0552,45.0552,0,0,0,3.05274,10.15039H351.207V64.45068h4.93555q.30468-.55884-.07617.33106-.38234.89063-1.04395,2.64551-.66065,1.75562-1.37305,4.07031a30.46108,30.46108,0,0,0-1.043,4.5791,15.943,15.943,0,0,0-.10157,4.19727,4.04727,4.04727,0,0,0,1.5,2.90039,6.996,6.996,0,0,0,3.25684,1.501,13.60939,13.60939,0,0,0,3.918.10157,26.07332,26.07332,0,0,0,4.375-.89014q2.28954-.66064,4.5791-1.52637a27.811,27.811,0,0,1,7.80957-2.21338,16.3297,16.3297,0,0,1,5.67383.27979,9.743,9.743,0,0,1,3.76465,1.78076,9.57674,9.57674,0,0,1,2.08593,2.23877,52.16775,52.16775,0,0,0-.99218-10.15039,50.71872,50.71872,0,0,0-3.02735-9.84522Z"/><path class="cls-1" d="M434.80078,64.45068v4.57911a8.41545,8.41545,0,0,0-1.60254-.68653,43.95875,43.95875,0,0,0-4.65527-1.45019q-2.90039-.76318-6.58887-1.34815a37.3696,37.3696,0,0,0-7.40332-.43262q.45851,7.021,1.06836,13.10108.61084,6.08056,1.19629,10.86279.583,4.78272,1.09375,8.03858.5083,3.25707.7627,4.68115a52.15528,52.15528,0,0,0,6.28417-.83936q2.92383-.58448,5.11329-1.24658a48.07386,48.07386,0,0,0,4.73144-1.6792v4.5791H396.6416v-4.5791a44.28437,44.28437,0,0,0,4.98633,1.78076,54.60557,54.60557,0,0,0,5.49512,1.32276,45.93784,45.93784,0,0,0,6.81738.76318V65.16309a44.51484,44.51484,0,0,0-6.71582.76318q-3.104.61084-5.49512,1.32275a46.605,46.605,0,0,0-5.08789,1.78077V64.45068Z"/><path class="cls-1" d="M461.76562,63.17871A24.99485,24.99485,0,0,1,471,64.83252a22.81251,22.81251,0,0,1,7.19922,4.42627,19.99856,19.99856,0,0,1,4.68066,6.46191,18.99594,18.99594,0,0,1,0,15.61963,20.26216,20.26216,0,0,1-4.68066,6.48682A22.20346,22.20346,0,0,1,471,102.25391a27.0048,27.0048,0,0,1-18.46875,0,22.48219,22.48219,0,0,1-7.22461-4.42676,20.07812,20.07812,0,0,1-4.707-6.48682,19.006,19.006,0,0,1,0-15.61963,19.81939,19.81939,0,0,1,4.707-6.46191,23.10461,23.10461,0,0,1,7.22461-4.42627A24.98749,24.98749,0,0,1,461.76562,63.17871Zm0,40.0415a24.47644,24.47644,0,0,0,7.40235-1.06835,14.52892,14.52892,0,0,0,5.82617-3.43409,15.80029,15.80029,0,0,0,3.79-6.10547,26.91955,26.91955,0,0,0,1.34863-9.082,24.93466,24.93466,0,0,0-1.34863-8.57275,16.82724,16.82724,0,0,0-3.79-6.15674,15.74381,15.74381,0,0,0-5.82617-3.71387,22.6796,22.6796,0,0,0-14.83106,0,15.54288,15.54288,0,0,0-5.77441,3.71387,16.97786,16.97786,0,0,0-3.76465,6.15674,24.91145,24.91145,0,0,0-1.34863,8.57275,24.91246,24.91246,0,0,0,1.34863,8.57325,16.96329,16.96329,0,0,0,3.76465,6.15625,15.5257,15.5257,0,0,0,5.77441,3.71435A21.21536,21.21536,0,0,0,461.76562,103.22021Z"/><path class="cls-1" d="M525.26172,64.45068v38.15918h-.50879q-4.57909-4.73144-9.97266-10.125-2.28954-2.28954-5.03711-4.98584-2.74658-2.696-5.82519-5.67334-3.07911-2.97582-6.46192-6.13086-3.38378-3.1538-6.94433-6.46142.5581,7.582,1.27148,13.66113.71191,6.07983,1.32325,10.50635.7119,5.13941,1.47558,9.209h-4.93555V64.45068h.50879l34.4961,37.24317q-.561-8.34375-1.27246-15.16162-.71339-6.81739-1.42481-11.75293-.81446-5.80005-1.62793-10.32862Z"/><path class="cls-1" d="M26.18408,164.11914a53.20619,53.20619,0,0,1-6.86914-.38135,28.54464,28.54464,0,0,1-5.50683-1.1997A14.22623,14.22623,0,0,1,6.61182,157.686a17.36075,17.36075,0,0,1-3.10791-8.28711h4.689c.54492,3.98,2.23535,6.81494,5.12451,8.396q4.33447,2.45361,12.92139,2.45362c5.28857,0,9.15918-.6543,11.50342-2.01758a6.228,6.228,0,0,0,3.48926-5.66992,7.19534,7.19534,0,0,0-.436-2.5625,4.74927,4.74927,0,0,0-1.36279-1.74463,12.68225,12.68225,0,0,0-5.67041-1.96241c-2.562-.38183-5.8877-.65429-9.97705-.92724-2.01709-.16358-3.87061-.32715-5.561-.59961a43.61955,43.61955,0,0,1-4.57959-.81787,12.19052,12.19052,0,0,1-6.106-3.10742,7.88418,7.88418,0,0,1-2.07177-5.7793,9.52414,9.52414,0,0,1,4.63427-8.28662q4.57911-3.10767,13.90235-3.10791,9.56835,0,14.88379,3.27148a12.97542,12.97542,0,0,1,6.21533,9.54053H40.57715a8.75836,8.75836,0,0,0-4.96094-6.92383c-2.88965-1.47217-6.81494-2.18066-11.72168-2.18066-4.85254,0-8.396.65429-10.63135,1.9082a6.21676,6.21676,0,0,0-3.43506,5.66992,5.11468,5.11468,0,0,0,.38184,2.12647,5.55056,5.55056,0,0,0,1.145,1.63525,10.891,10.891,0,0,0,4.96094,1.96289,83.60107,83.60107,0,0,0,9.15967,1.03565c2.23535.16357,4.30712.32714,6.16064.54541s3.54395.49072,5.01563.81787a13.74486,13.74486,0,0,1,6.706,3.10742,8.25822,8.25822,0,0,1,2.18066,6.16064,9.87892,9.87892,0,0,1-4.68847,8.66895C37.688,163.0835,32.78125,164.11914,26.18408,164.11914Z"/><path class="cls-1" d="M86.0957,124.42871v3.76221h-16.792v34.83789H64.833V128.19092H48.8042v-3.76221Z"/><path class="cls-1" d="M113.02246,164.11914c-6.86963,0-11.88525-1.74463-15.102-5.1792-3.2168-3.43506-4.79785-8.77783-4.79785-16.08349V124.42871h4.4707v18.31885c0,5.83349,1.19971,10.19531,3.65283,12.97558,2.39893,2.835,6.32422,4.25245,11.83106,4.25245,5.28808,0,9.21338-1.3628,11.667-4.14356,2.45313-2.78027,3.65283-7.14209,3.65283-13.13916V124.42871h4.47071v18.37354c0,7.35986-1.69043,12.75732-5.01612,16.19189C124.52588,162.4292,119.56494,164.11914,113.02246,164.11914Z"/><path class="cls-1" d="M159.84863,163.02881H142.02051v-38.6001h16.95605a37.558,37.558,0,0,1,9.10449,1.03613,21.76964,21.76964,0,0,1,7.46924,3.38037,15.10434,15.10434,0,0,1,5.01563,5.8877,19.93561,19.93561,0,0,1,1.79931,8.83252v.10889a25.226,25.226,0,0,1-.70849,6.32422,15.32451,15.32451,0,0,1-2.23535,4.96142,16.09793,16.09793,0,0,1-7.96,6.16065A33.68372,33.68372,0,0,1,159.84863,163.02881Zm-.98144-34.78369H146.32764v30.91259h13.35742a30.60718,30.60718,0,0,0,5.125-.38134,21.80943,21.80943,0,0,0,4.416-1.03614,13.11318,13.11318,0,0,0,6.43311-4.852c1.52686-2.23535,2.29-5.34277,2.29-9.26855v-.0542a21.00443,21.00443,0,0,0-.59961-5.125,13.04841,13.04841,0,0,0-1.854-3.92529,13.41928,13.41928,0,0,0-6.76026-4.79785A30.534,30.534,0,0,0,158.86719,128.24512Z"/><path class="cls-1" d="M194.5708,159.15771h32.8208v3.8711H190.37305v-38.6001H226.356v3.76221H194.5708v14.06592h26.82373v3.76171H194.5708Z"/><path class="cls-1" d="M271.11035,163.02881l-28.67724-30.42188-2.61719-2.88964v33.31152h-4.19776v-38.6001h4.57959l28.023,29.65869,2.72608,3.05322V124.42871h4.19775v38.6001Z"/><path class="cls-1" d="M319.626,124.42871v3.76221H302.834v34.83789h-4.4707V128.19092H282.33447v-3.76221Z"/><path class="cls-1" d="M345.84473,164.11914a53.227,53.227,0,0,1-6.87012-.38135,28.54205,28.54205,0,0,1-5.50586-1.1997,14.23127,14.23127,0,0,1-7.19727-4.85205,17.36567,17.36567,0,0,1-3.10742-8.28711h4.68946c.54492,3.98,2.23437,6.81494,5.124,8.396q4.33447,2.45361,12.9209,2.45362c5.28906,0,9.16015-.6543,11.5039-2.01758a6.228,6.228,0,0,0,3.48926-5.66992,7.19558,7.19558,0,0,0-.43555-2.5625,4.75043,4.75043,0,0,0-1.36328-1.74463,12.67989,12.67989,0,0,0-5.66992-1.96241c-2.5625-.38183-5.88867-.65429-9.97754-.92724-2.0166-.16358-3.87109-.32715-5.56054-.59961a43.607,43.607,0,0,1-4.58008-.81787,12.18655,12.18655,0,0,1-6.10547-3.10742,7.88442,7.88442,0,0,1-2.07227-5.7793,9.52357,9.52357,0,0,1,4.63477-8.28662q4.57909-3.10767,13.90234-3.10791,9.56689,0,14.88379,3.27148a12.97756,12.97756,0,0,1,6.21485,9.54053h-4.5254a8.75729,8.75729,0,0,0-4.96093-6.92383c-2.88965-1.47217-6.81543-2.18066-11.72168-2.18066-4.85254,0-8.39649.65429-10.63184,1.9082a6.2163,6.2163,0,0,0-3.43457,5.66992,5.11468,5.11468,0,0,0,.38184,2.12647,5.54315,5.54315,0,0,0,1.1455,1.63525,10.88623,10.88623,0,0,0,4.96094,1.96289,83.59018,83.59018,0,0,0,9.15918,1.03565c2.23535.16357,4.30664.32714,6.16016.54541,1.85449.21826,3.54394.49072,5.0166.81787a13.741,13.741,0,0,1,6.70508,3.10742,8.25676,8.25676,0,0,1,2.18164,6.16064,9.87771,9.87771,0,0,1-4.68945,8.66895C357.34766,163.0835,352.44141,164.11914,345.84473,164.11914Z"/><path class="cls-1" d="M431.15918,163.02881h-4.30664v-17.228H396.32129v17.228h-4.30664v-38.6001h4.30664v17.22852h30.53125V124.42871h4.30664Z"/><path class="cls-1" d="M483.27344,163.02881h-4.74317l-5.834-11.01319H447.88965L442.165,163.02881h-4.74316l20.44531-38.6001h4.4707Zm-33.53028-14.61133H470.7334l-10.57617-19.9541Z"/><path class="cls-1" d="M522.84863,124.42871l-20.22754,38.6001h-4.416l-19.79-38.6001h4.85156l17.2832,34.18408,17.55567-34.18408Z"/><path class="cls-1" d="M533.20117,159.15771h32.82031v3.8711H529.00293v-38.6001h35.98242v3.76221H533.20117v14.06592h26.82324v3.76171H533.20117Z"/><path class="cls-1" d="M17.84961,222.479a14.87445,14.87445,0,0,0,6.76709,1.55176,14.79818,14.79818,0,0,0,5.92725-1.501,23.36022,23.36022,0,0,0,5.41894-3.71387q2.59423-2.34009,5.291-5.08789l4.83349,2.28955a35.32086,35.32086,0,0,1-5.18945,4.0957,33.70129,33.70129,0,0,1-5.08789,2.69678,24.77787,24.77787,0,0,1-4.88428,1.50049,24.33423,24.33423,0,0,1-4.5791.458,25.204,25.204,0,0,1-9.26025-1.65332,22.77263,22.77263,0,0,1-7.25-4.45214,20.07507,20.07507,0,0,1-4.70606-6.48682,18.62941,18.62941,0,0,1-1.6792-7.81006,18.01519,18.01519,0,0,1,1.88233-8.2168,20.34477,20.34477,0,0,1,5.0625-6.436,23.73763,23.73763,0,0,1,7.30127-4.19776,25.089,25.089,0,0,1,8.64941-1.501,25.81981,25.81981,0,0,1,4.5791.43262,24.48848,24.48848,0,0,1,4.88428,1.45019,32.15316,32.15316,0,0,1,5.08789,2.6709,35.35375,35.35375,0,0,1,5.18945,4.0957l-4.83349,2.28955q-2.69679-2.74731-5.21485-5.03711a22.13494,22.13494,0,0,0-5.26611-3.6123,14.84634,14.84634,0,0,0-5.90186-1.44971,16.96924,16.96924,0,0,0-7.02148,1.44971,15.1999,15.1999,0,0,0-7.32617,6.46191q-2.69751,4.52857-2.69678,11.54932,0,7.021,2.74756,11.57471A16.10085,16.10085,0,0,0,17.84961,222.479Z"/><path class="cls-1" d="M83.4834,223.4458l-7.78467-8.95459a7.37472,7.37472,0,0,0-2.6709-1.93359,7.05983,7.05983,0,0,0-3.23095-.55957,24.12605,24.12605,0,0,1-4.80811-.27979,23.18272,23.18272,0,0,1-4.68066-1.24658,23.4561,23.4561,0,0,1-4.32471-2.1875,18.92438,18.92438,0,0,1-3.73975-3.15479q.55957,4.325,1.043,7.68262.48341,3.35816.89063,5.74951.40648,2.79859.76318,4.88428H50.15771V185.28662H68.47412a24.42288,24.42288,0,0,1,7.42822,1.06836,19.394,19.394,0,0,1,5.77491,2.875,13.55721,13.55721,0,0,1,3.76464,4.19727,10.20649,10.20649,0,0,1,1.34864,5.08789,10.38507,10.38507,0,0,1-1.73,5.80029,14.82,14.82,0,0,1-4.68067,4.47754,22.29743,22.29743,0,0,1-4.52832,2.13672q3.408,3.30762,6.00342,5.64746,2.595,2.34083,4.376,3.8667,2.03393,1.782,3.561,3.00195ZM51.6333,196.73438a16.7834,16.7834,0,0,0,2.64551,6.9707,17.27891,17.27891,0,0,0,4.88428,4.85888,16.91534,16.91534,0,0,0,13.27929,2.2129L50.6665,185.84619q.10109,2.9004.30518,5.44434Q51.17456,193.835,51.6333,196.73438ZM68.47412,186.355q-2.4939-.15234-5.16406-.25439-2.67114-.10109-5.03711-.17774-2.36573-.07617-4.19775-.10205-1.83107-.0249-2.74708-.02539,7.22388,7.78491,13.07569,13.7373,5.84985,5.95313,10.481,10.43018.45776-.20287.916-.40674.45777-.20288.91553-.458a12.57816,12.57816,0,0,0,4.65527-4.52832,11.79287,11.79287,0,0,0,1.603-6.05468,11.23492,11.23492,0,0,0-.94141-4.5791,10.61892,10.61892,0,0,0-2.77295-3.73926,14.61045,14.61045,0,0,0-4.55371-2.62061A21.31222,21.31222,0,0,0,68.47412,186.355Z"/><path class="cls-1" d="M101.5957,194.08887a18.71454,18.71454,0,0,0-.83935,2.28955,23.65567,23.65567,0,0,0-.63574,2.72168q-.25562,1.45019-.40723,2.97656-.15234,1.52637-.15283,2.95117a20.62477,20.62477,0,0,0,2.74756,11.14209,16.06826,16.06826,0,0,0,7.27587,6.35987,14.2925,14.2925,0,0,0,12.66846.05126,23.50682,23.50682,0,0,0,5.39356-3.58691q2.59424-2.26392,5.291-4.91016l4.8335,2.188a37.68405,37.68405,0,0,1-5.18946,3.96826,31.5917,31.5917,0,0,1-5.08789,2.62061,26.93354,26.93354,0,0,1-4.88427,1.44971,24.33431,24.33431,0,0,1-4.5791.458,26.0775,26.0775,0,0,1-9.23438-1.57714,22.4982,22.4982,0,0,1-7.2251-4.29932,19.56534,19.56534,0,0,1-4.70605-6.30908,17.60565,17.60565,0,0,1-1.6792-7.55518,20.58884,20.58884,0,0,1,.25439-3.12939,26.53108,26.53108,0,0,1,.71241-3.25586,22.88493,22.88493,0,0,1,1.11914-3.07813,14.18975,14.18975,0,0,1,1.52636-2.646l-5.95263-2.49317.25439-.45752q1.0686.45777,1.73.71192.66065.25562,1.272.4834.61011.22924,1.29737.48339.687.25562,1.85693.71241a21.26612,21.26612,0,0,1,7.81006-6.08008,25.45149,25.45149,0,0,1,10.96436-2.26416,26.06652,26.06652,0,0,1,9.23437,1.57764,22.23252,22.23252,0,0,1,7.19922,4.29882,19.7684,19.7684,0,0,1,4.68115,6.30909,17.61282,17.61282,0,0,1,1.67871,7.55566,18.29861,18.29861,0,0,1-1.01758,6.00342.565.565,0,0,0-.05078.25439.04536.04536,0,0,1-.05078.05127Zm16.43409-9.46338a20.48364,20.48364,0,0,0-9.69239,2.1875,14.84821,14.84821,0,0,0-6.38525,6.56347q4.88452,1.78125,9.81933,3.61231,4.93434,1.83179,9.48877,3.43457,4.55348,1.60254,8.47168,2.8999,3.917,1.29713,6.76661,2.06055a24.27679,24.27679,0,0,0-.89014-8.03858,17.4315,17.4315,0,0,0-3.43457-6.46191,17.06647,17.06647,0,0,0-5.90186-4.40088A21.66609,21.66609,0,0,0,118.02979,184.62549Z"/><path class="cls-1" d="M193.32959,185.541l-14.34766,13.63574,14.34766,24.269h-.86475q-2.28954-3.51049-4.83349-7.37744-2.18849-3.25562-4.88428-7.27539-2.69751-4.0188-5.44385-7.98828L152.67773,223.4458h-5.08789l21.52149-36.582q-4.834.561-8.77637,1.09424-3.94336.53393-6.79248.94092-3.30762.50976-5.95264.96679v-4.5791h45.73975Zm-38.66748,32.20654,21.67432-18.36719q-2.13722-3.05274-4.07032-5.72412-1.93432-2.67114-3.46-4.60449Zm37.49756-31.90137q-5.699.052-10.68457.229-4.98707.17943-9.81983.53418L178.168,197.854Z"/><path class="cls-1" d="M243.44482,189.86572a20.77724,20.77724,0,0,0-4.3247-2.1875,25.60686,25.60686,0,0,0-4.98584-1.22119,5.82305,5.82305,0,0,0-3.35791.4834,7.0063,7.0063,0,0,0-2.69678,2.26416l-25.083,34.24121h-5.5459q2.9502-2.90038,7.479-7.937,3.86644-4.32422,9.92138-11.44775,6.05421-7.12281,14.60254-17.8584a38.72847,38.72847,0,0,0-4.29931.17822q-2.67114.22851-5.69873.63574-3.0271.408-6.10547.916-3.07837.509-5.5708.94092-2.4939.43286-5.59668,1.043v-4.62988h41.2622Z"/><path class="cls-1" d="M252.70459,194.08887a18.7145,18.7145,0,0,0-.83936,2.28955,23.65985,23.65985,0,0,0-.63574,2.72168q-.25562,1.45019-.40722,2.97656-.15236,1.52637-.15284,2.95117a20.62486,20.62486,0,0,0,2.74756,11.14209,16.06833,16.06833,0,0,0,7.27588,6.35987,14.2925,14.2925,0,0,0,12.66846.05126,23.507,23.507,0,0,0,5.39355-3.58691q2.59425-2.26392,5.291-4.91016l4.83349,2.188a37.68459,37.68459,0,0,1-5.18945,3.96826,31.59211,31.59211,0,0,1-5.08789,2.62061,26.93363,26.93363,0,0,1-4.88428,1.44971,24.33415,24.33415,0,0,1-4.5791.458,26.07744,26.07744,0,0,1-9.23437-1.57714,22.4982,22.4982,0,0,1-7.2251-4.29932,19.56537,19.56537,0,0,1-4.70606-6.30908,17.60579,17.60579,0,0,1-1.67919-7.55518,20.58884,20.58884,0,0,1,.25439-3.12939,26.531,26.531,0,0,1,.7124-3.25586,22.8863,22.8863,0,0,1,1.11914-3.07813,14.18978,14.18978,0,0,1,1.52637-2.646l-5.95264-2.49317.2544-.45752q1.0686.45777,1.73.71192.66064.25562,1.272.4834.61011.22924,1.29736.48339.687.25562,1.85694.71241a21.266,21.266,0,0,1,7.81006-6.08008,25.45144,25.45144,0,0,1,10.96435-2.26416,26.06657,26.06657,0,0,1,9.23438,1.57764,22.23252,22.23252,0,0,1,7.19922,4.29882,19.76854,19.76854,0,0,1,4.68115,6.30909,17.61282,17.61282,0,0,1,1.67871,7.55566,18.29887,18.29887,0,0,1-1.01758,6.00342.565.565,0,0,0-.05078.25439.04536.04536,0,0,1-.05078.05127Zm16.43408-9.46338a20.48363,20.48363,0,0,0-9.69238,2.1875,14.84811,14.84811,0,0,0-6.38525,6.56347q4.88451,1.78125,9.81933,3.61231,4.93432,1.83179,9.48877,3.43457,4.55347,1.60254,8.47168,2.8999,3.917,1.29713,6.7666,2.06055a24.27653,24.27653,0,0,0-.89013-8.03858,17.43166,17.43166,0,0,0-3.43458-6.46191,17.06643,17.06643,0,0,0-5.90185-4.40088A21.6661,21.6661,0,0,0,269.13867,184.62549Z"/><path class="cls-1" d="M298.74951,185.28662q3.917,0,8.31885.02539a81.62709,81.62709,0,0,1,8.6748.50879,52.34953,52.34953,0,0,1,8.19141,1.57764,22.06718,22.06718,0,0,1,6.89355,3.20508,15.73829,15.73829,0,0,1,4.78321,5.46972,17.757,17.757,0,0,1,1.85742,8.293,18.25709,18.25709,0,0,1-1.60352,8.29346,14.93149,14.93149,0,0,1-4.47656,5.46924,20.57325,20.57325,0,0,1-6.46191,3.20556,45.64475,45.64475,0,0,1-7.50488,1.57715,65.0439,65.0439,0,0,1-7.65723.50879q-3.791.02637-6.894.02539h-4.1211Zm4.8335,37.59961q2.5437,0,5.72363-.07617a49.38788,49.38788,0,0,0,6.43652-.58545,34.25158,34.25158,0,0,0,6.35987-1.62793,17.9659,17.9659,0,0,0,5.54541-3.18018,15.25005,15.25005,0,0,0,3.94336-5.24023,18.71274,18.71274,0,0,0,1.55078-7.81006,15.972,15.972,0,0,0-1.65235-7.80957,15.40157,15.40157,0,0,0-4.52832-5.24072,21.75618,21.75618,0,0,0-6.43652-3.18018,47.31019,47.31019,0,0,0-7.40283-1.65332,62.51365,62.51365,0,0,0-7.40283-.61035q-3.613-.07691-6.41065-.07666.5083,7.4795,1.17041,13.78809.66064,6.30981,1.272,11.14257.61011,4.834,1.11915,7.96241Q303.3789,221.81811,303.583,222.88623Z"/><path class="cls-1" d="M370.77441,219.57471h32.82032v3.87109H366.57617V184.8457h35.98242v3.76221H370.77441v14.06592h26.82325v3.76172H370.77441Z"/><path class="cls-1" d="M444.751,219.35693v4.08887H411.82129V184.8457h4.36133v34.51123Z"/><path class="cls-1" d="M456.958,219.57471h32.82031v3.87109H452.75977V184.8457h35.98242v3.76221H456.958v14.06592h26.82324v3.76172H456.958Z"/><path class="cls-1" d="M538.94922,184.8457l-20.22754,38.6001h-4.416l-19.79-38.6001h4.85157l17.2832,34.18409,17.55566-34.18409Z"/><path class="cls-1" d="M549.30176,219.57471h32.82031v3.87109H545.10352V184.8457h35.98242v3.76221H549.30176v14.06592H576.125v3.76172H549.30176Z"/><path class="cls-1" d="M625.84082,223.4458l-28.67773-30.42187-2.61621-2.88965V223.4458h-4.19825V184.8457h4.5791l28.02344,29.65869,2.72559,3.05323V184.8457H629.875v38.6001Z"/><path class="cls-1" d="M43.64551,269.61572h4.63428a18.02652,18.02652,0,0,1-1.3628,4.19776,16.40645,16.40645,0,0,1-2.34472,3.70752,18.76774,18.76774,0,0,1-7.46924,5.39746,29.3327,29.3327,0,0,1-11.33985,1.9624q-10.79515,0-16.84668-5.07031c-4.08886-3.37989-6.10595-8.28662-6.10595-14.72022v-.10888a22.30147,22.30147,0,0,1,.76318-5.88819,16.6105,16.6105,0,0,1,2.23535-5.01562,19.65,19.65,0,0,1,8.28662-7.14209,27.93086,27.93086,0,0,1,12.21241-2.50782,32.86819,32.86819,0,0,1,5.23388.38135,26.92027,26.92027,0,0,1,4.79785,1.25391,19.401,19.401,0,0,1,7.57813,4.79785,16.54147,16.54147,0,0,1,4.08935,8.01416H43.42773a12.50525,12.50525,0,0,0-5.561-7.7959c-2.88965-1.79931-6.76074-2.72607-11.55859-2.72607a28.3777,28.3777,0,0,0-5.397.49072,21.41774,21.41774,0,0,0-4.689,1.47168,14.81219,14.81219,0,0,0-6.59668,5.61572,16.46226,16.46226,0,0,0-2.39893,9.0503v.05468c0,5.07032,1.63526,8.94092,4.852,11.72168,3.2168,2.78028,7.85108,4.14356,13.90284,4.14356a28.86327,28.86327,0,0,0,5.01562-.38184,22.37393,22.37393,0,0,0,4.08887-1.145,14.9279,14.9279,0,0,0,5.77929-4.08887A14.15375,14.15375,0,0,0,43.64551,269.61572Z"/><path class="cls-1" d="M76.2959,284.88086a31.40269,31.40269,0,0,1-6.10645-.54492,28.77909,28.77909,0,0,1-5.45166-1.63574,18.4526,18.4526,0,0,1-8.17822-6.59668A19.23363,19.23363,0,0,1,53.561,264.98145v-.10889a23.69234,23.69234,0,0,1,.76318-6.10645,16.34729,16.34729,0,0,1,2.23535-5.07031,19.52794,19.52794,0,0,1,8.17822-6.92383,27.20045,27.20045,0,0,1,11.55811-2.34424,30.2744,30.2744,0,0,1,9.05029,1.30811,21.47342,21.47342,0,0,1,7.30567,3.92578A17.15225,17.15225,0,0,1,97.50391,256.04a21.453,21.453,0,0,1,1.74463,8.83252v.10889a20.57489,20.57489,0,0,1-1.74463,8.72314,16.853,16.853,0,0,1-4.96143,6.21533,20.30406,20.30406,0,0,1-7.251,3.707A29.90256,29.90256,0,0,1,76.2959,284.88086Zm0-4.03418a28.97236,28.97236,0,0,0,4.96094-.436,23.4271,23.4271,0,0,0,4.4707-1.1997,14.1636,14.1636,0,0,0,6.59717-5.1792,15.4369,15.4369,0,0,0,2.45312-9.05029v-.05469a20.97564,20.97564,0,0,0-.54492-5.07031,13.471,13.471,0,0,0-1.79932-4.14356,14.71186,14.71186,0,0,0-6.48779-5.561,23.91659,23.91659,0,0,0-9.5957-1.79883,30.43929,30.43929,0,0,0-5.12451.436,22.56519,22.56519,0,0,0-4.47071,1.41748,14.16643,14.16643,0,0,0-6.43359,5.50635,17.23755,17.23755,0,0,0-2.28955,9.21387,19.49468,19.49468,0,0,0,.59961,4.90674,12.86909,12.86909,0,0,0,1.79931,4.03466,14.04529,14.04529,0,0,0,6.4878,5.23389A24.35789,24.35789,0,0,0,76.2959,280.84668Z"/><path class="cls-1" d="M139.64062,279.75635v4.08886H106.71094V245.24512h4.36133v34.51123Z"/><path class="cls-1" d="M180.57959,279.75635v4.08886H147.64941V245.24512h4.36182v34.51123Z"/><path class="cls-1" d="M192.84082,279.97412h32.8208v3.87109h-37.019V245.24512H224.626v3.7622H192.84082v14.06592h26.82373V266.835H192.84082Z"/><path class="cls-1" d="M271.125,269.61572h4.63428a18.026,18.026,0,0,1-1.3628,4.19776,16.40575,16.40575,0,0,1-2.34472,3.70752,18.76774,18.76774,0,0,1-7.46924,5.39746,29.33268,29.33268,0,0,1-11.33984,1.9624q-10.79517,0-16.84668-5.07031c-4.08887-3.37989-6.106-8.28662-6.106-14.72022v-.10888a22.30147,22.30147,0,0,1,.76318-5.88819,16.61075,16.61075,0,0,1,2.23535-5.01562,19.64992,19.64992,0,0,1,8.28663-7.14209,27.93079,27.93079,0,0,1,12.2124-2.50782,32.86819,32.86819,0,0,1,5.23388.38135,26.9206,26.9206,0,0,1,4.79786,1.25391,19.40107,19.40107,0,0,1,7.57812,4.79785,16.54157,16.54157,0,0,1,4.08936,8.01416h-4.57959a12.50527,12.50527,0,0,0-5.561-7.7959c-2.88965-1.79931-6.76074-2.72607-11.55859-2.72607a28.37777,28.37777,0,0,0-5.397.49072,21.41791,21.41791,0,0,0-4.689,1.47168,14.81225,14.81225,0,0,0-6.59668,5.61572,16.46234,16.46234,0,0,0-2.39893,9.0503v.05468c0,5.07032,1.63526,8.94092,4.85206,11.72168,3.21679,2.78028,7.85107,4.14356,13.90283,4.14356a28.86312,28.86312,0,0,0,5.01562-.38184,22.37393,22.37393,0,0,0,4.08887-1.145,14.92794,14.92794,0,0,0,5.7793-4.08887A14.15386,14.15386,0,0,0,271.125,269.61572Z"/><path class="cls-1" d="M315.38818,245.24512v3.7622h-16.792v34.83789h-4.4707V249.00732H278.09668v-3.7622Z"/><path class="cls-1" d="M328.30273,245.24512v38.60009h-4.14257V245.24512Z"/><path class="cls-1" d="M359.97656,284.88086a31.39606,31.39606,0,0,1-6.10547-.54492,28.77317,28.77317,0,0,1-5.45214-1.63574,18.45128,18.45128,0,0,1-8.17774-6.59668,19.23008,19.23008,0,0,1-2.999-11.12207v-.10889a23.67037,23.67037,0,0,1,.76367-6.10645,16.32443,16.32443,0,0,1,2.23535-5.07031A19.52659,19.52659,0,0,1,348.419,246.772a27.1997,27.1997,0,0,1,11.55761-2.34424,30.273,30.273,0,0,1,9.05078,1.30811,21.47789,21.47789,0,0,1,7.30567,3.92578,17.14585,17.14585,0,0,1,4.85156,6.37842,21.44508,21.44508,0,0,1,1.74512,8.83252v.10889a20.56738,20.56738,0,0,1-1.74512,8.72314,16.85673,16.85673,0,0,1-4.96094,6.21533,20.3,20.3,0,0,1-7.251,3.707A29.90147,29.90147,0,0,1,359.97656,284.88086Zm0-4.03418a28.97952,28.97952,0,0,0,4.96192-.436,23.43684,23.43684,0,0,0,4.4707-1.1997,14.16467,14.16467,0,0,0,6.59668-5.1792,15.43333,15.43333,0,0,0,2.45312-9.05029v-.05469a20.95119,20.95119,0,0,0-.54492-5.07031,13.46,13.46,0,0,0-1.7998-4.14356,14.71059,14.71059,0,0,0-6.48731-5.561,23.91327,23.91327,0,0,0-9.5957-1.79883,30.44523,30.44523,0,0,0-5.125.436,22.57537,22.57537,0,0,0-4.4707,1.41748,14.16393,14.16393,0,0,0-6.43262,5.50635,17.23761,17.23761,0,0,0-2.29,9.21387,19.49468,19.49468,0,0,0,.59961,4.90674,12.8795,12.8795,0,0,0,1.79883,4.03466,14.049,14.049,0,0,0,6.48828,5.23389A24.35537,24.35537,0,0,0,359.97656,280.84668Z"/><path class="cls-1" d="M425.88477,283.84521,397.207,253.42334l-2.61621-2.88965v33.31152h-4.19824V245.24512h4.5791l28.02344,29.65869,2.72558,3.05322V245.24512H429.919v38.60009Z"/><path class="cls-1" d="M459.73438,284.93555a53.22685,53.22685,0,0,1-6.87012-.38135,28.542,28.542,0,0,1-5.50586-1.19971,14.23115,14.23115,0,0,1-7.19727-4.85205,17.36046,17.36046,0,0,1-3.10742-8.28711h4.68848c.5459,3.98,2.23535,6.81494,5.125,8.396q4.33448,2.45361,12.9209,2.45361c5.28906,0,9.16015-.6543,11.5039-2.01758a6.228,6.228,0,0,0,3.48926-5.66992,7.19588,7.19588,0,0,0-.43555-2.5625,4.7507,4.7507,0,0,0-1.36328-1.74463,12.67989,12.67989,0,0,0-5.66992-1.9624c-2.5625-.38184-5.88867-.6543-9.97754-.92725-2.0166-.16357-3.87109-.32714-5.56055-.59961a43.60682,43.60682,0,0,1-4.58007-.81787,12.19424,12.19424,0,0,1-6.10645-3.10742,7.88794,7.88794,0,0,1-2.07129-5.7793,9.52473,9.52473,0,0,1,4.63379-8.28662q4.58056-3.10766,13.90234-3.10791,9.56837,0,14.88477,3.27149a12.97753,12.97753,0,0,1,6.21484,9.54053H474.127a8.7573,8.7573,0,0,0-4.96093-6.92383c-2.88965-1.47217-6.81543-2.18067-11.72168-2.18067-4.85254,0-8.39649.6543-10.63184,1.90821a6.218,6.218,0,0,0-3.43457,5.66992,5.11444,5.11444,0,0,0,.38184,2.12646,5.558,5.558,0,0,0,1.14453,1.63526,10.89555,10.89555,0,0,0,4.96191,1.96289,83.59026,83.59026,0,0,0,9.15918,1.03564c2.23535.16358,4.30664.32715,6.16016.54541,1.85449.21826,3.54394.49072,5.0166.81787a13.741,13.741,0,0,1,6.70508,3.10743,8.25673,8.25673,0,0,1,2.18164,6.16064,9.87767,9.87767,0,0,1-4.68946,8.66894C471.2373,283.8999,466.33105,284.93555,459.73438,284.93555Z"/><path class="cls-1" d="M509.55664,245.24512v38.60009h-4.14355V245.24512Z"/><path class="cls-1" d="M554.31543,283.84521,525.6377,253.42334l-2.61622-2.88965v33.31152h-4.19824V245.24512h4.5791l28.02344,29.65869,2.72559,3.05322V245.24512h4.19824v38.60009Z"/><path class="cls-1" d="M17.84961,343.31787a14.87445,14.87445,0,0,0,6.76709,1.55176,14.798,14.798,0,0,0,5.92725-1.501,23.36017,23.36017,0,0,0,5.41894-3.71386q2.59423-2.34009,5.291-5.0879l4.83349,2.28956a35.32086,35.32086,0,0,1-5.18945,4.0957,33.70129,33.70129,0,0,1-5.08789,2.69678,24.77714,24.77714,0,0,1-4.88428,1.50048,24.33344,24.33344,0,0,1-4.5791.458,25.20419,25.20419,0,0,1-9.26025-1.65332,22.77248,22.77248,0,0,1-7.25-4.45215,20.07492,20.07492,0,0,1-4.70606-6.48681,18.62944,18.62944,0,0,1-1.6792-7.81006,18.01516,18.01516,0,0,1,1.88233-8.2168,20.34477,20.34477,0,0,1,5.0625-6.436,23.73743,23.73743,0,0,1,7.30127-4.19776,25.089,25.089,0,0,1,8.64941-1.501,25.8207,25.8207,0,0,1,4.5791.43261,24.48919,24.48919,0,0,1,4.88428,1.4502,32.15233,32.15233,0,0,1,5.08789,2.6709,35.35375,35.35375,0,0,1,5.18945,4.0957l-4.83349,2.28955q-2.69679-2.74731-5.21485-5.03711a22.13465,22.13465,0,0,0-5.26611-3.6123,14.84634,14.84634,0,0,0-5.90186-1.44971,16.96924,16.96924,0,0,0-7.02148,1.44971,15.1999,15.1999,0,0,0-7.32617,6.46191q-2.69751,4.52856-2.69678,11.54932,0,7.021,2.74756,11.5747A16.10087,16.10087,0,0,0,17.84961,343.31787Z"/><path class="cls-1" d="M73.00244,304.85352a24.99119,24.99119,0,0,1,9.23438,1.6538,22.80729,22.80729,0,0,1,7.19922,4.42627,19.99864,19.99864,0,0,1,4.68066,6.46192,19.001,19.001,0,0,1,0,15.61963A20.26216,20.26216,0,0,1,89.436,339.502a22.19819,22.19819,0,0,1-7.19922,4.42676,27.00619,27.00619,0,0,1-18.46924,0A22.48732,22.48732,0,0,1,56.543,339.502a20.07492,20.07492,0,0,1-4.70606-6.48681,19.001,19.001,0,0,1,0-15.61963,19.81631,19.81631,0,0,1,4.70606-6.46192,23.1104,23.1104,0,0,1,7.22461-4.42627A24.99191,24.99191,0,0,1,73.00244,304.85352Zm0,40.0415a24.48191,24.48191,0,0,0,7.40283-1.06836,14.53363,14.53363,0,0,0,5.82569-3.43408,15.7947,15.7947,0,0,0,3.79-6.10547,26.91984,26.91984,0,0,0,1.34863-9.082,24.935,24.935,0,0,0-1.34863-8.57276,16.82073,16.82073,0,0,0-3.79-6.15673,15.74963,15.74963,0,0,0-5.82569-3.71387,22.681,22.681,0,0,0-14.83154,0,15.54263,15.54263,0,0,0-5.77441,3.71387,16.992,16.992,0,0,0-3.76514,6.15673,27.93249,27.93249,0,0,0,0,17.146,16.97754,16.97754,0,0,0,3.76514,6.15625,15.52572,15.52572,0,0,0,5.77441,3.71436A21.21169,21.21169,0,0,0,73.00244,344.895Z"/><path class="cls-1" d="M138.07568,344.28467H99.9165V306.12549h4.93506q-.81446,4.63036-1.62793,10.43017-.71337,4.98707-1.45019,11.855-.73828,6.86867-1.29737,15.26368,8.395-.55958,15.28907-1.2212,6.89355-.66063,11.88037-1.272,5.8-.71191,10.43017-1.47558Z"/><path class="cls-1" d="M180.35547,344.28467H142.19629V306.12549h4.93506q-.81446,4.63036-1.62793,10.43017-.71339,4.98707-1.4502,11.855-.73827,6.86867-1.29736,15.26368,8.395-.55958,15.28906-1.2212,6.89355-.66063,11.88037-1.272,5.80005-.71191,10.43018-1.47558Z"/><path class="cls-1" d="M230.21582,306.37988l-14.34766,13.63574,14.34766,24.269h-.86475q-2.28954-3.51049-4.83349-7.37744-2.18849-3.25562-4.88428-7.27539-2.69751-4.0188-5.44385-7.98829L189.564,344.28467h-5.08789l21.52149-36.582q-4.834.561-8.77637,1.09424-3.94335.53393-6.79248.94091-3.30762.50977-5.95264.9668v-4.5791h45.73975Zm-38.66748,32.20655,21.67432-18.36719q-2.13721-3.05274-4.07032-5.72412-1.93433-2.67114-3.46-4.6045Zm37.49756-31.90137q-5.699.052-10.68457.229-4.98707.17944-9.81983.53418l6.5127,11.24463Z"/><path class="cls-1" d="M267.96777,321.084a13.60341,13.60341,0,0,1,2.28955,1.80616,12.28555,12.28555,0,0,1,1.85694,2.31494,12.914,12.914,0,0,1,1.272,2.72217,9.35236,9.35236,0,0,1,.4834,2.97656,11.27077,11.27077,0,0,1-1.55176,6.02881,13.1746,13.1746,0,0,1-4.0957,4.17236,18.14393,18.14393,0,0,1-5.80029,2.4165,29.114,29.114,0,0,1-6.665.76319H234.33691V306.12549h20.70752a17.72254,17.72254,0,0,1,5.46973,1.01758,14.43291,14.43291,0,0,1,4.3501,2.44238,11.213,11.213,0,0,1,2.84912,3.51074,9.23134,9.23134,0,0,1,1.01758,4.27344A9.09631,9.09631,0,0,1,267.96777,321.084Zm-33.0205-14.50048q.40722,6.91992,1.01757,12.7705.61085,5.85132,1.17041,10.53223a14.023,14.023,0,0,1,2.56934-5.24072,17.19794,17.19794,0,0,1,4.27393-3.8667,19.62146,19.62146,0,0,1,5.46923-2.3916,23.63907,23.63907,0,0,1,6.20752-.814,22.806,22.806,0,0,1,9.00537,1.73,7.98422,7.98422,0,0,0,.2544-1.93359,9.28676,9.28676,0,0,0-.89063-4.019,10.80552,10.80552,0,0,0-2.4165-3.30713,12.13228,12.13228,0,0,0-3.56152-2.28955,11.5019,11.5019,0,0,0-4.27393-.916Zm18.36718,36.938a24.52307,24.52307,0,0,0,6.81787-1.09375,17.56658,17.56658,0,0,0,5.3169-2.67138,12.50123,12.50123,0,0,0,3.46-3.94287,10.01877,10.01877,0,0,0,1.24658-4.90967,9.04077,9.04077,0,0,0-1.62842-5.18994,2.35281,2.35281,0,0,0-1.70459-1.06836,2.43163,2.43163,0,0,0-1.95849.55957,14.48821,14.48821,0,0,1-4.40137,2.49316,15.738,15.738,0,0,1-5.41846.916,15.43911,15.43911,0,0,1-7.27539-1.70459,12.1463,12.1463,0,0,1-4.93554-4.50293,11.05706,11.05706,0,0,0-2.13672,1.959,14.85559,14.85559,0,0,0-1.6792,2.4419,13.48942,13.48942,0,0,0-1.11914,2.67138,10.69146,10.69146,0,0,0-.458,2.59473q.61084,4.63036,1.09375,7.63184.48341,3.00292.63623,4.01953Zm10.63379-22.03027a19.60394,19.60394,0,0,0-4.5791-1.832,21.425,21.425,0,0,0-11.04053.12744,18.48878,18.48878,0,0,0-4.83349,2.16211,10.71958,10.71958,0,0,0,4.01953,4.19775,11.26014,11.26014,0,0,0,5.95264,1.60254,11.78865,11.78865,0,0,0,6.28369-1.73A10.86285,10.86285,0,0,0,263.94824,321.49121Z"/><path class="cls-1" d="M300.83545,304.85352a24.99114,24.99114,0,0,1,9.23437,1.6538,22.80718,22.80718,0,0,1,7.19922,4.42627,19.99853,19.99853,0,0,1,4.68067,6.46192,19.001,19.001,0,0,1,0,15.61963A20.262,20.262,0,0,1,317.269,339.502a22.19808,22.19808,0,0,1-7.19922,4.42676,27.00616,27.00616,0,0,1-18.46923,0A22.48722,22.48722,0,0,1,284.376,339.502a20.07492,20.07492,0,0,1-4.70606-6.48681,19.001,19.001,0,0,1,0-15.61963,19.81631,19.81631,0,0,1,4.70606-6.46192,23.11029,23.11029,0,0,1,7.22461-4.42627A24.99191,24.99191,0,0,1,300.83545,304.85352Zm0,40.0415a24.482,24.482,0,0,0,7.40283-1.06836,14.53352,14.53352,0,0,0,5.82568-3.43408,15.79459,15.79459,0,0,0,3.79-6.10547,26.91957,26.91957,0,0,0,1.34864-9.082,24.93471,24.93471,0,0,0-1.34864-8.57276,16.82059,16.82059,0,0,0-3.79-6.15673,15.74951,15.74951,0,0,0-5.82568-3.71387,22.681,22.681,0,0,0-14.83154,0,15.54275,15.54275,0,0,0-5.77442,3.71387,16.992,16.992,0,0,0-3.76513,6.15673,27.93229,27.93229,0,0,0,0,17.146,16.97752,16.97752,0,0,0,3.76513,6.15625,15.52584,15.52584,0,0,0,5.77442,3.71436A21.21165,21.21165,0,0,0,300.83545,344.895Z"/><path class="cls-1" d="M361.0752,344.28467l-7.78418-8.95459a7.3708,7.3708,0,0,0-2.6709-1.9336,7.058,7.058,0,0,0-3.23047-.55957,24.1296,24.1296,0,0,1-4.8086-.27978,23.18373,23.18373,0,0,1-4.68066-1.24658,23.4756,23.4756,0,0,1-4.32519-2.1875,18.90764,18.90764,0,0,1-3.73926-3.15479q.55956,4.325,1.043,7.68262.48339,3.35816.89062,5.74951.40724,2.79858.76367,4.88428H327.75V306.12549h18.31641a24.41932,24.41932,0,0,1,7.42773,1.06836,19.38486,19.38486,0,0,1,5.77539,2.875,13.55119,13.55119,0,0,1,3.76465,4.19726,10.20654,10.20654,0,0,1,1.34863,5.08789,10.3817,10.3817,0,0,1-1.73047,5.8003,14.82006,14.82006,0,0,1-4.68066,4.47754,22.26053,22.26053,0,0,1-4.52832,2.13671q3.40869,3.30762,6.00391,5.64747,2.59569,2.34081,4.376,3.86669,2.03467,1.782,3.56153,3.002Zm-31.84961-26.71143a16.78324,16.78324,0,0,0,2.6455,6.97071,17.27445,17.27445,0,0,0,4.88477,4.85888,16.91437,16.91437,0,0,0,13.2793,2.21289l-21.77637-24.93066q.10107,2.90038.30566,5.44433Q328.76661,314.67382,329.22559,317.57324Zm16.84082-10.37939q-2.49317-.15234-5.16407-.2544-2.67187-.10107-5.03711-.17773-2.36571-.07617-4.19726-.10205-1.83105-.0249-2.74805-.02539,7.22462,7.78491,13.07617,13.7373,5.85059,5.95313,10.48145,10.43018.457-.20289.915-.40674.45849-.20288.916-.458a12.57819,12.57819,0,0,0,4.65528-4.52832,11.79725,11.79725,0,0,0,1.60254-6.05469,11.24231,11.24231,0,0,0-.94043-4.5791,10.63836,10.63836,0,0,0-2.77344-3.73926,14.60512,14.60512,0,0,0-4.55371-2.6206A21.30571,21.30571,0,0,0,346.06641,307.19385Z"/><path class="cls-1" d="M417.19531,306.37988l-14.34765,13.63574,14.34765,24.269h-.86523q-2.28956-3.51049-4.833-7.37744-2.18847-3.25562-4.88477-7.27539-2.69678-4.0188-5.44433-7.98829l-24.625,22.64112h-5.08789l21.52148-36.582q-4.834.561-8.77636,1.09424-3.94337.53393-6.792.94091-3.30908.50977-5.95312.9668v-4.5791h45.74023Zm-38.668,32.20655,21.67383-18.36719q-2.13574-3.05274-4.07031-5.72412-1.93359-2.67114-3.459-4.6045Zm37.49707-31.90137q-5.69823.052-10.68457.229-4.98633.17944-9.81933.53418l6.51269,11.24463Z"/><path class="cls-1" d="M467.25879,310.70459a20.76125,20.76125,0,0,0-4.32422-2.1875,25.61187,25.61187,0,0,0-4.98633-1.22119,5.82578,5.82578,0,0,0-3.3584.4834,7.00846,7.00846,0,0,0-2.69629,2.26416l-25.083,34.24121h-5.5459q2.9502-2.9004,7.47949-7.937,3.86572-4.32423,9.9209-11.44776,6.0542-7.12279,14.60254-17.8584a38.74126,38.74126,0,0,0-4.29981.17823q-2.6704.22851-5.69824.63574-3.02782.408-6.10547.916-3.07909.509-5.57129.94092-2.49316.43287-5.59668,1.043v-4.62988h41.2627Z"/><path class="cls-1" d="M507.96191,306.12549v4.5791a8.41522,8.41522,0,0,0-1.60253-.68652,43.95873,43.95873,0,0,0-4.65528-1.4502q-2.90038-.76319-6.58887-1.34814a37.3696,37.3696,0,0,0-7.40332-.43262q.45851,7.021,1.06836,13.10107.61085,6.08057,1.19629,10.8628.583,4.7827,1.09375,8.03857.50831,3.25708.7627,4.68115a52.15524,52.15524,0,0,0,6.28418-.83935q2.92383-.58447,5.11328-1.24658a48.07386,48.07386,0,0,0,4.73144-1.6792v4.5791H469.80273v-4.5791a44.28437,44.28437,0,0,0,4.98633,1.78076,54.6085,54.6085,0,0,0,5.49512,1.32275,45.9378,45.9378,0,0,0,6.81738.76319V306.83789a44.51613,44.51613,0,0,0-6.71582.76318q-3.104.61085-5.49512,1.32276a46.60717,46.60717,0,0,0-5.08789,1.78076v-4.5791Z"/><path class="cls-1" d="M533.90918,304.85352a24.99479,24.99479,0,0,1,9.23437,1.6538,22.81258,22.81258,0,0,1,7.19922,4.42627,19.99853,19.99853,0,0,1,4.68067,6.46192,18.996,18.996,0,0,1,0,15.61963,20.262,20.262,0,0,1-4.68067,6.48681,22.20318,22.20318,0,0,1-7.19922,4.42676,27.0048,27.0048,0,0,1-18.46875,0,22.482,22.482,0,0,1-7.2246-4.42676,20.07786,20.07786,0,0,1-4.707-6.48681,19.006,19.006,0,0,1,0-15.61963,19.81921,19.81921,0,0,1,4.707-6.46192,23.10474,23.10474,0,0,1,7.2246-4.42627A24.98754,24.98754,0,0,1,533.90918,304.85352Zm0,40.0415a24.47641,24.47641,0,0,0,7.40234-1.06836,14.52882,14.52882,0,0,0,5.82618-3.43408,15.80046,15.80046,0,0,0,3.79-6.10547,26.91957,26.91957,0,0,0,1.34864-9.082,24.93471,24.93471,0,0,0-1.34864-8.57276,16.82723,16.82723,0,0,0-3.79-6.15673,15.7436,15.7436,0,0,0-5.82618-3.71387,22.67957,22.67957,0,0,0-14.83105,0,15.54275,15.54275,0,0,0-5.77442,3.71387,16.97785,16.97785,0,0,0-3.76464,6.15673,27.92263,27.92263,0,0,0,0,17.146,16.96341,16.96341,0,0,0,3.76464,6.15625,15.52584,15.52584,0,0,0,5.77442,3.71436A21.21555,21.21555,0,0,0,533.90918,344.895Z"/><path class="cls-1" d="M597.40527,306.12549v38.15918h-.50879q-4.57909-4.73145-9.97265-10.125-2.28955-2.28955-5.03711-4.98584-2.74659-2.69606-5.8252-5.67334-3.0791-2.97584-6.46191-6.13086-3.38379-3.15381-6.94434-6.46143.55811,7.582,1.27149,13.66114.71192,6.07983,1.32324,10.50634.71191,5.13941,1.47559,9.209H561.79V306.12549h.50879l34.49609,37.24316q-.561-8.34375-1.27246-15.16162-.71337-6.81738-1.4248-11.75293-.81445-5.8-1.62793-10.32861Z"/><path class="cls-1" d="M55.04443,404.68408H50.84668l-14.7749-33.42041L19.49805,404.68408H15.24512L2.97852,366.084h4.416l10.57666,33.31153L34.436,366.084H37.98l14.88379,33.58448L66.00293,366.084h4.416Z"/><path class="cls-1" d="M83.05859,366.084v38.6001H78.91553V366.084Z"/><path class="cls-1" d="M129.17969,366.084v3.76221h-16.792v34.83789H107.917V369.84619H91.88818V366.084Z"/><path class="cls-1" d="M175.625,404.68408h-4.30713v-17.228H140.78662v17.228h-4.30713V366.084h4.30713V383.3125h30.53125V366.084H175.625Z"/><path class="cls-1" d="M224.19238,405.77441a53.20116,53.20116,0,0,1-6.86914-.38134,28.54461,28.54461,0,0,1-5.50683-1.19971,14.22623,14.22623,0,0,1-7.19629-4.852,17.35579,17.35579,0,0,1-3.10791-8.28711h4.689c.54492,3.98,2.23535,6.81494,5.12451,8.396q4.33447,2.45361,12.92139,2.45361c5.28857,0,9.15918-.6543,11.50342-2.01758a6.228,6.228,0,0,0,3.48926-5.66992,7.19534,7.19534,0,0,0-.436-2.5625,4.74927,4.74927,0,0,0-1.36279-1.74463,12.68214,12.68214,0,0,0-5.67041-1.9624c-2.562-.38184-5.8877-.6543-9.977-.92725-2.01709-.16357-3.87061-.32715-5.561-.59961a43.61955,43.61955,0,0,1-4.57959-.81787,12.18833,12.18833,0,0,1-6.106-3.10742,7.88411,7.88411,0,0,1-2.07178-5.7793,9.52414,9.52414,0,0,1,4.63428-8.28662q4.5791-3.10767,13.90234-3.10791,9.56835,0,14.88379,3.27149a12.97541,12.97541,0,0,1,6.21533,9.54052h-4.5249a8.76,8.76,0,0,0-4.96143-6.92383c-2.88965-1.47216-6.81494-2.18066-11.72168-2.18066-4.85254,0-8.396.6543-10.63135,1.9082a6.21678,6.21678,0,0,0-3.435,5.66993,5.11463,5.11463,0,0,0,.38183,2.12646,5.55056,5.55056,0,0,0,1.145,1.63525,10.891,10.891,0,0,0,4.96094,1.96289,83.59859,83.59859,0,0,0,9.15967,1.03565c2.23535.16357,4.30713.32715,6.16064.54541s3.54395.49072,5.01563.81787a13.745,13.745,0,0,1,6.70605,3.10742,8.25823,8.25823,0,0,1,2.18067,6.16065,9.87891,9.87891,0,0,1-4.68848,8.66894C235.69629,404.73877,230.78955,405.77441,224.19238,405.77441Z"/><path class="cls-1" d="M255.37158,366.084v38.6001h-4.14306V366.084Z"/><path class="cls-1" d="M306.94482,404.68408h-5.50634l-16.30127-17.71875-16.95557,17.71875h-5.7793l19.89991-20.44482L265.292,366.084h5.50635l14.44775,15.64747,14.666-15.64747h5.561l-17.44628,18.10059Z"/><path class="cls-1" d="M350.55273,405.77441a53.2269,53.2269,0,0,1-6.87011-.38134,28.542,28.542,0,0,1-5.50586-1.19971,14.22412,14.22412,0,0,1-7.19629-4.852,17.35107,17.35107,0,0,1-3.1084-8.28711h4.68848c.5459,3.98,2.23535,6.81494,5.125,8.396q4.33448,2.45361,12.9209,2.45361c5.28906,0,9.16015-.6543,11.5039-2.01758a6.228,6.228,0,0,0,3.48926-5.66992,7.1958,7.1958,0,0,0-.43555-2.5625,4.75054,4.75054,0,0,0-1.36328-1.74463,12.67977,12.67977,0,0,0-5.66992-1.9624c-2.5625-.38184-5.88867-.6543-9.97754-.92725-2.0166-.16357-3.87109-.32715-5.56055-.59961a43.60682,43.60682,0,0,1-4.58007-.81787,12.19432,12.19432,0,0,1-6.10645-3.10742,7.88392,7.88392,0,0,1-2.07129-5.7793,9.52473,9.52473,0,0,1,4.63379-8.28662q4.58057-3.10767,13.90234-3.10791,9.56837,0,14.88477,3.27149a12.97753,12.97753,0,0,1,6.21484,9.54052h-4.52539a8.75732,8.75732,0,0,0-4.96093-6.92383c-2.88965-1.47216-6.81543-2.18066-11.72168-2.18066-4.85254,0-8.39649.6543-10.63184,1.9082a6.21805,6.21805,0,0,0-3.43457,5.66993,5.11463,5.11463,0,0,0,.38183,2.12646,5.558,5.558,0,0,0,1.14454,1.63525,10.89544,10.89544,0,0,0,4.96191,1.96289,83.5874,83.5874,0,0,0,9.15918,1.03565c2.23535.16357,4.30664.32715,6.16016.54541,1.85449.21826,3.54394.49072,5.0166.81787a13.74114,13.74114,0,0,1,6.70508,3.10742,8.25677,8.25677,0,0,1,2.18164,6.16065,9.87769,9.87769,0,0,1-4.68946,8.66894C362.05566,404.73877,357.14941,405.77441,350.55273,405.77441Z"/><path class="cls-1" d="M426.71094,404.68408H422.5127l-14.77442-33.42041-16.57422,33.42041h-4.25293l-12.2666-38.6001h4.416l10.57715,33.31153L406.10254,366.084h3.54394l14.88379,33.58448L437.669,366.084h4.416Z"/><path class="cls-1" d="M452.98047,400.813h32.82031v3.87109H448.78223V366.084h35.98242v3.76221H452.98047v14.06592h26.82324v3.76172H452.98047Z"/><path class="cls-1" d="M511.85547,404.68408H494.02734V366.084h16.95508a37.56277,37.56277,0,0,1,9.10547,1.03614,21.76272,21.76272,0,0,1,7.46875,3.38037,15.10835,15.10835,0,0,1,5.01563,5.88769,19.94232,19.94232,0,0,1,1.7998,8.83252v.10889a25.24769,25.24769,0,0,1-.709,6.32422,15.32432,15.32432,0,0,1-2.23536,4.96142,16.09993,16.09993,0,0,1-7.96,6.16065A33.68256,33.68256,0,0,1,511.85547,404.68408Zm-.98145-34.78369h-12.54V400.813h13.35743a30.61121,30.61121,0,0,0,5.125-.38135,21.81789,21.81789,0,0,0,4.416-1.03613,13.11678,13.11678,0,0,0,6.4336-4.85205c1.52636-2.23535,2.28906-5.34278,2.28906-9.26856v-.0542a20.981,20.981,0,0,0-.59961-5.125,13.01275,13.01275,0,0,0-1.85352-3.92529,13.42416,13.42416,0,0,0-6.75976-4.79785A30.53619,30.53619,0,0,0,510.874,369.90039Z"/><path class="cls-1" d="M546.41309,366.084v38.6001h-4.14356V366.084Z"/><path class="cls-1" d="M577.32422,405.77441a53.22716,53.22716,0,0,1-6.87012-.38134,28.54219,28.54219,0,0,1-5.50586-1.19971,14.2312,14.2312,0,0,1-7.19726-4.852,17.36051,17.36051,0,0,1-3.10743-8.28711H559.332c.5459,3.98,2.23535,6.81494,5.125,8.396q4.33447,2.45361,12.9209,2.45361c5.28906,0,9.16016-.6543,11.50391-2.01758a6.228,6.228,0,0,0,3.48925-5.66992,7.19581,7.19581,0,0,0-.43554-2.5625,4.75054,4.75054,0,0,0-1.36328-1.74463,12.67987,12.67987,0,0,0-5.66993-1.9624c-2.5625-.38184-5.88867-.6543-9.97754-.92725-2.0166-.16357-3.87109-.32715-5.56054-.59961a43.607,43.607,0,0,1-4.58008-.81787,12.19436,12.19436,0,0,1-6.10645-3.10742,7.88793,7.88793,0,0,1-2.07128-5.7793,9.52472,9.52472,0,0,1,4.63378-8.28662q4.58058-3.10767,13.90235-3.10791,9.56835,0,14.88476,3.27149a12.97754,12.97754,0,0,1,6.21485,9.54052H591.7168a8.75733,8.75733,0,0,0-4.96094-6.92383c-2.88965-1.47216-6.81543-2.18066-11.72168-2.18066-4.85254,0-8.39648.6543-10.63184,1.9082a6.21805,6.21805,0,0,0-3.43457,5.66993,5.11463,5.11463,0,0,0,.38184,2.12646,5.558,5.558,0,0,0,1.14453,1.63525,10.89549,10.89549,0,0,0,4.96191,1.96289,83.5877,83.5877,0,0,0,9.15918,1.03565c2.23536.16357,4.30665.32715,6.16016.54541,1.85449.21826,3.54395.49072,5.0166.81787a13.74109,13.74109,0,0,1,6.70508,3.10742,8.25673,8.25673,0,0,1,2.18164,6.16065,9.87768,9.87768,0,0,1-4.68945,8.66894C588.82715,404.73877,583.9209,405.77441,577.32422,405.77441Z"/><path class="cls-1" d="M643.99512,404.68408h-4.30664v-17.228H609.15723v17.228h-4.30664V366.084h4.30664V383.3125h30.53125V366.084h4.30664Z"/><path class="cls-1" d="M635.54,465.08447h-3.707l-.16309-10.95849a15.65709,15.65709,0,0,1-1.09082,3.05322,17.59382,17.59382,0,0,1-1.79883,2.835,15.95893,15.95893,0,0,1-6.21582,4.416,26.817,26.817,0,0,1-10.41308,1.68994,32.33636,32.33636,0,0,1-6.26953-.54492,26.04364,26.04364,0,0,1-5.39746-1.63575,16.69491,16.69491,0,0,1-7.57813-6.65136,20.40683,20.40683,0,0,1-2.67187-10.9585v-.0542a24.41969,24.41969,0,0,1,.76367-6.16113,17.6035,17.6035,0,0,1,2.18066-5.07031,18.64786,18.64786,0,0,1,8.17774-6.97852,28.72005,28.72005,0,0,1,11.99414-2.39844,43.7938,43.7938,0,0,1,5.45214.32666,33.22532,33.22532,0,0,1,4.85254,1.09082,18.25377,18.25377,0,0,1,7.63282,4.57959,16.18485,16.18485,0,0,1,4.14355,8.23242h-4.79785a11.7307,11.7307,0,0,0-5.7793-7.90527A24.1844,24.1844,0,0,0,613.46,429.59229a32.62636,32.62636,0,0,0-5.34277.436,23.03082,23.03082,0,0,0-4.63379,1.41748,14.41365,14.41365,0,0,0-6.48828,5.561,16.90105,16.90105,0,0,0-2.34473,9.32275c0,5.28857,1.58106,9.26855,4.79785,11.93994s7.63281,4.03467,13.35742,4.03467a28.18044,28.18044,0,0,0,8.61426-1.145,15.53468,15.53468,0,0,0,5.61524-2.88965,12.21957,12.21957,0,0,0,3.21679-4.03467,12.94894,12.94894,0,0,0,1.14551-4.36132H612.64258v-3.76172H635.54Z"/><path class="cls-1" d="M578.68164,465.08447,550.00391,434.6626,547.3877,431.773v33.31152h-4.19825V426.48438h4.5791L575.792,456.14307l2.72559,3.05322V426.48438h4.19824v38.60009Z"/><path class="cls-1" d="M532.88965,426.48438v38.60009h-4.14356V426.48438Z"/><path class="cls-1" d="M520.24609,465.08447h-5.34277l-17.501-22.08056-14.01172,10.63134v11.44922H479.084V426.48438h4.30664v22.78955l29.49512-22.78955h6.10645l-18.31836,14.23Z"/><path class="cls-1" d="M450.25391,450.146h-16.6836v14.93847h-4.30664V426.48438h20.6084c6.48731,0,11.12207.92724,13.957,2.72607,2.835,1.79932,4.252,4.74316,4.252,8.72314q0,4.66187-2.45312,7.03321c-1.63574,1.63574-4.08887,2.72607-7.30566,3.32568,3.21679.59961,5.50683,1.85352,6.81543,3.70752,1.2539,1.85352,1.9082,4.63379,1.9082,8.28662v2.45361a4.05277,4.05277,0,0,0,.21777,1.41748,1.46683,1.46683,0,0,0,.59961.92676H463.1748a1.19581,1.19581,0,0,1-.49121-.92676,6.11343,6.11343,0,0,1-.16308-1.47216v-2.34424a21.99335,21.99335,0,0,0-.27246-3.43457,8.22562,8.22562,0,0,0-.81836-2.61719,6.65179,6.65179,0,0,0-3.81641-3.2168A23.95842,23.95842,0,0,0,450.25391,450.146Zm-16.6836-3.76172h16.0293c1.417,0,2.72559-.05469,3.97949-.16358a21.09918,21.09918,0,0,0,3.43457-.436,9.87155,9.87155,0,0,0,4.96192-2.39893,6.83662,6.83662,0,0,0,1.74414-5.01611v-.27246c0-2.94385-1.08985-5.01563-3.3252-6.16065s-5.72461-1.68994-10.57715-1.68994H433.57031Z"/><path class="cls-1" d="M398.90137,466.12012a31.39592,31.39592,0,0,1-6.10547-.54492,28.77255,28.77255,0,0,1-5.45215-1.63575,18.45118,18.45118,0,0,1-8.17773-6.59668,19.23,19.23,0,0,1-2.999-11.12207v-.10888a23.67031,23.67031,0,0,1,.76367-6.10645,16.32445,16.32445,0,0,1,2.23536-5.07031,19.52649,19.52649,0,0,1,8.17773-6.92383,27.19975,27.19975,0,0,1,11.55762-2.34424,30.27307,30.27307,0,0,1,9.05078,1.30811,21.47784,21.47784,0,0,1,7.30566,3.92578,17.146,17.146,0,0,1,4.85157,6.37842,21.44521,21.44521,0,0,1,1.74511,8.83252v.10888a20.56758,20.56758,0,0,1-1.74511,8.72315,16.85684,16.85684,0,0,1-4.96094,6.21533,20.30008,20.30008,0,0,1-7.251,3.707A29.90141,29.90141,0,0,1,398.90137,466.12012Zm0-4.03418a28.98041,28.98041,0,0,0,4.96191-.436,23.43718,23.43718,0,0,0,4.4707-1.1997,14.16475,14.16475,0,0,0,6.59668-5.1792,15.43327,15.43327,0,0,0,2.45313-9.0503V446.166a20.95182,20.95182,0,0,0-.54492-5.07032,13.46015,13.46015,0,0,0-1.79981-4.14355,14.71058,14.71058,0,0,0-6.4873-5.561,23.91332,23.91332,0,0,0-9.59571-1.79882,30.44541,30.44541,0,0,0-5.125.436,22.57537,22.57537,0,0,0-4.4707,1.41748,14.16392,14.16392,0,0,0-6.43262,5.50635,17.22882,17.22882,0,0,0-2.29,9.21387,19.49507,19.49507,0,0,0,.5996,4.90673,12.87956,12.87956,0,0,0,1.79883,4.03467,14.049,14.049,0,0,0,6.48828,5.23389A24.35546,24.35546,0,0,0,398.90137,462.08594Z"/><path class="cls-1" d="M358.62109,465.08447h-4.19824l-14.77441-33.42041-16.57422,33.42041h-4.25293l-12.2666-38.60009h4.416l10.57666,33.31152,16.46534-33.31152h3.54394l14.88379,33.58447,13.13867-33.58447h4.416Z"/><path class="cls-1" d="M264.856,466.1748a53.20608,53.20608,0,0,1-6.86914-.38134,28.54488,28.54488,0,0,1-5.50684-1.19971,14.22621,14.22621,0,0,1-7.19629-4.85205,17.36081,17.36081,0,0,1-3.10791-8.28711h4.689c.54492,3.98,2.23535,6.81494,5.12451,8.396q4.33447,2.45361,12.92138,2.45361c5.28858,0,9.15918-.6543,11.50342-2.01758a6.228,6.228,0,0,0,3.48926-5.66992,7.19535,7.19535,0,0,0-.436-2.5625,4.7493,4.7493,0,0,0-1.3628-1.74463,12.68221,12.68221,0,0,0-5.67041-1.9624c-2.562-.38184-5.88769-.6543-9.97705-.92725-2.01709-.16357-3.8706-.32715-5.561-.59961a43.61908,43.61908,0,0,1-4.57959-.81787,12.19043,12.19043,0,0,1-6.106-3.10742,7.88415,7.88415,0,0,1-2.07178-5.7793,9.52416,9.52416,0,0,1,4.63428-8.28662q4.57909-3.10767,13.90234-3.10791,9.56836,0,14.88379,3.27149a12.97538,12.97538,0,0,1,6.21533,9.54052H279.249a8.75832,8.75832,0,0,0-4.96093-6.92382c-2.88965-1.47217-6.815-2.18067-11.72168-2.18067-4.85254,0-8.396.6543-10.63135,1.9082A6.21677,6.21677,0,0,0,248.5,437.00684a5.11463,5.11463,0,0,0,.38184,2.12646,5.55038,5.55038,0,0,0,1.145,1.63525,10.891,10.891,0,0,0,4.96093,1.9629,83.60145,83.60145,0,0,0,9.15967,1.03564c2.23535.16357,4.30713.32715,6.16065.54541s3.54394.49072,5.01562.81787a13.74494,13.74494,0,0,1,6.70606,3.10742,8.25826,8.25826,0,0,1,2.18066,6.16065,9.8789,9.8789,0,0,1-4.68848,8.66894C276.35986,465.13916,271.45312,466.1748,264.856,466.1748Z"/><path class="cls-1" d="M214.48486,465.08447H196.65723V426.48438h16.95556a37.55762,37.55762,0,0,1,9.1045,1.03613,21.76509,21.76509,0,0,1,7.46923,3.38037,15.10431,15.10431,0,0,1,5.01563,5.88769,19.93554,19.93554,0,0,1,1.79931,8.83252V445.73a25.2486,25.2486,0,0,1-.70849,6.32422,15.31416,15.31416,0,0,1-2.23535,4.96142,16.09787,16.09787,0,0,1-7.96,6.16065A33.68348,33.68348,0,0,1,214.48486,465.08447Zm-.98144-34.78369H200.96387v30.9126h13.35742a30.60715,30.60715,0,0,0,5.125-.38135,21.8101,21.8101,0,0,0,4.416-1.03613,13.11326,13.11326,0,0,0,6.43311-4.85205c1.52686-2.23535,2.29-5.34278,2.29-9.26856v-.0542a21.00443,21.00443,0,0,0-.59961-5.125,13.037,13.037,0,0,0-1.854-3.92529,13.41928,13.41928,0,0,0-6.76026-4.79785A30.534,30.534,0,0,0,213.50342,430.30078Z"/><path class="cls-1" d="M182.70605,465.08447,154.02881,434.6626l-2.61719-2.88965v33.31152h-4.19775V426.48438h4.57959l28.02295,29.65869,2.72607,3.05322V426.48438h4.19775v38.60009Z"/><path class="cls-1" d="M141.06006,465.08447h-4.74317l-5.83349-11.01318H105.67676l-5.72412,11.01318H95.209l20.44532-38.60009h4.47021Zm-33.5293-14.61133h20.98975L117.94385,430.519Z"/><path class="cls-1" d="M71.395,450.146H54.71191v14.93847H50.40527V426.48438h20.6084c6.48779,0,11.12158.92724,13.957,2.72607,2.835,1.79932,4.25244,4.74316,4.25244,8.72314q0,4.66187-2.45361,7.03321c-1.63525,1.63574-4.08887,2.72607-7.30566,3.32568,3.21679.59961,5.50683,1.85352,6.81494,3.70752,1.2539,1.85352,1.9082,4.63379,1.9082,8.28662v2.45361a4.06432,4.06432,0,0,0,.21826,1.41748,1.46492,1.46492,0,0,0,.59961.92676H84.31641a1.19266,1.19266,0,0,1-.49073-.92676,6.06338,6.06338,0,0,1-.16357-1.47216v-2.34424a21.99335,21.99335,0,0,0-.27246-3.43457,8.22585,8.22585,0,0,0-.81787-2.61719,6.65639,6.65639,0,0,0-3.81641-3.2168A23.96539,23.96539,0,0,0,71.395,450.146Zm-16.68311-3.76172H70.74072c1.41748,0,2.72608-.05469,3.98-.16358a21.11959,21.11959,0,0,0,3.43506-.436,9.868,9.868,0,0,0,4.96094-2.39893,6.83478,6.83478,0,0,0,1.74463-5.01611v-.27246c0-2.94385-1.09033-5.01563-3.32569-6.16065s-5.7246-1.68994-10.57666-1.68994H54.71191Z"/><path class="cls-1" d="M23.15137,465.08447H4.124V426.48438H23.69629c6.21533,0,10.79492.76367,13.73877,2.23535,2.94433,1.47216,4.4165,4.03466,4.4165,7.63281v.10889c0,2.67187-.76367,4.74365-2.29,6.10644a13.16214,13.16214,0,0,1-6.76025,2.835c3.37988.436,5.94238,1.3086,7.63281,2.67139,1.68994,1.36328,2.50781,3.54394,2.50781,6.43359v.0542a10.28924,10.28924,0,0,1-.54541,3.54395,7.54087,7.54087,0,0,1-1.74462,2.72607,12.94522,12.94522,0,0,1-6.65137,3.271A50.81776,50.81776,0,0,1,23.15137,465.08447ZM8.37646,443.71289H23.91455c1.36279,0,2.67139-.05469,3.87061-.10937a29.32116,29.32116,0,0,0,3.32568-.38135,9.74335,9.74335,0,0,0,4.79785-2.07178,5.439,5.439,0,0,0,1.68994-4.36182v-.05419A5.22446,5.22446,0,0,0,34.273,431.4458C32.03809,430.519,28.603,430.083,23.85986,430.083H8.37646Zm15.15625,3.48926H8.37646v14.1206H22.76953c1.79932,0,3.48926-.05468,5.01563-.16357a26.90035,26.90035,0,0,0,3.98-.43652,9.92079,9.92079,0,0,0,5.17968-2.07129,5.63,5.63,0,0,0,1.63526-4.30713v-.05469a7.83636,7.83636,0,0,0-.436-2.67139,4.396,4.396,0,0,0-1.36279-1.9082,9.45319,9.45319,0,0,0-5.07031-2.01709A57.68875,57.68875,0,0,0,23.53271,447.20215Z"/><path class="cls-1" d="M55.04443,525.48389H50.84668l-14.7749-33.42041L19.49805,525.48389H15.24512l-12.2666-38.6001h4.416l10.57666,33.31152L34.436,486.88379H37.98l14.88379,33.58447,13.13916-33.58447h4.416Z"/><path class="cls-1" d="M83.05859,486.88379v38.6001H78.91553v-38.6001Z"/><path class="cls-1" d="M129.17969,486.88379V490.646h-16.792v34.83789H107.917V490.646H91.88818v-3.76221Z"/><path class="cls-1" d="M175.625,525.48389h-4.30713v-17.228H140.78662v17.228h-4.30713v-38.6001h4.30713V504.1123h30.53125V486.88379H175.625Z"/><path class="cls-1" d="M192.19141,486.88379v38.6001h-4.14307v-38.6001Z"/><path class="cls-1" d="M239.13086,525.48389,210.45361,495.062l-2.61718-2.88965v33.31153h-4.19776v-38.6001h4.57959l28.023,29.65869,2.72608,3.05322V486.88379H243.165v38.6001Z"/><path class="cls-1" d="M301.72949,502.23535a15.76767,15.76767,0,0,1,4.9668,4.62988,10.14166,10.14166,0,0,1,1.80859,5.749,9.94685,9.94685,0,0,1-1.67968,5.49512,15.86587,15.86587,0,0,1-4.5542,4.52832,24.01969,24.01969,0,0,1-6.69141,3.05273,28.44124,28.44124,0,0,1-8.03955,1.11914,23.126,23.126,0,0,1-2.54492-.20361q-1.67871-.20362-4.249-.76319-2.57007-.55884-6.08105-1.52636-3.51049-.96607-8.09033-2.49317v-4.5791q1.93286.96753,4.40088,2.26416,2.46825,1.29786,5.24218,2.54395a56.63786,56.63786,0,0,0,5.75,2.21337,29.92581,29.92581,0,0,0,5.95362,1.29737,20.7177,20.7177,0,0,0,5.80127-.15235,13.95848,13.95848,0,0,0,5.36914-2.16259,12.0139,12.0139,0,0,0,4.17187-4.68067,12.73728,12.73728,0,0,0,1.42578-5.74951,9.73317,9.73317,0,0,0-1.11963-4.5791,13.63646,13.63646,0,0,0-3.15429-3.91748,15.01383,15.01383,0,0,1-2.82373,2.62012,17.50147,17.50147,0,0,1-3.73975,2.03515,25.698,25.698,0,0,1-9.51416,1.80615,24.85008,24.85008,0,0,1-8.42041-1.37353A17.51417,17.51417,0,0,1,269.583,505.644a10.67374,10.67374,0,0,1-2.46778-3.15429,8.50008,8.50008,0,0,1-.99218-4.01954,8.6517,8.6517,0,0,1,1.85693-5.54589,14.95588,14.95588,0,0,1,4.605-3.84131,23.29615,23.29615,0,0,1,5.92725-2.23877,25.974,25.974,0,0,1,5.82568-.73779,19.8028,19.8028,0,0,1,2.34033.15283,29.04126,29.04126,0,0,1,3.53614.73779q2.26317.58521,5.92724,1.7041,3.66357,1.11987,9.61621,3.104v4.68066q-2.14086-.96606-4.688-2.39111-2.54736-1.42383-5.32421-2.82373-2.77735-1.39893-5.68067-2.51856a26.42367,26.42367,0,0,0-5.75732-1.52637,15.886,15.886,0,0,0-5.52832.15235,11.5671,11.5671,0,0,0-5.01856,2.49316,11.0661,11.0661,0,0,0-2.77685,3.61231,11.22368,11.22368,0,0,0-1.04493,4.98632,8.96035,8.96035,0,0,0,1.07032,4.32471,24.86386,24.86386,0,0,1,7.05517-3.30713,30.1384,30.1384,0,0,1,8.7378-1.22119,30.75731,30.75731,0,0,1,7.94726.9668A26.8243,26.8243,0,0,1,301.72949,502.23535Zm-17.3916,7.63184a17.15186,17.15186,0,0,0,7.27539-1.52637,13.56611,13.56611,0,0,0,5.24072-4.07031,1.89527,1.89527,0,0,0-.7124-2.90039,26.824,26.824,0,0,0-18.291-.89014,19.61545,19.61545,0,0,0-6.23243,3.28174,11.88955,11.88955,0,0,0,2.23877,2.49267,14.69593,14.69593,0,0,0,2.95069,1.9336,15.54815,15.54815,0,0,0,3.53613,1.24658A17.9986,17.9986,0,0,0,284.33789,509.86719Z"/><path class="cls-1" d="M351.19238,500.60693a10.3817,10.3817,0,0,1-1.73047,5.8003,14.82006,14.82006,0,0,1-4.68066,4.47754,19.95343,19.95343,0,0,1-6.94434,2.79785,23.37913,23.37913,0,0,1-7.60644.28027,24.38712,24.38712,0,0,1-7.37744-2.1626,19.66221,19.66221,0,0,1-6.20752-4.5791q.55956,4.325,1.043,7.68262.48339,3.35815.89062,5.74951.4065,2.79858.76319,4.88428h-4.78272V487.37842H332.876a24.41932,24.41932,0,0,1,7.42773,1.06836,19.38486,19.38486,0,0,1,5.77539,2.875,13.55119,13.55119,0,0,1,3.76465,4.19726A10.20654,10.20654,0,0,1,351.19238,500.60693Zm-10.07422,10.583a12.57819,12.57819,0,0,0,4.65528-4.52832,11.79725,11.79725,0,0,0,1.60254-6.05469,11.24231,11.24231,0,0,0-.94043-4.5791,10.63836,10.63836,0,0,0-2.77344-3.73926,14.60512,14.60512,0,0,0-4.55371-2.6206,21.30571,21.30571,0,0,0-6.23242-1.22119q-3.00294-.15235-6.13086-.2544-3.12891-.10107-5.72412-.20312-3.05274-.10181-5.95264-.10205.10107,2.90039.30518,5.46972.20288,2.56934.66162,5.46924a16.78831,16.78831,0,0,0,3.25634,7.86084,17.12126,17.12126,0,0,0,6.105,5.01172,16.8577,16.8577,0,0,0,7.68262,1.67871A17.0421,17.0421,0,0,0,341.11816,511.18994Z"/><path class="cls-1" d="M378.81934,486.10645a24.99483,24.99483,0,0,1,9.23437,1.6538,22.81269,22.81269,0,0,1,7.19922,4.42627,19.9985,19.9985,0,0,1,4.68066,6.46192,18.99594,18.99594,0,0,1,0,15.61963,20.262,20.262,0,0,1-4.68066,6.48681,22.20329,22.20329,0,0,1-7.19922,4.42676,27.0048,27.0048,0,0,1-18.46875,0,22.482,22.482,0,0,1-7.22461-4.42676,20.078,20.078,0,0,1-4.707-6.48681,19.006,19.006,0,0,1,0-15.61963,19.81932,19.81932,0,0,1,4.707-6.46192,23.10479,23.10479,0,0,1,7.22461-4.42627A24.9875,24.9875,0,0,1,378.81934,486.10645Zm0,40.0415a24.47641,24.47641,0,0,0,7.40234-1.06836,14.52878,14.52878,0,0,0,5.82617-3.43408,15.80036,15.80036,0,0,0,3.79-6.10547,26.91959,26.91959,0,0,0,1.34863-9.082,24.93472,24.93472,0,0,0-1.34863-8.57276,16.82711,16.82711,0,0,0-3.79-6.15673,15.74356,15.74356,0,0,0-5.82617-3.71387,22.6796,22.6796,0,0,0-14.83106,0,15.54263,15.54263,0,0,0-5.77441,3.71387,16.97773,16.97773,0,0,0-3.76465,6.15673,27.92283,27.92283,0,0,0,0,17.146,16.96329,16.96329,0,0,0,3.76465,6.15625,15.52572,15.52572,0,0,0,5.77441,3.71436A21.21561,21.21561,0,0,0,378.81934,526.148Z"/><path class="cls-1" d="M439.00781,525.5376l-7.78418-8.95459a7.37072,7.37072,0,0,0-2.6709-1.9336,7.05791,7.05791,0,0,0-3.23046-.55957,24.12956,24.12956,0,0,1-4.8086-.27978,23.18421,23.18421,0,0,1-4.68066-1.24658,23.47662,23.47662,0,0,1-4.3252-2.1875,18.9362,18.9362,0,0,1-3.73926-3.15479q.55957,4.325,1.043,7.68262.48341,3.35815.89063,5.74951.40577,2.79858.76269,4.88428h-4.78222V487.37842H423.999a24.41939,24.41939,0,0,1,7.42774,1.06836,19.38486,19.38486,0,0,1,5.77539,2.875,13.55119,13.55119,0,0,1,3.76465,4.19726,10.20664,10.20664,0,0,1,1.34863,5.08789,10.3817,10.3817,0,0,1-1.73047,5.8003,14.82016,14.82016,0,0,1-4.68066,4.47754,22.26053,22.26053,0,0,1-4.52832,2.13671q3.40869,3.30762,6.0039,5.64747,2.5957,2.34081,4.376,3.86669,2.03466,1.782,3.56152,3.002ZM407.1582,498.82617a16.78339,16.78339,0,0,0,2.64551,6.97071,17.27445,17.27445,0,0,0,4.88477,4.85888,16.91436,16.91436,0,0,0,13.27929,2.21289L406.19141,487.938q.10107,2.90038.30566,5.44433Q406.69923,495.92676,407.1582,498.82617ZM423.999,488.44678q-2.49316-.15235-5.16406-.2544-2.67187-.10107-5.03711-.17773-2.36572-.07617-4.19726-.10205-1.83252-.0249-2.74805-.02539,7.22462,7.78491,13.07617,13.7373,5.85058,5.95313,10.48145,10.43018.457-.20289.915-.40674.45849-.20288.916-.458a12.57816,12.57816,0,0,0,4.65527-4.52832,11.79725,11.79725,0,0,0,1.60254-6.05469,11.24215,11.24215,0,0,0-.94043-4.5791,10.63821,10.63821,0,0,0-2.77343-3.73926,14.60524,14.60524,0,0,0-4.55371-2.6206A21.30585,21.30585,0,0,0,423.999,488.44678Z"/><path class="cls-1" d="M494.36426,491.95752A20.76125,20.76125,0,0,0,490.04,489.77a25.61187,25.61187,0,0,0-4.98633-1.22119,5.82578,5.82578,0,0,0-3.3584.4834,7.00839,7.00839,0,0,0-2.69629,2.26416L453.916,525.5376h-5.5459q2.95018-2.9004,7.47949-7.937,3.86572-4.32423,9.9209-11.44776,6.05419-7.12279,14.60254-17.8584a38.74126,38.74126,0,0,0-4.29981.17823q-2.6704.22851-5.69824.63574-3.02783.408-6.10547.916-3.07909.509-5.57129.94092-2.49316.43287-5.59668,1.043v-4.62988h41.2627Z"/><path class="cls-1" d="M531.85254,502.23535a15.76767,15.76767,0,0,1,4.9668,4.62988,10.14545,10.14545,0,0,1,1.80859,5.749,9.95074,9.95074,0,0,1-1.67969,5.49512,15.86138,15.86138,0,0,1-4.55469,4.52832,24.00668,24.00668,0,0,1-6.6914,3.05273,28.4403,28.4403,0,0,1-8.03906,1.11914,23.11737,23.11737,0,0,1-2.54493-.20361q-1.67871-.20362-4.249-.76319-2.56934-.55884-6.08105-1.52636-3.50977-.96607-8.09082-2.49317v-4.5791q1.93359.96753,4.40136,2.26416,2.46827,1.29786,5.24219,2.54395a56.68247,56.68247,0,0,0,5.75,2.21337,29.93045,29.93045,0,0,0,5.9541,1.29737,20.7142,20.7142,0,0,0,5.80078-.15235,13.96148,13.96148,0,0,0,5.36914-2.16259,12.01385,12.01385,0,0,0,4.17188-4.68067,12.73741,12.73741,0,0,0,1.42578-5.74951,9.73854,9.73854,0,0,0-1.11914-4.5791,13.64041,13.64041,0,0,0-3.15527-3.91748,14.99556,14.99556,0,0,1-2.82325,2.62012,17.49373,17.49373,0,0,1-3.74023,2.03515,25.68757,25.68757,0,0,1-9.51367,1.80615,24.85291,24.85291,0,0,1-8.4209-1.37353,17.50792,17.50792,0,0,1-6.334-3.76514,10.66574,10.66574,0,0,1-2.46777-3.15429,8.50009,8.50009,0,0,1-.99219-4.01954,8.64653,8.64653,0,0,1,1.85743-5.54589A14.94824,14.94824,0,0,1,502.708,489.083a23.28575,23.28575,0,0,1,5.92676-2.23877,25.98136,25.98136,0,0,1,5.82617-.73779,19.78854,19.78854,0,0,1,2.33984.15283,29.02189,29.02189,0,0,1,3.53613.73779q2.26319.58521,5.92774,1.7041,3.66357,1.11987,9.61621,3.104v4.68066q-2.14014-.96606-4.68848-2.39111-2.54589-1.42383-5.32324-2.82373-2.77734-1.39893-5.68164-2.51856a26.4196,26.4196,0,0,0-5.75684-1.52637,15.886,15.886,0,0,0-5.52832.15235,11.56444,11.56444,0,0,0-5.01855,2.49316,11.0673,11.0673,0,0,0-2.77734,3.61231,11.23035,11.23035,0,0,0-1.04395,4.98632,8.95956,8.95956,0,0,0,1.06934,4.32471,24.88571,24.88571,0,0,1,7.05566-3.30713,30.13735,30.13735,0,0,1,8.7373-1.22119,30.765,30.765,0,0,1,7.94825.9668A26.82835,26.82835,0,0,1,531.85254,502.23535Zm-17.3916,7.63184a17.15186,17.15186,0,0,0,7.27539-1.52637,13.56438,13.56438,0,0,0,5.24023-4.07031,1.89476,1.89476,0,0,0-.71191-2.90039,26.82407,26.82407,0,0,0-18.291-.89014,19.605,19.605,0,0,0-6.23242,3.28174,11.914,11.914,0,0,0,2.23828,2.49267,14.71365,14.71365,0,0,0,2.95117,1.9336,15.54806,15.54806,0,0,0,3.53614,1.24658A17.9954,17.9954,0,0,0,514.46094,509.86719Z"/><path class="cls-1" d="M48.39307,585.9375H43.6499l-5.83349-11.01367H13.00977L7.28564,585.9375H2.542L22.9873,547.33691h4.47022Zm-33.5293-14.61133H35.85352L25.27686,551.37158Z"/><path class="cls-1" d="M90.09424,585.9375,61.417,555.51514l-2.61719-2.88965v33.312H54.60156V547.33691h4.58008l28.02295,29.65918,2.72607,3.05274V547.33691h4.19776V585.9375Z"/><path class="cls-1" d="M120.2915,585.9375H102.46387V547.33691h16.95556a37.55761,37.55761,0,0,1,9.1045,1.03614,21.76509,21.76509,0,0,1,7.46923,3.38037,15.10431,15.10431,0,0,1,5.01563,5.88769,19.9355,19.9355,0,0,1,1.79932,8.83252v.1084a25.24591,25.24591,0,0,1-.7085,6.32422,15.31213,15.31213,0,0,1-2.23535,4.96191,16.09881,16.09881,0,0,1-7.96,6.16114A33.68372,33.68372,0,0,1,120.2915,585.9375Zm-.98144-34.78418H106.77051v30.91309h13.35742a30.60552,30.60552,0,0,0,5.125-.38184,21.81036,21.81036,0,0,0,4.416-1.03613,13.11527,13.11527,0,0,0,6.4331-4.85156c1.52686-2.23633,2.29-5.34376,2.29-9.26954v-.05371a21.00443,21.00443,0,0,0-.59961-5.125,13.03668,13.03668,0,0,0-1.854-3.92529,13.41928,13.41928,0,0,0-6.76026-4.79785A30.534,30.534,0,0,0,119.31006,551.15332Z"/><path class="cls-1" d="M202.93457,581.84766v4.08984H170.00488V547.33691h4.36133v34.51075Z"/><path class="cls-1" d="M214.16016,582.06641H246.981v3.87109H209.96191V547.33691h35.9834v3.76221H214.16016V565.165h26.82373v3.76172H214.16016Z"/><path class="cls-1" d="M260.168,547.33691V585.9375H256.0249V547.33691Z"/><path class="cls-1" d="M290.04248,587.02734a53.38529,53.38529,0,0,1-6.86914-.38086,28.5425,28.5425,0,0,1-5.50684-1.20019,14.22386,14.22386,0,0,1-7.19629-4.85254,17.357,17.357,0,0,1-3.10791-8.28711h4.689c.54492,3.98047,2.23535,6.81543,5.12451,8.39648q4.33448,2.45362,12.92139,2.45313c5.28857,0,9.15918-.6543,11.50342-2.01758a6.22694,6.22694,0,0,0,3.48925-5.66992,7.1993,7.1993,0,0,0-.436-2.5625,4.74773,4.74773,0,0,0-1.36279-1.74414,12.68776,12.68776,0,0,0-5.67041-1.96289c-2.562-.38086-5.8877-.6543-9.97706-.92676-2.01709-.16308-3.8706-.32715-5.561-.59961a43.88218,43.88218,0,0,1-4.57959-.81738,12.19078,12.19078,0,0,1-6.106-3.10791,7.88415,7.88415,0,0,1-2.07177-5.7793,9.52415,9.52415,0,0,1,4.63427-8.28662q4.57911-3.10767,13.90235-3.10791,9.56835,0,14.88379,3.27148a12.97544,12.97544,0,0,1,6.21533,9.54053h-4.52539a8.75836,8.75836,0,0,0-4.96094-6.92383c-2.88965-1.47216-6.81494-2.18066-11.72168-2.18066-4.85254,0-8.396.6543-10.63135,1.9082a6.21677,6.21677,0,0,0-3.43506,5.66993,5.11463,5.11463,0,0,0,.38184,2.12646,5.55056,5.55056,0,0,0,1.145,1.63525,10.891,10.891,0,0,0,4.96094,1.96289,83.59866,83.59866,0,0,0,9.15966,1.03565c2.23536.16357,4.30713.32715,6.16065.54541s3.54394.49072,5.01562.81787a13.74479,13.74479,0,0,1,6.70606,3.10693A8.26091,8.26091,0,0,1,309.397,575.251a9.8789,9.8789,0,0,1-4.68847,8.66894C301.54639,585.99219,296.63965,587.02734,290.04248,587.02734Z"/><path class="cls-1" d="M336.37793,587.02734c-6.86914,0-11.88477-1.74414-15.10156-5.17968-3.2168-3.43457-4.79785-8.77735-4.79785-16.083V547.33691h4.4707v18.31885c0,5.8335,1.19971,10.1958,3.65283,12.9751,2.39893,2.83594,6.32373,4.25293,11.83057,4.25293,5.28906,0,9.21386-1.36231,11.667-4.14356,2.4541-2.78027,3.65332-7.14257,3.65332-13.13916V547.33691h4.4707v18.37354c0,7.35986-1.69043,12.75732-5.01562,16.19189C347.88184,585.33789,342.9209,587.02734,336.37793,587.02734Z"/><path class="cls-1" d="M386.3125,570.99805H369.62891V585.9375h-4.30664V547.33691h20.60839c6.48731,0,11.12207.92725,13.957,2.72608,2.835,1.79931,4.252,4.74316,4.252,8.72314q0,4.66187-2.45313,7.03321c-1.63574,1.63574-4.08886,2.72558-7.30566,3.32519,3.2168.59961,5.50684,1.85352,6.81543,3.708,1.25391,1.85351,1.9082,4.63379,1.9082,8.28613v2.4541a4.04638,4.04638,0,0,0,.21778,1.417,1.46918,1.46918,0,0,0,.59961.92773H399.2334a1.19788,1.19788,0,0,1-.49121-.92773,6.10316,6.10316,0,0,1-.16309-1.47168v-2.34473a21.97417,21.97417,0,0,0-.27246-3.43359,8.217,8.217,0,0,0-.81836-2.61719,6.65,6.65,0,0,0-3.8164-3.2168A23.95435,23.95435,0,0,0,386.3125,570.99805Zm-16.68359-3.76172H385.6582c1.417,0,2.72559-.05469,3.9795-.16309a20.99091,20.99091,0,0,0,3.43457-.43652,9.86318,9.86318,0,0,0,4.96191-2.39844,6.83662,6.83662,0,0,0,1.74414-5.01611v-.27246c0-2.94385-1.08984-5.01563-3.3252-6.16065s-5.7246-1.68994-10.57714-1.68994H369.62891Z"/><path class="cls-1" d="M418.30859,582.06641h32.82032v3.87109H414.11035V547.33691h35.98242v3.76221H418.30859V565.165h26.82325v3.76172H418.30859Z"/><path class="cls-1" d="M508.041,585.9375h-4.19825l-14.77441-33.4209-16.57422,33.4209h-4.25293l-12.2666-38.60059h4.416l10.57715,33.31153,16.46485-33.31153h3.54394l14.88379,33.585,13.13867-33.585h4.416Z"/><path class="cls-1" d="M533.2207,582.06641H566.041v3.87109H529.02246V547.33691h35.98242v3.76221H533.2207V565.165H560.044v3.76172H533.2207Z"/><path class="cls-1" d="M617.502,585.9375h-4.74316l-5.834-11.01367H582.11816l-5.72461,11.01367h-4.74316l20.44531-38.60059h4.47071Zm-33.53027-14.61133h20.99023l-10.57617-19.95459Z"/><path class="cls-1" d="M644.7002,570.99805H628.0166V585.9375H623.71V547.33691h20.6084c6.4873,0,11.12207.92725,13.957,2.72608,2.835,1.79931,4.25195,4.74316,4.25195,8.72314q0,4.66187-2.45312,7.03321c-1.63574,1.63574-4.08887,2.72558-7.30567,3.32519,3.2168.59961,5.50684,1.85352,6.81543,3.708,1.25391,1.85351,1.90821,4.63379,1.90821,8.28613v2.4541a4.0466,4.0466,0,0,0,.21777,1.417,1.46926,1.46926,0,0,0,.59961.92773h-4.68848a1.19788,1.19788,0,0,1-.49121-.92773,6.10318,6.10318,0,0,1-.16308-1.47168v-2.34473a21.97538,21.97538,0,0,0-.27246-3.43359,8.21751,8.21751,0,0,0-.81836-2.61719,6.65,6.65,0,0,0-3.81641-3.2168A23.95428,23.95428,0,0,0,644.7002,570.99805Zm-16.6836-3.76172h16.0293c1.417,0,2.72558-.05469,3.97949-.16309a20.99077,20.99077,0,0,0,3.43457-.43652,9.86322,9.86322,0,0,0,4.96192-2.39844,6.83662,6.83662,0,0,0,1.74414-5.01611v-.27246c0-2.94385-1.08985-5.01563-3.3252-6.16065s-5.72461-1.68994-10.57715-1.68994H628.0166Z"/><path class="cls-1" d="M674.624,586.7002a4.16208,4.16208,0,0,1-2.88867-.87208,3.392,3.392,0,0,1-.98144-2.72656,3.5965,3.5965,0,0,1,.98144-2.78027,4.22816,4.22816,0,0,1,2.94336-.92676,4.17724,4.17724,0,0,1,2.88965.92676,3.79611,3.79611,0,0,1,.92676,2.78027,3.31146,3.31146,0,0,1-1.03614,2.72656A4.19872,4.19872,0,0,1,674.624,586.7002Z"/></svg>